{
.appVersion = "1057";
copyright = "Copyright 2017 Google Inc. All Rights Reserved.";
customParameters = (
{
name = glyphOrder;
value = (
.notdef,
NULL,
CR,
space,
uni00A0,
hyphen,
hyphentwo,
u10A00,
u10A01,
u10A02,
u10A03,
u10A05,
u10A06,
u10A0C,
u10A0D,
u10A0E,
u10A0F,
u10A10,
u10A11,
u10A12,
u10A13,
u10A15,
u10A16,
u10A17,
u10A19,
u10A1A,
u10A1B,
u10A1C,
u10A1D,
u10A1E,
u10A1F,
u10A20,
u10A21,
u10A22,
u10A23,
u10A24,
u10A25,
u10A26,
u10A27,
u10A28,
u10A29,
u10A2A,
u10A2B,
u10A2C,
u10A2D,
u10A2E,
u10A2F,
u10A30,
u10A31,
u10A32,
u10A33,
u10A38,
u10A39,
u10A3A,
u10A3F,
u10A40,
u10A41,
u10A42,
u10A43,
u10A44,
u10A45,
u10A46,
u10A47,
u10A50,
u10A51,
u10A52,
u10A53,
u10A54,
u10A55,
u10A56,
u10A57,
u10A58,
u10A1010A01,
u10A1110A01,
u10A1210A01,
u10A1310A01,
u10A1510A01,
u10A1610A01,
u10A1710A01,
u10A1910A01,
u10A1A10A01,
u10A1B10A01,
u10A1C10A01,
u10A1D10A01,
u10A1E10A01,
u10A1F10A01,
u10A2010A01,
u10A2110A01,
u10A2210A01,
u10A2310A01,
u10A2410A01,
u10A2510A01,
u10A2610A01,
u10A2710A01,
u10A2810A01,
u10A2910A01,
u10A2A10A01,
u10A2B10A01,
u10A2C10A01,
u10A2D10A01,
u10A2E10A01,
u10A2F10A01,
u10A3010A01,
u10A3110A01,
u10A3210A01,
u10A3310A01,
u10A0010A01,
u10A2810A02,
u10A0010A05,
u10A2310A05,
u10A3110A05,
u10A2010A05,
u10A2410A05,
u10A2510A05,
u10A2B10A05,
u10A2D10A05,
u10A2110A05,
u10A2810A05,
u10A2410A06,
u10A2510A06,
u10A2910A06,
u10A2D10A06,
u10A2210A0110A1010A3F,
u10A1010A3F10A2E,
u10A2810A3F10A2A,
u10A2C10A3F10A31,
u10A2F10A3F10A1F,
u10A2F10A3F10A29,
u10A2A10A3F10A1F,
u10A1F10A3F10A2A,
u10A2B10A3F10A24,
u10A2410A3F10A2B,
u10A1010A3F10A2B,
u10A1F10A3F10A2C,
u10A1010A3F10A1F,
u10A1110A3F10A1010A3F10A2E,
uni200B,
uni200C,
uni200D,
uni25CC
);
},
{
name = description;
value = "Designed by Monotype design team.";
},
{
name = license;

glyphs = (
{
glyphname = .notdef;
lastChange = "2017-09-08 13:56:04 +0000";
layers = (
{
layerId = UUID0;
paths = (
{
closed = 1;
nodes = (
"505 0 LINE",
"505 714 LINE",
"94 714 LINE",
"94 0 LINE"
);
},
{
closed = 1;
nodes = (
"145 663 LINE",
"454 663 LINE",
"454 51 LINE",
"145 51 LINE"
);
}
);
width = 600;
}
);
},
{
glyphname = hyphen;
lastChange = "2017-09-08 13:56:04 +0000";
layers = (
{
associatedMasterId = UUID0;
background = {
paths = (
{
closed = 1;
nodes = (
"297 192 LINE",
"297 344 LINE",
"21 344 LINE",
"21 192 LINE"
);
}
);
};
layerId = "0A718E2F-231D-484E-9433-16A5230D2CE8";
paths = (
{
closed = 1;
nodes = (
"297 192 LINE",
"297 344 LINE",
"21 344 LINE",
"21 192 LINE"
);
}
);
width = 318;
},
{
associatedMasterId = UUID0;
background = {
paths = (
{
closed = 1;
nodes = (
"296 192 LINE",
"296 344 LINE",
"29 344 LINE",
"29 192 LINE"
);
}
);
};
layerId = "98E204A9-1C79-49C7-AB3E-40A925F56409";
paths = (
{
closed = 1;
nodes = (
"296 192 LINE",
"296 344 LINE",
"29 344 LINE",
"29 192 LINE"
);
}
);
width = 325;
},
{
associatedMasterId = UUID0;
background = {
paths = (
{
closed = 1;
nodes = (
"282 229 LINE",
"282 307 LINE",
"40 307 LINE",
"40 229 LINE"
);
}
);
};
layerId = "9FF96064-8718-4A86-A5C8-73C592101F67";
paths = (
{
closed = 1;
nodes = (
"282 229 LINE",
"282 307 LINE",
"40 307 LINE",
"40 229 LINE"
);
}
);
width = 322;
},
{
associatedMasterId = UUID0;
background = {
paths = (
{
closed = 1;
nodes = (
"292 207 LINE",
"292 329 LINE",
"30 329 LINE",
"30 207 LINE"
);
}
);
};
layerId = "134B12F2-BF5D-48E3-8003-C7502B438C7E";
paths = (
{
closed = 1;
nodes = (
"292 207 LINE",
"292 329 LINE",
"30 329 LINE",
"30 207 LINE"
);
}
);
width = 322;
},
{
associatedMasterId = UUID0;
background = {
paths = (
{
closed = 1;
nodes = (
"247 229 LINE",
"247 310 LINE",
"27 310 LINE",
"27 229 LINE"
);
}
);
};
layerId = "36F3C8CB-53EE-4548-BFDE-2C03212BACAA";
paths = (
{
closed = 1;
nodes = (
"247 229 LINE",
"247 310 LINE",
"27 310 LINE",
"27 229 LINE"
);
}
);
width = 274;
},
{
associatedMasterId = UUID0;
background = {
paths = (
{
closed = 1;
nodes = (
"277 206 LINE",
"277 331 LINE",
"28 331 LINE",
"28 206 LINE"
);
}
);
};
layerId = "43B45EC1-5522-4B1A-B0C7-88628E50A583";
paths = (
{
closed = 1;
nodes = (
"277 206 LINE",
"277 331 LINE",
"28 331 LINE",
"28 206 LINE"
);
}
);
width = 305;
},
{
layerId = UUID0;
paths = (
{
closed = 1;
nodes = (
"282 229 LINE",
"282 307 LINE",
"40 307 LINE",
"40 229 LINE"
);
}
);
width = 322;
},
{
associatedMasterId = UUID0;
background = {
paths = (
{
closed = 1;
nodes = (
"237 259 LINE",
"237 286 LINE",
"26 286 LINE",
"26 259 LINE"
);
}
);
};
layerId = "029FEF0C-5FA4-4A3E-AC23-838A1147A554";
paths = (
{
closed = 1;
nodes = (
"237 259 LINE",
"237 286 LINE",
"26 286 LINE",
"26 259 LINE"
);
}
);
width = 263;
}
);
leftKerningGroup = hyphen.right;
rightKerningGroup = hyphen.left;
unicode = 002D;
},
{
glyphname = hyphentwo;
lastChange = "2017-09-08 13:56:04 +0000";
layers = (
{
associatedMasterId = UUID0;
background = {
components = (
{
name = hyphen;
}
);
};
components = (
{
alignment = -1;
name = hyphen;
}
);
layerId = "0A718E2F-231D-484E-9433-16A5230D2CE8";
width = 318;
},
{
associatedMasterId = UUID0;
background = {
components = (
{
name = hyphen;
}
);
};
components = (
{
alignment = -1;
name = hyphen;
}
);
layerId = "98E204A9-1C79-49C7-AB3E-40A925F56409";
width = 325;
},
{
associatedMasterId = UUID0;
background = {
components = (
{
name = hyphen;
}
);
};
components = (
{
alignment = -1;
name = hyphen;
}
);
layerId = "9FF96064-8718-4A86-A5C8-73C592101F67";
width = 322;
},
{
associatedMasterId = UUID0;
background = {
components = (
{
name = hyphen;
}
);
};
components = (
{
alignment = -1;
name = hyphen;
}
);
layerId = "134B12F2-BF5D-48E3-8003-C7502B438C7E";
width = 322;
},
{
associatedMasterId = UUID0;
background = {
components = (
{
name = hyphen;
}
);
};
components = (
{
alignment = -1;
name = hyphen;
}
);
layerId = "36F3C8CB-53EE-4548-BFDE-2C03212BACAA";
width = 274;
},
{
associatedMasterId = UUID0;
background = {
components = (
{
name = hyphen;
}
);
};
components = (
{
alignment = -1;
name = hyphen;
}
);
layerId = "43B45EC1-5522-4B1A-B0C7-88628E50A583";
width = 305;
},
{
layerId = UUID0;
paths = (
{
closed = 1;
nodes = (
"282 229 LINE",
"282 307 LINE",
"40 307 LINE",
"40 229 LINE"
);
}
);
width = 322;
},
{
associatedMasterId = UUID0;
background = {
components = (
{
name = hyphen;
}
);
};
components = (
{
alignment = -1;
name = hyphen;
}
);
layerId = "029FEF0C-5FA4-4A3E-AC23-838A1147A554";
width = 263;
}
);
widthMetricsKey = "=hyphen";
unicode = 2010;
},
{
glyphname = u10A00;
lastChange = "2017-09-08 13:56:04 +0000";
layers = (
{
layerId = UUID0;
paths = (
{
closed = 1;
nodes = (
"429 109 OFFCURVE",
"516 313 OFFCURVE",
"516 478 CURVE SMOOTH",
"516 613 OFFCURVE",
"461 716 OFFCURVE",
"294 716 CURVE SMOOTH",
"161 716 OFFCURVE",
"88 631 OFFCURVE",
"88 536 CURVE SMOOTH",
"88 483 OFFCURVE",
"110 428 OFFCURVE",
"158 380 CURVE",
"221 432 LINE",
"188 467 OFFCURVE",
"172 505 OFFCURVE",
"172 539 CURVE SMOOTH",
"172 595 OFFCURVE",
"214 642 OFFCURVE",
"294 642 CURVE SMOOTH",
"395 642 OFFCURVE",
"430 570 OFFCURVE",
"430 474 CURVE SMOOTH",
"430 316 OFFCURVE",
"336 100 OFFCURVE",
"288 6 CURVE",
"368 -16 LINE"
);
}
);
width = 589;
}
);
unicode = 10A00;
},
{
glyphname = u10A01;
lastChange = "2017-09-08 13:56:04 +0000";
layers = (
{
layerId = UUID0;
paths = (
{
closed = 1;
nodes = (
"371 508 OFFCURVE",
"487 721 OFFCURVE",
"542 812 CURVE",
"470 847 LINE",
"414 752 OFFCURVE",
"304 558 OFFCURVE",
"239 404 CURVE",
"313 375 LINE"
);
}
);
width = 0;
}
);
unicode = 10A01;
},
{
glyphname = u10A02;
lastChange = "2017-09-08 13:56:04 +0000";
layers = (
{
layerId = UUID0;
paths = (
{
closed = 1;
nodes = (
"293 -256 OFFCURVE",
"361 -155 OFFCURVE",
"388 41 CURVE",
"337 50 OFFCURVE",
"231 56 OFFCURVE",
"204 56 CURVE SMOOTH",
"70 56 OFFCURVE",
"3 -23 OFFCURVE",
"3 -127 CURVE SMOOTH",
"3 -203 OFFCURVE",
"70 -256 OFFCURVE",
"141 -256 CURVE SMOOTH"
);
},
{
closed = 1;
nodes = (
"113 -182 OFFCURVE",
"87 -149 OFFCURVE",
"87 -117 CURVE SMOOTH",
"87 -57 OFFCURVE",
"116 -9 OFFCURVE",
"204 -9 CURVE SMOOTH",
"228 -9 OFFCURVE",
"266 -10 OFFCURVE",
"298 -14 CURVE",
"281 -107 OFFCURVE",
"241 -182 OFFCURVE",
"155 -182 CURVE SMOOTH"
);
}
);
width = 0;
}
);
unicode = 10A02;
},
{
glyphname = u10A03;
lastChange = "2017-09-08 13:56:04 +0000";
layers = (
{
layerId = UUID0;
paths = (
{
closed = 1;
nodes = (
"369 -212 OFFCURVE",
"459 -183 OFFCURVE",
"459 -92 CURVE SMOOTH",
"459 73 OFFCURVE",
"191 -39 OFFCURVE",
"191 54 CURVE SMOOTH",
"191 73 OFFCURVE",
"195 97 OFFCURVE",
"266 97 CURVE SMOOTH",
"300 97 OFFCURVE",
"347 86 OFFCURVE",
"389 71 CURVE",
"414 142 LINE",
"366 161 OFFCURVE",
"319 168 OFFCURVE",
"261 168 CURVE SMOOTH",
"173 168 OFFCURVE",
"107 124 OFFCURVE",
"107 45 CURVE SMOOTH",
"107 -123 OFFCURVE",
"373 2 OFFCURVE",
"373 -99 CURVE SMOOTH",
"373 -134 OFFCURVE",
"321 -138 OFFCURVE",
"267 -138 CURVE SMOOTH",
"219 -138 OFFCURVE",
"165 -125 OFFCURVE",
"137 -125 CURVE SMOOTH",
"109 -125 OFFCURVE",
"60 -127 OFFCURVE",
"32 -138 CURVE",
"49 -208 LINE",
"71 -203 OFFCURVE",
"105 -202 OFFCURVE",
"138 -202 CURVE SMOOTH",
"169 -202 OFFCURVE",
"208 -212 OFFCURVE",
"267 -212 CURVE SMOOTH"
);
}
);
width = 0;
}
);
unicode = 10A03;
},
{
glyphname = u10A05;
lastChange = "2017-09-08 13:56:04 +0000";
layers = (
{
layerId = UUID0;
paths = (
{
closed = 1;
nodes = (
"441 746 OFFCURVE",
"572 847 OFFCURVE",
"660 907 CURVE",
"610 966 LINE",
"519 904 OFFCURVE",
"401 816 OFFCURVE",
"277 704 CURVE",
"332 650 LINE"
);
}
);
width = 0;
}
);
unicode = 10A05;
},
{
glyphname = u10A06;
lastChange = "2017-09-08 13:56:04 +0000";
layers = (
{
layerId = UUID0;
paths = (
{
closed = 1;
nodes = (
"170 162 OFFCURVE",
"245 281 OFFCURVE",
"381 312 CURVE",
"337 381 LINE",
"187 346 OFFCURVE",
"97 204 OFFCURVE",
"5 26 CURVE",
"84 -10 LINE"
);
}
);
width = 0;
}
);
unicode = 10A06;
},
{
glyphname = u10A0C;
lastChange = "2017-09-08 13:56:04 +0000";
layers = (
{
layerId = UUID0;
paths = (
{
closed = 1;
nodes = (
"634 -174 OFFCURVE",
"649 -99 OFFCURVE",
"649 -30 CURVE SMOOTH",
"649 118 OFFCURVE",
"599 240 OFFCURVE",
"461 305 CURVE",
"422 230 LINE",
"518 186 OFFCURVE",
"563 102 OFFCURVE",
"563 -17 CURVE SMOOTH",
"563 -81 OFFCURVE",
"550 -145 OFFCURVE",
"524 -231 CURVE",
"610 -251 LINE"
);
}
);
width = 0;
}
);
unicode = 10A0C;
},
{
glyphname = u10A0D;
lastChange = "2017-09-08 13:56:04 +0000";
layers = (
{
layerId = UUID0;
paths = (
{
closed = 1;
nodes = (
"223 -270 OFFCURVE",
"264 -246 OFFCURVE",
"298 -217 CURVE",
"332 -246 OFFCURVE",
"373 -270 OFFCURVE",
"427 -270 CURVE SMOOTH",
"530 -270 OFFCURVE",
"583 -208 OFFCURVE",
"583 -148 CURVE SMOOTH",
"583 -91 OFFCURVE",
"535 -35 OFFCURVE",
"438 -35 CURVE SMOOTH",
"381 -35 OFFCURVE",
"340 -75 OFFCURVE",
"301 -116 CURVE",
"264 -75 OFFCURVE",
"224 -35 OFFCURVE",
"161 -35 CURVE SMOOTH",
"64 -35 OFFCURVE",
"16 -91 OFFCURVE",
"16 -148 CURVE SMOOTH",
"16 -208 OFFCURVE",
"69 -270 OFFCURVE",
"172 -270 CURVE SMOOTH"
);
},
{
closed = 1;
nodes = (
"130 -204 OFFCURVE",
"109 -176 OFFCURVE",
"109 -150 CURVE SMOOTH",
"109 -128 OFFCURVE",
"124 -109 OFFCURVE",
"157 -109 CURVE SMOOTH",
"189 -109 OFFCURVE",
"217 -136 OFFCURVE",
"249 -168 CURVE",
"225 -189 OFFCURVE",
"199 -204 OFFCURVE",
"169 -204 CURVE SMOOTH"
);
},
{
closed = 1;
nodes = (
"400 -204 OFFCURVE",
"374 -188 OFFCURVE",
"350 -167 CURVE",
"380 -135 OFFCURVE",
"405 -109 OFFCURVE",
"431 -109 CURVE SMOOTH",
"471 -109 OFFCURVE",
"490 -132 OFFCURVE",
"490 -156 CURVE SMOOTH",
"490 -180 OFFCURVE",
"471 -204 OFFCURVE",
"433 -204 CURVE SMOOTH"
);
}
);
width = 0;
}
);
unicode = 10A0D;
},
{
glyphname = u10A0E;
lastChange = "2017-09-08 13:56:04 +0000";
layers = (
{
layerId = UUID0;
paths = (
{
closed = 1;
nodes = (
"420 -282 OFFCURVE",
"529 -220 OFFCURVE",
"529 -117 CURVE SMOOTH",
"529 -10 OFFCURVE",
"424 43 OFFCURVE",
"336 65 CURVE",
"301 -10 LINE",
"375 -30 OFFCURVE",
"443 -57 OFFCURVE",
"443 -121 CURVE SMOOTH",
"443 -173 OFFCURVE",
"393 -208 OFFCURVE",
"269 -208 CURVE SMOOTH",
"200 -208 OFFCURVE",
"78 -183 OFFCURVE",
"-23 -112 CURVE",
"-69 -173 LINE",
"39 -250 OFFCURVE",
"167 -282 OFFCURVE",
"274 -282 CURVE SMOOTH"
);
}
);
width = 0;
}
);
unicode = 10A0E;
},
{
glyphname = u10A0F;
lastChange = "2017-09-08 13:56:04 +0000";
layers = (
{
layerId = UUID0;
paths = (
{
closed = 1;
nodes = (
"447 773 OFFCURVE",
"466 793 OFFCURVE",
"466 841 CURVE SMOOTH",
"466 890 OFFCURVE",
"447 908 OFFCURVE",
"413 908 CURVE SMOOTH",
"379 908 OFFCURVE",
"362 890 OFFCURVE",
"362 841 CURVE SMOOTH",
"362 793 OFFCURVE",
"379 773 OFFCURVE",
"413 773 CURVE SMOOTH"
);
},
{
closed = 1;
nodes = (
"237 773 OFFCURVE",
"256 793 OFFCURVE",
"256 841 CURVE SMOOTH",
"256 890 OFFCURVE",
"237 908 OFFCURVE",
"203 908 CURVE SMOOTH",
"169 908 OFFCURVE",
"152 890 OFFCURVE",
"152 841 CURVE SMOOTH",
"152 793 OFFCURVE",
"169 773 OFFCURVE",
"203 773 CURVE SMOOTH"
);
}
);
width = 0;
}
);
unicode = 10A0F;
},
{
glyphname = u10A10;
lastChange = "2017-09-08 13:56:04 +0000";
layers = (
{
layerId = UUID0;
paths = (
{
closed = 1;
nodes = (
"409 68 OFFCURVE",
"462 188 OFFCURVE",
"492 307 CURVE",
"602 280 OFFCURVE",
"654 225 OFFCURVE",
"654 143 CURVE SMOOTH",
"654 109 OFFCURVE",
"638 71 OFFCURVE",
"605 36 CURVE",
"668 -16 LINE",
"716 32 OFFCURVE",
"740 87 OFFCURVE",
"740 150 CURVE SMOOTH",
"740 282 OFFCURVE",
"647 353 OFFCURVE",
"507 380 CURVE",
"513 414 OFFCURVE",
"516 446 OFFCURVE",
"516 478 CURVE SMOOTH",
"516 613 OFFCURVE",
"461 716 OFFCURVE",
"294 716 CURVE SMOOTH",
"161 716 OFFCURVE",
"88 631 OFFCURVE",
"88 536 CURVE SMOOTH",
"88 483 OFFCURVE",
"110 428 OFFCURVE",
"158 380 CURVE",
"221 432 LINE",
"188 467 OFFCURVE",
"172 505 OFFCURVE",
"172 539 CURVE SMOOTH",
"172 595 OFFCURVE",
"214 642 OFFCURVE",
"294 642 CURVE SMOOTH",
"395 642 OFFCURVE",
"430 570 OFFCURVE",
"430 474 CURVE SMOOTH",
"430 316 OFFCURVE",
"336 100 OFFCURVE",
"288 6 CURVE",
"368 -16 LINE"
);
}
);
width = 795;
}
);
unicode = 10A10;
},
{
glyphname = u10A11;
lastChange = "2017-09-08 13:56:04 +0000";
layers = (
{
layerId = UUID0;
paths = (
{
closed = 1;
nodes = (
"422 34 OFFCURVE",
"455 122 OFFCURVE",
"455 180 CURVE SMOOTH",
"455 281 OFFCURVE",
"412 308 OFFCURVE",
"314 308 CURVE SMOOTH",
"167 308 OFFCURVE",
"150 379 OFFCURVE",
"150 445 CURVE SMOOTH",
"150 602 OFFCURVE",
"211 645 OFFCURVE",
"315 645 CURVE SMOOTH",
"359 645 OFFCURVE",
"436 632 OFFCURVE",
"490 599 CURVE",
"522 670 LINE",
"467 701 OFFCURVE",
"374 720 OFFCURVE",
"320 720 CURVE SMOOTH",
"164 720 OFFCURVE",
"66 644 OFFCURVE",
"66 443 CURVE SMOOTH",
"66 338 OFFCURVE",
"126 234 OFFCURVE",
"297 234 CURVE SMOOTH",
"361 234 OFFCURVE",
"369 207 OFFCURVE",
"369 178 CURVE SMOOTH",
"369 131 OFFCURVE",
"336 51 OFFCURVE",
"314 15 CURVE",
"385 -17 LINE"
);
}
);
width = 573;
}
);
unicode = 10A11;
},
{
glyphname = u10A12;
lastChange = "2017-09-08 13:56:04 +0000";
layers = (
{
layerId = UUID0;
paths = (
{
closed = 1;
nodes = (
"301 80 OFFCURVE",
"337 266 OFFCURVE",
"358 355 CURVE",
"527 358 OFFCURVE",
"651 439 OFFCURVE",
"651 552 CURVE SMOOTH",
"651 623 OFFCURVE",
"598 680 OFFCURVE",
"509 680 CURVE SMOOTH",
"412 680 OFFCURVE",
"350 612 OFFCURVE",
"295 425 CURVE",
"224 441 OFFCURVE",
"180 484 OFFCURVE",
"180 553 CURVE SMOOTH",
"180 611 OFFCURVE",
"207 654 OFFCURVE",
"235 698 CURVE",
"169 732 LINE",
"139 692 OFFCURVE",
"99 630 OFFCURVE",
"99 546 CURVE SMOOTH",
"99 447 OFFCURVE",
"171 381 OFFCURVE",
"277 361 CURVE",
"254 265 OFFCURVE",
"220 87 OFFCURVE",
"207 -7 CURVE",
"287 -15 LINE"
);
},
{
closed = 1;
nodes = (
"421 580 OFFCURVE",
"457 606 OFFCURVE",
"505 606 CURVE SMOOTH",
"547 606 OFFCURVE",
"567 580 OFFCURVE",
"567 550 CURVE SMOOTH",
"567 472 OFFCURVE",
"473 424 OFFCURVE",
"375 419 CURVE"
);
}
);
width = 680;
}
);
unicode = 10A12;
},
{
glyphname = u10A13;
lastChange = "2017-09-08 13:56:04 +0000";
layers = (
{
layerId = UUID0;
paths = (
{
closed = 1;
nodes = (
"560 32 OFFCURVE",
"584 103 OFFCURVE",
"584 150 CURVE SMOOTH",
"584 247 OFFCURVE",
"514 296 OFFCURVE",
"349 313 CURVE",
"358 355 LINE",
"527 358 OFFCURVE",
"651 439 OFFCURVE",
"651 552 CURVE SMOOTH",
"651 623 OFFCURVE",
"598 680 OFFCURVE",
"509 680 CURVE SMOOTH",
"412 680 OFFCURVE",
"350 612 OFFCURVE",
"295 425 CURVE",
"224 441 OFFCURVE",
"180 484 OFFCURVE",
"180 553 CURVE SMOOTH",
"180 611 OFFCURVE",
"207 654 OFFCURVE",
"235 698 CURVE",
"169 732 LINE",
"139 692 OFFCURVE",
"99 630 OFFCURVE",
"99 546 CURVE SMOOTH",
"99 447 OFFCURVE",
"171 381 OFFCURVE",
"277 361 CURVE",
"254 265 OFFCURVE",
"220 87 OFFCURVE",
"207 -7 CURVE",
"287 -15 LINE",
"296 50 OFFCURVE",
"316 157 OFFCURVE",
"335 247 CURVE",
"478 226 OFFCURVE",
"498 189 OFFCURVE",
"498 143 CURVE SMOOTH",
"498 109 OFFCURVE",
"482 71 OFFCURVE",
"449 36 CURVE",
"512 -16 LINE"
);
},
{
closed = 1;
nodes = (
"421 580 OFFCURVE",
"457 606 OFFCURVE",
"505 606 CURVE SMOOTH",
"547 606 OFFCURVE",
"567 580 OFFCURVE",
"567 550 CURVE SMOOTH",
"567 472 OFFCURVE",
"473 424 OFFCURVE",
"375 419 CURVE"
);
}
);
width = 680;
}
);
unicode = 10A13;
},
{
glyphname = u10A15;
lastChange = "2017-09-08 13:56:04 +0000";
layers = (
{
layerId = UUID0;
paths = (
{
closed = 1;
nodes = (
"387 70 OFFCURVE",
"501 199 OFFCURVE",
"501 320 CURVE SMOOTH",
"501 396 OFFCURVE",
"463 460 OFFCURVE",
"344 471 CURVE",
"386 498 OFFCURVE",
"486 606 OFFCURVE",
"529 678 CURVE",
"469 719 LINE",
"425 658 OFFCURVE",
"393 616 OFFCURVE",
"322 616 CURVE SMOOTH",
"251 616 OFFCURVE",
"185 677 OFFCURVE",
"167 733 CURVE",
"99 691 LINE",
"124 631 OFFCURVE",
"207 537 OFFCURVE",
"317 537 CURVE SMOOTH",
"320 537 OFFCURVE",
"329 538 OFFCURVE",
"336 539 CURVE",
"301 506 OFFCURVE",
"211 464 OFFCURVE",
"187 455 CURVE",
"205 386 LINE",
"233 397 OFFCURVE",
"282 404 OFFCURVE",
"311 404 CURVE SMOOTH",
"349 404 OFFCURVE",
"415 388 OFFCURVE",
"415 318 CURVE SMOOTH",
"415 217 OFFCURVE",
"330 118 OFFCURVE",
"228 26 CURVE",
"291 -17 LINE"
);
}
);
width = 584;
}
);
unicode = 10A15;
},
{
glyphname = u10A16;
lastChange = "2017-09-08 13:56:04 +0000";
layers = (
{
layerId = UUID0;
paths = (
{
closed = 1;
nodes = (
"329 98 OFFCURVE",
"374 279 OFFCURVE",
"424 430 CURVE",
"502 408 OFFCURVE",
"552 354 OFFCURVE",
"552 267 CURVE SMOOTH",
"552 221 OFFCURVE",
"530 155 OFFCURVE",
"497 101 CURVE",
"568 69 LINE",
"605 120 OFFCURVE",
"638 212 OFFCURVE",
"638 274 CURVE SMOOTH",
"638 397 OFFCURVE",
"562 472 OFFCURVE",
"456 501 CURVE",
"502 563 OFFCURVE",
"585 594 OFFCURVE",
"635 678 CURVE",
"570 719 LINE",
"526 658 OFFCURVE",
"487 616 OFFCURVE",
"428 616 CURVE SMOOTH",
"357 616 OFFCURVE",
"291 677 OFFCURVE",
"273 733 CURVE",
"205 691 LINE",
"228 635 OFFCURVE",
"300 550 OFFCURVE",
"398 538 CURVE",
"390 531 OFFCURVE",
"381 523 OFFCURVE",
"373 514 CURVE",
"366 515 OFFCURVE",
"358 515 OFFCURVE",
"350 515 CURVE SMOOTH",
"207 515 OFFCURVE",
"66 438 OFFCURVE",
"66 289 CURVE SMOOTH",
"66 236 OFFCURVE",
"88 181 OFFCURVE",
"136 133 CURVE",
"199 185 LINE",
"166 220 OFFCURVE",
"150 258 OFFCURVE",
"150 292 CURVE SMOOTH",
"150 393 OFFCURVE",
"229 441 OFFCURVE",
"337 441 CURVE",
"338 441 LINE",
"291 288 OFFCURVE",
"243 109 OFFCURVE",
"227 -8 CURVE",
"312 -15 LINE"
);
}
);
width = 715;
}
);
unicode = 10A16;
},
{
glyphname = u10A17;
lastChange = "2017-09-08 13:56:04 +0000";
layers = (
{
layerId = UUID0;
paths = (
{
closed = 1;
nodes = (
"291 99 OFFCURVE",
"513 449 OFFCURVE",
"563 704 CURVE",
"481 718 LINE",
"466 641 OFFCURVE",
"433 552 OFFCURVE",
"390 463 CURVE",
"268 591 OFFCURVE",
"207 690 OFFCURVE",
"189 730 CURVE",
"113 686 LINE",
"132 640 OFFCURVE",
"203 523 OFFCURVE",
"345 378 CURVE",
"265 235 OFFCURVE",
"165 105 OFFCURVE",
"84 44 CURVE",
"134 -17 LINE"
);
}
);
width = 559;
}
);
unicode = 10A17;
},
{
glyphname = u10A19;
lastChange = "2017-09-08 13:56:04 +0000";
layers = (
{
layerId = UUID0;
paths = (
{
closed = 1;
nodes = (
"115 13 OFFCURVE",
"192 130 OFFCURVE",
"252 337 CURVE",
"279 330 OFFCURVE",
"311 327 OFFCURVE",
"347 327 CURVE SMOOTH",
"462 327 OFFCURVE",
"570 363 OFFCURVE",
"570 484 CURVE SMOOTH",
"570 531 OFFCURVE",
"555 562 OFFCURVE",
"555 604 CURVE SMOOTH",
"555 628 OFFCURVE",
"578 636 OFFCURVE",
"622 642 CURVE",
"597 711 LINE",
"532 711 OFFCURVE",
"474 680 OFFCURVE",
"474 606 CURVE SMOOTH",
"474 557 OFFCURVE",
"484 525 OFFCURVE",
"484 482 CURVE SMOOTH",
"484 407 OFFCURVE",
"424 398 OFFCURVE",
"349 398 CURVE SMOOTH",
"324 398 OFFCURVE",
"296 401 OFFCURVE",
"270 407 CURVE",
"293 495 OFFCURVE",
"317 608 OFFCURVE",
"331 710 CURVE",
"246 717 LINE",
"227 569 OFFCURVE",
"179 370 OFFCURVE",
"157 300 CURVE SMOOTH",
"124 195 OFFCURVE",
"63 71 OFFCURVE",
"-4 44 CURVE",
"29 -22 LINE"
);
}
);
width = 629;
}
);
unicode = 10A19;
},
{
glyphname = u10A1A;
lastChange = "2017-09-08 13:56:04 +0000";
layers = (
{
layerId = UUID0;
paths = (
{
closed = 1;
nodes = (
"305 56 OFFCURVE",
"422 129 OFFCURVE",
"602 129 CURVE",
"602 203 LINE",
"471 203 OFFCURVE",
"372 168 OFFCURVE",
"296 130 CURVE",
"338 214 OFFCURVE",
"384 317 OFFCURVE",
"423 408 CURVE SMOOTH",
"468 513 OFFCURVE",
"511 610 OFFCURVE",
"539 655 CURVE",
"513 721 LINE",
"396 648 OFFCURVE",
"279 575 OFFCURVE",
"99 575 CURVE",
"99 501 LINE",
"237 501 OFFCURVE",
"338 538 OFFCURVE",
"414 578 CURVE",
"395 537 OFFCURVE",
"375 489 OFFCURVE",
"353 440 CURVE SMOOTH",
"290 296 OFFCURVE",
"217 135 OFFCURVE",
"163 49 CURVE",
"188 -17 LINE"
);
}
);
width = 668;
}
);
unicode = 10A1A;
},
{
glyphname = u10A1B;
lastChange = "2017-09-08 13:56:04 +0000";
layers = (
{
layerId = UUID0;
paths = (
{
closed = 1;
nodes = (
"445 117 OFFCURVE",
"530 417 OFFCURVE",
"530 582 CURVE SMOOTH",
"530 674 OFFCURVE",
"487 730 OFFCURVE",
"349 730 CURVE SMOOTH",
"280 730 OFFCURVE",
"184 714 OFFCURVE",
"99 683 CURVE",
"117 614 LINE",
"198 641 OFFCURVE",
"269 652 OFFCURVE",
"338 652 CURVE SMOOTH",
"406 652 OFFCURVE",
"444 635 OFFCURVE",
"444 578 CURVE SMOOTH",
"444 534 OFFCURVE",
"438 482 OFFCURVE",
"428 428 CURVE",
"400 429 OFFCURVE",
"369 430 OFFCURVE",
"337 430 CURVE SMOOTH",
"229 430 OFFCURVE",
"147 413 OFFCURVE",
"99 393 CURVE",
"117 324 LINE",
"163 341 OFFCURVE",
"239 357 OFFCURVE",
"338 357 CURVE SMOOTH",
"363 357 OFFCURVE",
"389 356 OFFCURVE",
"414 355 CURVE",
"384 215 OFFCURVE",
"337 71 OFFCURVE",
"308 5 CURVE",
"387 -16 LINE"
);
}
);
width = 614;
}
);
unicode = 10A1B;
},
{
glyphname = u10A1C;
lastChange = "2017-09-08 13:56:04 +0000";
layers = (
{
layerId = UUID0;
paths = (
{
closed = 1;
nodes = (
"390 173 OFFCURVE",
"512 573 OFFCURVE",
"559 685 CURVE",
"478 707 LINE",
"455 651 OFFCURVE",
"417 538 OFFCURVE",
"379 412 CURVE",
"222 435 OFFCURVE",
"170 472 OFFCURVE",
"170 566 CURVE SMOOTH",
"170 612 OFFCURVE",
"193 656 OFFCURVE",
"215 692 CURVE",
"144 724 LINE",
"107 673 OFFCURVE",
"84 621 OFFCURVE",
"84 559 CURVE SMOOTH",
"84 413 OFFCURVE",
"184 367 OFFCURVE",
"359 342 CURVE",
"322 213 OFFCURVE",
"290 81 OFFCURVE",
"277 -8 CURVE",
"362 -15 LINE"
);
}
);
width = 577;
}
);
unicode = 10A1C;
},
{
glyphname = u10A1D;
lastChange = "2017-09-08 13:56:04 +0000";
layers = (
{
layerId = UUID0;
paths = (
{
closed = 1;
nodes = (
"239 152 OFFCURVE",
"338 487 OFFCURVE",
"393 638 CURVE",
"592 638 LINE",
"606 712 LINE",
"113 712 LINE",
"99 638 LINE",
"304 638 LINE",
"246 474 OFFCURVE",
"153 159 OFFCURVE",
"129 -8 CURVE",
"214 -15 LINE"
);
}
);
width = 584;
}
);
unicode = 10A1D;
},
{
glyphname = u10A1E;
lastChange = "2017-09-08 13:56:04 +0000";
layers = (
{
layerId = UUID0;
paths = (
{
closed = 1;
nodes = (
"223 -4 LINE",
"207 55 OFFCURVE",
"188 169 OFFCURVE",
"188 326 CURVE SMOOTH",
"188 406 OFFCURVE",
"191 487 OFFCURVE",
"201 571 CURVE",
"233 515 OFFCURVE",
"270 460 OFFCURVE",
"289 435 CURVE",
"359 479 LINE",
"303 557 OFFCURVE",
"224 667 OFFCURVE",
"222 713 CURVE",
"137 720 LINE",
"117 593 OFFCURVE",
"106 453 OFFCURVE",
"106 326 CURVE SMOOTH",
"106 165 OFFCURVE",
"127 44 OFFCURVE",
"139 -16 CURVE"
);
}
);
width = 421;
}
);
unicode = 10A1E;
},
{
glyphname = u10A1F;
lastChange = "2017-09-08 13:56:04 +0000";
layers = (
{
layerId = UUID0;
paths = (
{
closed = 1;
nodes = (
"396 42 OFFCURVE",
"557 238 OFFCURVE",
"557 399 CURVE SMOOTH",
"557 495 OFFCURVE",
"518 551 OFFCURVE",
"391 551 CURVE SMOOTH",
"341 551 OFFCURVE",
"296 543 OFFCURVE",
"250 543 CURVE SMOOTH",
"182 543 OFFCURVE",
"172 571 OFFCURVE",
"172 594 CURVE SMOOTH",
"172 631 OFFCURVE",
"201 653 OFFCURVE",
"236 662 CURVE",
"211 731 LINE",
"148 721 OFFCURVE",
"88 669 OFFCURVE",
"88 596 CURVE SMOOTH",
"88 509 OFFCURVE",
"147 465 OFFCURVE",
"238 465 CURVE SMOOTH",
"288 465 OFFCURVE",
"333 473 OFFCURVE",
"379 473 CURVE SMOOTH",
"461 473 OFFCURVE",
"471 436 OFFCURVE",
"471 399 CURVE SMOOTH",
"471 271 OFFCURVE",
"355 109 OFFCURVE",
"120 58 CURVE",
"141 -14 LINE"
);
}
);
width = 601;
}
);
unicode = 10A1F;
},
{
glyphname = u10A20;
lastChange = "2017-09-08 13:56:04 +0000";
layers = (
{
layerId = UUID0;
paths = (
{
closed = 1;
nodes = (
"273 100 OFFCURVE",
"325 301 OFFCURVE",
"374 465 CURVE",
"479 460 OFFCURVE",
"563 444 OFFCURVE",
"609 426 CURVE",
"638 500 LINE",
"589 519 OFFCURVE",
"499 532 OFFCURVE",
"396 537 CURVE",
"418 609 OFFCURVE",
"439 669 OFFCURVE",
"453 702 CURVE",
"372 724 LINE",
"356 686 OFFCURVE",
"333 619 OFFCURVE",
"308 539 CURVE",
"201 538 OFFCURVE",
"120 522 OFFCURVE",
"73 502 CURVE",
"91 433 LINE",
"133 448 OFFCURVE",
"199 463 OFFCURVE",
"286 465 CURVE",
"237 302 OFFCURVE",
"187 108 OFFCURVE",
"171 -8 CURVE",
"256 -15 LINE"
);
}
);
width = 645;
}
);
unicode = 10A20;
},
{
glyphname = u10A21;
lastChange = "2017-09-08 13:56:04 +0000";
layers = (
{
layerId = UUID0;
paths = (
{
closed = 1;
nodes = (
"332 -15 OFFCURVE",
"442 81 OFFCURVE",
"442 199 CURVE SMOOTH",
"442 314 OFFCURVE",
"368 386 OFFCURVE",
"303 450 CURVE SMOOTH",
"254 498 OFFCURVE",
"210 541 OFFCURVE",
"210 594 CURVE SMOOTH",
"210 631 OFFCURVE",
"239 653 OFFCURVE",
"274 662 CURVE",
"249 731 LINE",
"186 721 OFFCURVE",
"126 669 OFFCURVE",
"126 596 CURVE SMOOTH",
"126 497 OFFCURVE",
"189 436 OFFCURVE",
"249 376 CURVE SMOOTH",
"303 322 OFFCURVE",
"356 271 OFFCURVE",
"356 199 CURVE SMOOTH",
"356 118 OFFCURVE",
"291 61 OFFCURVE",
"190 61 CURVE SMOOTH",
"155 61 OFFCURVE",
"131 64 OFFCURVE",
"102 72 CURVE",
"84 -1 LINE",
"117 -11 OFFCURVE",
"153 -15 OFFCURVE",
"191 -15 CURVE SMOOTH"
);
}
);
width = 486;
}
);
unicode = 10A21;
},
{
glyphname = u10A22;
lastChange = "2017-09-08 13:56:04 +0000";
layers = (
{
layerId = UUID0;
paths = (
{
closed = 1;
nodes = (
"355 60 OFFCURVE",
"491 199 OFFCURVE",
"491 320 CURVE SMOOTH",
"491 390 OFFCURVE",
"452 450 OFFCURVE",
"335 450 CURVE",
"370 483 OFFCURVE",
"391 528 OFFCURVE",
"391 574 CURVE SMOOTH",
"391 686 OFFCURVE",
"310 724 OFFCURVE",
"180 724 CURVE SMOOTH",
"154 724 OFFCURVE",
"124 722 OFFCURVE",
"88 717 CURVE",
"99 646 LINE",
"131 651 OFFCURVE",
"155 652 OFFCURVE",
"174 652 CURVE SMOOTH",
"259 652 OFFCURVE",
"305 627 OFFCURVE",
"305 572 CURVE SMOOTH",
"305 474 OFFCURVE",
"245 452 OFFCURVE",
"167 433 CURVE",
"185 363 LINE",
"213 374 OFFCURVE",
"262 381 OFFCURVE",
"291 381 CURVE SMOOTH",
"367 381 OFFCURVE",
"405 365 OFFCURVE",
"405 316 CURVE SMOOTH",
"405 215 OFFCURVE",
"315 127 OFFCURVE",
"208 35 CURVE",
"261 -18 LINE"
);
}
);
width = 535;
}
);
unicode = 10A22;
},
{
glyphname = u10A23;
lastChange = "2017-09-08 13:56:04 +0000";
layers = (
{
layerId = UUID0;
paths = (
{
closed = 1;
nodes = (
"319 102 OFFCURVE",
"366 246 OFFCURVE",
"366 346 CURVE SMOOTH",
"366 444 OFFCURVE",
"316 467 OFFCURVE",
"264 488 CURVE SMOOTH",
"224 504 OFFCURVE",
"184 519 OFFCURVE",
"184 575 CURVE SMOOTH",
"184 617 OFFCURVE",
"206 654 OFFCURVE",
"271 654 CURVE SMOOTH",
"306 654 OFFCURVE",
"360 651 OFFCURVE",
"389 643 CURVE",
"407 716 LINE",
"374 726 OFFCURVE",
"308 730 OFFCURVE",
"270 730 CURVE SMOOTH",
"161 730 OFFCURVE",
"98 655 OFFCURVE",
"98 575 CURVE SMOOTH",
"98 466 OFFCURVE",
"156 442 OFFCURVE",
"209 419 CURVE SMOOTH",
"252 400 OFFCURVE",
"282 384 OFFCURVE",
"282 330 CURVE SMOOTH",
"282 257 OFFCURVE",
"236 116 OFFCURVE",
"188 7 CURVE",
"259 -16 LINE"
);
}
);
width = 462;
}
);
unicode = 10A23;
},
{
glyphname = u10A24;
lastChange = "2017-09-08 13:56:04 +0000";
layers = (
{
layerId = UUID0;
paths = (
{
closed = 1;
nodes = (
"135 99 OFFCURVE",
"187 299 OFFCURVE",
"236 463 CURVE",
"371 439 OFFCURVE",
"435 382 OFFCURVE",
"435 291 CURVE SMOOTH",
"435 257 OFFCURVE",
"419 219 OFFCURVE",
"386 184 CURVE",
"449 132 LINE",
"497 180 OFFCURVE",
"521 235 OFFCURVE",
"521 298 CURVE SMOOTH",
"521 439 OFFCURVE",
"414 511 OFFCURVE",
"257 534 CURVE",
"280 607 OFFCURVE",
"301 668 OFFCURVE",
"315 702 CURVE",
"234 724 LINE",
"184 603 OFFCURVE",
"61 188 OFFCURVE",
"33 -8 CURVE",
"118 -15 LINE"
);
}
);
width = 565;
}
);
unicode = 10A24;
},
{
glyphname = u10A25;
lastChange = "2017-09-08 13:56:04 +0000";
layers = (
{
layerId = UUID0;
paths = (
{
closed = 1;
nodes = (
"219 99 OFFCURVE",
"271 299 OFFCURVE",
"320 463 CURVE",
"458 441 OFFCURVE",
"523 383 OFFCURVE",
"523 291 CURVE SMOOTH",
"523 257 OFFCURVE",
"507 219 OFFCURVE",
"474 184 CURVE",
"537 132 LINE",
"585 180 OFFCURVE",
"609 235 OFFCURVE",
"609 298 CURVE SMOOTH",
"609 443 OFFCURVE",
"500 514 OFFCURVE",
"341 535 CURVE",
"364 608 OFFCURVE",
"385 668 OFFCURVE",
"399 702 CURVE",
"318 724 LINE",
"302 686 OFFCURVE",
"279 618 OFFCURVE",
"254 538 CURVE",
"170 533 OFFCURVE",
"106 519 OFFCURVE",
"66 502 CURVE",
"84 433 LINE",
"118 445 OFFCURVE",
"167 457 OFFCURVE",
"231 462 CURVE",
"183 299 OFFCURVE",
"133 107 OFFCURVE",
"117 -8 CURVE",
"202 -15 LINE"
);
}
);
width = 653;
}
);
unicode = 10A25;
},
{
glyphname = u10A26;
lastChange = "2017-09-08 13:56:04 +0000";
layers = (
{
layerId = UUID0;
paths = (
{
closed = 1;
nodes = (
"518 246 OFFCURVE",
"564 424 OFFCURVE",
"564 556 CURVE SMOOTH",
"564 651 OFFCURVE",
"531 700 OFFCURVE",
"439 700 CURVE SMOOTH",
"337 700 OFFCURVE",
"310 644 OFFCURVE",
"293 582 CURVE SMOOTH",
"279 531 OFFCURVE",
"260 511 OFFCURVE",
"230 511 CURVE SMOOTH",
"194 511 OFFCURVE",
"183 538 OFFCURVE",
"183 594 CURVE SMOOTH",
"183 632 OFFCURVE",
"194 672 OFFCURVE",
"208 708 CURVE",
"130 729 LINE",
"107 685 OFFCURVE",
"99 641 OFFCURVE",
"99 596 CURVE SMOOTH",
"99 465 OFFCURVE",
"166 433 OFFCURVE",
"228 433 CURVE SMOOTH",
"309 433 OFFCURVE",
"349 478 OFFCURVE",
"372 551 CURVE SMOOTH",
"387 598 OFFCURVE",
"398 620 OFFCURVE",
"436 620 CURVE SMOOTH",
"468 620 OFFCURVE",
"478 587 OFFCURVE",
"478 556 CURVE SMOOTH",
"478 438 OFFCURVE",
"444 277 OFFCURVE",
"318 20 CURVE",
"386 -15 LINE"
);
}
);
width = 630;
}
);
unicode = 10A26;
},
{
glyphname = u10A27;
lastChange = "2017-09-08 13:56:04 +0000";
layers = (
{
layerId = UUID0;
paths = (
{
closed = 1;
nodes = (
"242 103 OFFCURVE",
"297 302 OFFCURVE",
"347 463 CURVE",
"482 439 OFFCURVE",
"546 382 OFFCURVE",
"546 291 CURVE SMOOTH",
"546 245 OFFCURVE",
"523 201 OFFCURVE",
"501 165 CURVE",
"572 133 LINE",
"609 184 OFFCURVE",
"632 236 OFFCURVE",
"632 298 CURVE SMOOTH",
"632 439 OFFCURVE",
"525 511 OFFCURVE",
"369 534 CURVE",
"381 572 OFFCURVE",
"393 607 OFFCURVE",
"404 635 CURVE",
"592 635 LINE",
"606 709 LINE",
"113 709 LINE",
"99 635 LINE",
"315 635 LINE",
"257 472 OFFCURVE",
"164 159 OFFCURVE",
"140 -8 CURVE",
"225 -15 LINE"
);
}
);
width = 698;
}
);
unicode = 10A27;
},
{
glyphname = u10A28;
lastChange = "2017-09-08 13:56:04 +0000";
layers = (
{
layerId = UUID0;
paths = (
{
closed = 1;
nodes = (
"537 285 OFFCURVE",
"678 362 OFFCURVE",
"678 511 CURVE SMOOTH",
"678 564 OFFCURVE",
"656 619 OFFCURVE",
"608 667 CURVE",
"545 615 LINE",
"578 580 OFFCURVE",
"594 542 OFFCURVE",
"594 508 CURVE SMOOTH",
"594 407 OFFCURVE",
"515 359 OFFCURVE",
"407 359 CURVE SMOOTH",
"281 359 OFFCURVE",
"192 417 OFFCURVE",
"192 533 CURVE SMOOTH",
"192 579 OFFCURVE",
"214 645 OFFCURVE",
"247 699 CURVE",
"176 731 LINE",
"139 680 OFFCURVE",
"106 588 OFFCURVE",
"106 526 CURVE SMOOTH",
"106 364 OFFCURVE",
"237 285 OFFCURVE",
"394 285 CURVE SMOOTH"
);
}
);
width = 696;
}
);
unicode = 10A28;
},
{
glyphname = u10A29;
lastChange = "2017-09-08 13:56:04 +0000";
layers = (
{
layerId = UUID0;
paths = (
{
closed = 1;
nodes = (
"112 87 OFFCURVE",
"250 347 OFFCURVE",
"329 540 CURVE",
"364 341 OFFCURVE",
"435 118 OFFCURVE",
"506 -17 CURVE",
"585 19 LINE",
"494 195 OFFCURVE",
"402 524 OFFCURVE",
"388 720 CURVE",
"307 714 LINE",
"279 570 OFFCURVE",
"55 138 OFFCURVE",
"-24 16 CURVE",
"47 -17 LINE"
);
}
);
width = 629;
}
);
unicode = 10A29;
},
{
glyphname = u10A2A;
lastChange = "2017-09-08 13:56:04 +0000";
layers = (
{
layerId = UUID0;
paths = (
{
closed = 1;
nodes = (
"403 116 OFFCURVE",
"513 338 OFFCURVE",
"513 441 CURVE SMOOTH",
"513 521 OFFCURVE",
"470 569 OFFCURVE",
"332 569 CURVE SMOOTH",
"192 569 OFFCURVE",
"178 576 OFFCURVE",
"178 612 CURVE SMOOTH",
"178 632 OFFCURVE",
"186 669 OFFCURVE",
"197 707 CURVE",
"117 720 LINE",
"106 683 OFFCURVE",
"99 634 OFFCURVE",
"99 596 CURVE SMOOTH",
"99 505 OFFCURVE",
"136 491 OFFCURVE",
"321 491 CURVE SMOOTH",
"404 491 OFFCURVE",
"427 475 OFFCURVE",
"427 437 CURVE SMOOTH",
"427 338 OFFCURVE",
"319 132 OFFCURVE",
"242 20 CURVE",
"315 -17 LINE"
);
}
);
width = 557;
}
);
unicode = 10A2A;
},
{
glyphname = u10A2B;
lastChange = "2017-09-08 13:56:04 +0000";
layers = (
{
layerId = UUID0;
paths = (
{
closed = 1;
nodes = (
"339 202 OFFCURVE",
"457 590 OFFCURVE",
"504 702 CURVE",
"423 724 LINE",
"407 686 OFFCURVE",
"384 618 OFFCURVE",
"359 538 CURVE",
"188 535 OFFCURVE",
"116 520 OFFCURVE",
"73 502 CURVE",
"91 433 LINE",
"130 447 OFFCURVE",
"192 461 OFFCURVE",
"337 465 CURVE",
"288 301 OFFCURVE",
"238 108 OFFCURVE",
"222 -8 CURVE",
"307 -15 LINE"
);
}
);
width = 533;
}
);
unicode = 10A2B;
},
{
glyphname = u10A2C;
lastChange = "2017-09-08 13:56:04 +0000";
layers = (
{
layerId = UUID0;
paths = (
{
closed = 1;
nodes = (
"393 108 OFFCURVE",
"530 370 OFFCURVE",
"530 535 CURVE SMOOTH",
"530 627 OFFCURVE",
"487 713 OFFCURVE",
"349 713 CURVE SMOOTH",
"280 713 OFFCURVE",
"184 697 OFFCURVE",
"99 666 CURVE",
"117 597 LINE",
"198 624 OFFCURVE",
"269 635 OFFCURVE",
"338 635 CURVE SMOOTH",
"406 635 OFFCURVE",
"444 589 OFFCURVE",
"444 531 CURVE SMOOTH",
"444 360 OFFCURVE",
"310 125 OFFCURVE",
"236 26 CURVE",
"305 -17 LINE"
);
}
);
width = 574;
}
);
unicode = 10A2C;
},
{
glyphname = u10A2D;
lastChange = "2017-09-08 13:56:04 +0000";
layers = (
{
layerId = UUID0;
paths = (
{
closed = 1;
nodes = (
"605 117 OFFCURVE",
"690 370 OFFCURVE",
"690 535 CURVE SMOOTH",
"690 627 OFFCURVE",
"647 713 OFFCURVE",
"509 713 CURVE SMOOTH",
"429 713 OFFCURVE",
"300 694 OFFCURVE",
"220 667 CURVE",
"198 524 OFFCURVE",
"87 107 OFFCURVE",
"44 8 CURVE",
"123 -13 LINE",
"174 104 OFFCURVE",
"263 444 OFFCURVE",
"296 613 CURVE",
"366 629 OFFCURVE",
"444 635 OFFCURVE",
"498 635 CURVE SMOOTH",
"566 635 OFFCURVE",
"604 589 OFFCURVE",
"604 531 CURVE SMOOTH",
"604 360 OFFCURVE",
"514 109 OFFCURVE",
"468 5 CURVE",
"547 -16 LINE"
);
}
);
width = 741;
}
);
unicode = 10A2D;
},
{
glyphname = u10A2E;
lastChange = "2017-09-08 13:56:04 +0000";
layers = (
{
layerId = UUID0;
paths = (
{
closed = 1;
nodes = (
"308 38 OFFCURVE",
"396 368 OFFCURVE",
"444 628 CURVE",
"523 607 OFFCURVE",
"574 552 OFFCURVE",
"574 465 CURVE SMOOTH",
"574 403 OFFCURVE",
"542 330 OFFCURVE",
"497 285 CURVE",
"559 238 LINE",
"607 279 OFFCURVE",
"660 379 OFFCURVE",
"660 472 CURVE SMOOTH",
"660 634 OFFCURVE",
"529 713 OFFCURVE",
"372 713 CURVE SMOOTH",
"229 713 OFFCURVE",
"88 636 OFFCURVE",
"88 487 CURVE SMOOTH",
"88 434 OFFCURVE",
"110 379 OFFCURVE",
"158 331 CURVE",
"221 383 LINE",
"188 418 OFFCURVE",
"172 456 OFFCURVE",
"172 490 CURVE SMOOTH",
"172 591 OFFCURVE",
"251 639 OFFCURVE",
"360 639 CURVE",
"317 403 OFFCURVE",
"247 104 OFFCURVE",
"119 44 CURVE",
"152 -22 LINE"
);
}
);
width = 704;
}
);
unicode = 10A2E;
},
{
glyphname = u10A2F;
lastChange = "2017-09-08 13:56:04 +0000";
layers = (
{
layerId = UUID0;
paths = (
{
closed = 1;
nodes = (
"148 35 OFFCURVE",
"221 154 OFFCURVE",
"250 289 CURVE",
"265 288 OFFCURVE",
"281 287 OFFCURVE",
"300 287 CURVE SMOOTH",
"415 287 OFFCURVE",
"523 358 OFFCURVE",
"523 479 CURVE SMOOTH",
"523 604 OFFCURVE",
"430 627 OFFCURVE",
"303 643 CURVE SMOOTH",
"200 656 OFFCURVE",
"175 687 OFFCURVE",
"166 722 CURVE",
"97 697 LINE",
"114 625 OFFCURVE",
"148 590 OFFCURVE",
"294 572 CURVE SMOOTH",
"387 561 OFFCURVE",
"437 542 OFFCURVE",
"437 477 CURVE SMOOTH",
"437 401 OFFCURVE",
"377 358 OFFCURVE",
"302 358 CURVE SMOOTH",
"289 358 OFFCURVE",
"276 358 OFFCURVE",
"264 359 CURVE",
"264 405 OFFCURVE",
"254 447 OFFCURVE",
"242 462 CURVE",
"176 446 LINE",
"182 425 OFFCURVE",
"184 405 OFFCURVE",
"184 373 CURVE SMOOTH",
"184 226 OFFCURVE",
"98 100 OFFCURVE",
"7 44 CURVE",
"45 -22 LINE"
);
}
);
width = 567;
}
);
unicode = 10A2F;
},
{
glyphname = u10A30;
lastChange = "2017-09-08 13:56:04 +0000";
layers = (
{
layerId = UUID0;
paths = (
{
closed = 1;
nodes = (
"420 173 OFFCURVE",
"542 590 OFFCURVE",
"589 702 CURVE",
"508 724 LINE",
"484 667 OFFCURVE",
"445 547 OFFCURVE",
"407 415 CURVE",
"308 415 OFFCURVE",
"255 417 OFFCURVE",
"222 422 CURVE",
"255 467 OFFCURVE",
"269 513 OFFCURVE",
"269 572 CURVE SMOOTH",
"269 635 OFFCURVE",
"246 683 OFFCURVE",
"187 725 CURVE",
"134 669 LINE",
"178 628 OFFCURVE",
"189 599 OFFCURVE",
"189 559 CURVE SMOOTH",
"189 483 OFFCURVE",
"145 427 OFFCURVE",
"99 377 CURVE",
"143 359 OFFCURVE",
"217 345 OFFCURVE",
"387 342 CURVE",
"351 212 OFFCURVE",
"319 80 OFFCURVE",
"307 -8 CURVE",
"392 -15 LINE"
);
}
);
width = 611;
}
);
unicode = 10A30;
},
{
glyphname = u10A31;
lastChange = "2017-09-08 13:56:04 +0000";
layers = (
{
layerId = UUID0;
paths = (
{
closed = 1;
nodes = (
"327 -15 OFFCURVE",
"398 0 OFFCURVE",
"442 21 CURVE",
"417 92 LINE",
"380 75 OFFCURVE",
"328 56 OFFCURVE",
"274 56 CURVE SMOOTH",
"224 56 OFFCURVE",
"209 80 OFFCURVE",
"209 117 CURVE SMOOTH",
"209 185 OFFCURVE",
"285 248 OFFCURVE",
"358 302 CURVE SMOOTH",
"474 389 OFFCURVE",
"527 456 OFFCURVE",
"527 544 CURVE SMOOTH",
"527 626 OFFCURVE",
"472 715 OFFCURVE",
"305 715 CURVE SMOOTH",
"172 715 OFFCURVE",
"99 630 OFFCURVE",
"99 535 CURVE SMOOTH",
"99 482 OFFCURVE",
"121 427 OFFCURVE",
"169 379 CURVE",
"232 431 LINE",
"199 466 OFFCURVE",
"183 504 OFFCURVE",
"183 538 CURVE SMOOTH",
"183 594 OFFCURVE",
"225 641 OFFCURVE",
"305 641 CURVE SMOOTH",
"406 641 OFFCURVE",
"441 585 OFFCURVE",
"441 531 CURVE SMOOTH",
"441 465 OFFCURVE",
"416 436 OFFCURVE",
"313 356 CURVE SMOOTH",
"213 278 OFFCURVE",
"125 197 OFFCURVE",
"125 118 CURVE SMOOTH",
"125 19 OFFCURVE",
"186 -15 OFFCURVE",
"269 -15 CURVE SMOOTH"
);
}
);
width = 549;
}
);
unicode = 10A31;
},
{
glyphname = u10A32;
lastChange = "2017-09-08 13:56:04 +0000";
layers = (
{
layerId = UUID0;
paths = (
{
closed = 1;
nodes = (
"409 68 OFFCURVE",
"462 188 OFFCURVE",
"492 307 CURVE",
"602 280 OFFCURVE",
"654 225 OFFCURVE",
"654 143 CURVE SMOOTH",
"654 109 OFFCURVE",
"638 71 OFFCURVE",
"605 36 CURVE",
"668 -16 LINE",
"716 32 OFFCURVE",
"740 87 OFFCURVE",
"740 150 CURVE SMOOTH",
"740 280 OFFCURVE",
"650 350 OFFCURVE",
"514 379 CURVE",
"539 469 OFFCURVE",
"589 598 OFFCURVE",
"630 692 CURVE",
"551 713 LINE",
"532 670 OFFCURVE",
"515 628 OFFCURVE",
"500 587 CURVE",
"473 664 OFFCURVE",
"412 716 OFFCURVE",
"294 716 CURVE SMOOTH",
"161 716 OFFCURVE",
"88 631 OFFCURVE",
"88 536 CURVE SMOOTH",
"88 483 OFFCURVE",
"110 428 OFFCURVE",
"158 380 CURVE",
"221 432 LINE",
"188 467 OFFCURVE",
"172 505 OFFCURVE",
"172 539 CURVE SMOOTH",
"172 595 OFFCURVE",
"214 642 OFFCURVE",
"294 642 CURVE SMOOTH",
"395 642 OFFCURVE",
"430 570 OFFCURVE",
"430 474 CURVE SMOOTH",
"430 316 OFFCURVE",
"336 100 OFFCURVE",
"288 6 CURVE",
"368 -16 LINE"
);
}
);
width = 806;
}
);
unicode = 10A32;
},
{
glyphname = u10A33;
lastChange = "2017-09-08 13:56:04 +0000";
layers = (
{
layerId = UUID0;
paths = (
{
closed = 1;
nodes = (
"483 117 OFFCURVE",
"553 321 OFFCURVE",
"553 416 CURVE SMOOTH",
"553 508 OFFCURVE",
"510 564 OFFCURVE",
"382 564 CURVE SMOOTH",
"311 564 OFFCURVE",
"258 547 OFFCURVE",
"226 536 CURVE",
"244 466 LINE",
"278 478 OFFCURVE",
"309 486 OFFCURVE",
"371 486 CURVE SMOOTH",
"429 486 OFFCURVE",
"467 469 OFFCURVE",
"467 412 CURVE SMOOTH",
"467 389 OFFCURVE",
"461 355 OFFCURVE",
"452 317 CURVE",
"382 294 OFFCURVE",
"337 283 OFFCURVE",
"258 283 CURVE SMOOTH",
"190 283 OFFCURVE",
"152 300 OFFCURVE",
"152 357 CURVE SMOOTH",
"152 443 OFFCURVE",
"209 605 OFFCURVE",
"255 710 CURVE",
"176 731 LINE",
"118 597 OFFCURVE",
"66 451 OFFCURVE",
"66 353 CURVE SMOOTH",
"66 261 OFFCURVE",
"109 205 OFFCURVE",
"247 205 CURVE SMOOTH",
"310 205 OFFCURVE",
"367 215 OFFCURVE",
"429 234 CURVE",
"404 151 OFFCURVE",
"371 61 OFFCURVE",
"346 5 CURVE",
"425 -16 LINE"
);
}
);
width = 619;
}
);
unicode = 10A33;
},
{
glyphname = u10A38;
lastChange = "2017-09-08 13:56:04 +0000";
layers = (
{
layerId = UUID0;
paths = (
{
closed = 1;
nodes = (
"561 745 LINE",
"575 819 LINE",
"88 819 LINE",
"71 745 LINE"
);
}
);
width = 0;
}
);
unicode = 10A38;
},
{
glyphname = u10A39;
lastChange = "2017-09-08 13:56:04 +0000";
layers = (
{
layerId = UUID0;
paths = (
{
closed = 1;
nodes = (
"722 203 LINE",
"693 260 LINE",
"255 48 LINE",
"281 -11 LINE"
);
}
);
width = 0;
}
);
unicode = 10A39;
},
{
glyphname = u10A3A;
lastChange = "2017-09-08 13:56:04 +0000";
layers = (
{
layerId = UUID0;
paths = (
{
closed = 1;
nodes = (
"297 -195 OFFCURVE",
"326 -175 OFFCURVE",
"326 -127 CURVE SMOOTH",
"326 -78 OFFCURVE",
"297 -60 OFFCURVE",
"263 -60 CURVE SMOOTH",
"229 -60 OFFCURVE",
"202 -78 OFFCURVE",
"202 -127 CURVE SMOOTH",
"202 -175 OFFCURVE",
"229 -195 OFFCURVE",
"263 -195 CURVE SMOOTH"
);
}
);
width = 0;
}
);
unicode = 10A3A;
},
{
glyphname = u10A3F;
lastChange = "2017-09-08 13:56:04 +0000";
layers = (
{
layerId = UUID0;
paths = (
{
closed = 1;
nodes = (
"220 -184 LINE",
"220 -301 LINE",
"284 -301 LINE",
"284 -184 LINE",
"406 -184 LINE",
"406 -134 LINE",
"284 -134 LINE",
"284 -45 LINE",
"220 -45 LINE",
"220 -134 LINE",
"98 -134 LINE",
"98 -184 LINE"
);
}
);
width = 504;
}
);
unicode = 10A3F;
},
{
glyphname = u10A40;
lastChange = "2017-09-08 13:56:04 +0000";
layers = (
{
layerId = UUID0;
paths = (
{
closed = 1;
nodes = (
"156 85 OFFCURVE",
"271 543 OFFCURVE",
"292 710 CURVE",
"207 717 LINE",
"189 572 OFFCURVE",
"74 104 OFFCURVE",
"33 6 CURVE",
"114 -16 LINE"
);
}
);
width = 325;
}
);
unicode = 10A40;
},
{
glyphname = u10A41;
lastChange = "2017-09-08 13:56:04 +0000";
layers = (
{
layerId = UUID0;
paths = (
{
closed = 1;
nodes = (
"138 41 OFFCURVE",
"185 215 OFFCURVE",
"226 384 CURVE",
"253 317 OFFCURVE",
"300 275 OFFCURVE",
"381 275 CURVE SMOOTH",
"506 275 OFFCURVE",
"584 388 OFFCURVE",
"584 536 CURVE SMOOTH",
"584 611 OFFCURVE",
"576 686 OFFCURVE",
"553 730 CURVE",
"475 709 LINE",
"489 673 OFFCURVE",
"500 633 OFFCURVE",
"500 546 CURVE SMOOTH",
"500 466 OFFCURVE",
"461 353 OFFCURVE",
"379 353 CURVE SMOOTH",
"294 353 OFFCURVE",
"272 488 OFFCURVE",
"271 587 CURVE",
"280 636 OFFCURVE",
"288 678 OFFCURVE",
"292 710 CURVE",
"207 717 LINE",
"189 572 OFFCURVE",
"74 104 OFFCURVE",
"33 6 CURVE",
"114 -16 LINE"
);
}
);
width = 628;
}
);
unicode = 10A41;
},
{
glyphname = u10A42;
lastChange = "2017-09-08 13:56:04 +0000";
layers = (
{
layerId = UUID0;
paths = (
{
closed = 1;
nodes = (
"137 40 OFFCURVE",
"184 209 OFFCURVE",
"224 376 CURVE",
"248 317 OFFCURVE",
"291 275 OFFCURVE",
"371 275 CURVE SMOOTH",
"431 275 OFFCURVE",
"483 312 OFFCURVE",
"496 407 CURVE",
"513 322 OFFCURVE",
"570 275 OFFCURVE",
"649 275 CURVE SMOOTH",
"779 275 OFFCURVE",
"827 414 OFFCURVE",
"827 535 CURVE SMOOTH",
"827 604 OFFCURVE",
"819 685 OFFCURVE",
"796 729 CURVE",
"718 708 LINE",
"732 672 OFFCURVE",
"743 602 OFFCURVE",
"743 545 CURVE SMOOTH",
"743 426 OFFCURVE",
"708 353 OFFCURVE",
"647 353 CURVE SMOOTH",
"588 353 OFFCURVE",
"546 441 OFFCURVE",
"546 542 CURVE SMOOTH",
"546 556 OFFCURVE",
"547 571 OFFCURVE",
"549 586 CURVE SMOOTH",
"563 703 LINE",
"483 717 LINE",
"469 592 LINE SMOOTH",
"456 473 OFFCURVE",
"445 353 OFFCURVE",
"369 353 CURVE SMOOTH",
"300 353 OFFCURVE",
"272 435 OFFCURVE",
"271 587 CURVE",
"280 636 OFFCURVE",
"288 678 OFFCURVE",
"292 710 CURVE",
"207 717 LINE",
"189 572 OFFCURVE",
"74 104 OFFCURVE",
"33 6 CURVE",
"114 -16 LINE"
);
}
);
width = 871;
}
);
unicode = 10A42;
},
{
glyphname = u10A43;
lastChange = "2017-09-08 13:56:04 +0000";
layers = (
{
layerId = UUID0;
paths = (
{
closed = 1;
nodes = (
"541 34 LINE",
"518 95 OFFCURVE",
"423 222 OFFCURVE",
"331 323 CURVE",
"452 457 OFFCURVE",
"582 591 OFFCURVE",
"645 648 CURVE",
"590 702 LINE",
"510 634 OFFCURVE",
"388 508 OFFCURVE",
"274 381 CURVE",
"212 440 OFFCURVE",
"143 490 OFFCURVE",
"107 507 CURVE",
"56 431 LINE",
"89 413 OFFCURVE",
"154 365 OFFCURVE",
"212 311 CURVE",
"139 226 OFFCURVE",
"73 145 OFFCURVE",
"33 86 CURVE",
"99 44 LINE",
"136 97 OFFCURVE",
"198 173 OFFCURVE",
"269 253 CURVE",
"356 156 OFFCURVE",
"434 44 OFFCURVE",
"454 -10 CURVE"
);
}
);
width = 634;
}
);
unicode = 10A43;
},
{
glyphname = u10A44;
lastChange = "2017-09-08 13:56:04 +0000";
layers = (
{
layerId = UUID0;
paths = (
{
closed = 1;
nodes = (
"335 77 OFFCURVE",
"449 206 OFFCURVE",
"449 371 CURVE SMOOTH",
"449 506 OFFCURVE",
"394 609 OFFCURVE",
"227 609 CURVE SMOOTH",
"126 609 OFFCURVE",
"59 560 OFFCURVE",
"33 495 CURVE",
"109 460 LINE",
"129 506 OFFCURVE",
"161 535 OFFCURVE",
"227 535 CURVE SMOOTH",
"328 535 OFFCURVE",
"363 463 OFFCURVE",
"363 367 CURVE SMOOTH",
"363 209 OFFCURVE",
"246 106 OFFCURVE",
"164 38 CURVE",
"229 -14 LINE"
);
}
);
width = 493;
}
);
unicode = 10A44;
},
{
glyphname = u10A45;
lastChange = "2017-09-08 13:56:04 +0000";
layers = (
{
layerId = UUID0;
paths = (
{
closed = 1;
nodes = (
"404 26 OFFCURVE",
"477 101 OFFCURVE",
"477 206 CURVE SMOOTH",
"477 292 OFFCURVE",
"424 331 OFFCURVE",
"301 338 CURVE",
"351 365 OFFCURVE",
"395 401 OFFCURVE",
"395 468 CURVE SMOOTH",
"395 563 OFFCURVE",
"305 608 OFFCURVE",
"174 608 CURVE SMOOTH",
"129 608 OFFCURVE",
"77 602 OFFCURVE",
"33 579 CURVE",
"62 509 LINE",
"98 523 OFFCURVE",
"138 534 OFFCURVE",
"176 534 CURVE SMOOTH",
"227 534 OFFCURVE",
"307 517 OFFCURVE",
"307 466 CURVE SMOOTH",
"307 414 OFFCURVE",
"290 368 OFFCURVE",
"126 342 CURVE",
"150 278 LINE",
"351 278 OFFCURVE",
"391 253 OFFCURVE",
"391 194 CURVE SMOOTH",
"391 125 OFFCURVE",
"333 89 OFFCURVE",
"259 69 CURVE",
"281 -8 LINE"
);
}
);
width = 521;
}
);
unicode = 10A45;
},
{
glyphname = u10A46;
lastChange = "2017-09-08 13:56:04 +0000";
layers = (
{
layerId = UUID0;
paths = (
{
closed = 1;
nodes = (
"228 155 OFFCURVE",
"282 357 OFFCURVE",
"282 509 CURVE",
"237 509 LINE",
"251 539 OFFCURVE",
"262 567 OFFCURVE",
"267 586 CURVE",
"194 614 LINE",
"175 564 OFFCURVE",
"124 449 OFFCURVE",
"57 380 CURVE",
"127 336 LINE",
"148 358 OFFCURVE",
"172 392 OFFCURVE",
"194 429 CURVE",
"180 285 OFFCURVE",
"127 169 OFFCURVE",
"33 20 CURVE",
"112 -12 LINE"
);
}
);
width = 326;
}
);
unicode = 10A46;
},
{
glyphname = u10A47;
lastChange = "2017-09-08 13:56:04 +0000";
layers = (
{
layerId = UUID0;
paths = (
{
closed = 1;
nodes = (
"312 -6 OFFCURVE",
"521 9 OFFCURVE",
"557 23 CURVE",
"538 97 LINE",
"502 82 OFFCURVE",
"321 67 OFFCURVE",
"235 67 CURVE SMOOTH",
"193 67 OFFCURVE",
"164 84 OFFCURVE",
"164 128 CURVE SMOOTH",
"164 159 OFFCURVE",
"207 216 OFFCURVE",
"246 279 CURVE",
"274 276 OFFCURVE",
"305 275 OFFCURVE",
"337 275 CURVE SMOOTH",
"510 275 OFFCURVE",
"585 307 OFFCURVE",
"585 348 CURVE SMOOTH",
"585 456 OFFCURVE",
"571 530 OFFCURVE",
"550 621 CURVE",
"479 598 LINE",
"497 504 OFFCURVE",
"504 438 OFFCURVE",
"504 393 CURVE SMOOTH",
"504 346 OFFCURVE",
"487 339 OFFCURVE",
"324 339 CURVE SMOOTH",
"309 339 OFFCURVE",
"294 339 OFFCURVE",
"280 340 CURVE",
"295 371 OFFCURVE",
"305 401 OFFCURVE",
"305 429 CURVE SMOOTH",
"305 515 OFFCURVE",
"266 580 OFFCURVE",
"162 580 CURVE SMOOTH",
"86 580 OFFCURVE",
"33 523 OFFCURVE",
"33 452 CURVE SMOOTH",
"33 362 OFFCURVE",
"86 315 OFFCURVE",
"170 292 CURVE",
"127 218 OFFCURVE",
"77 141 OFFCURVE",
"77 104 CURVE SMOOTH",
"77 46 OFFCURVE",
"104 -6 OFFCURVE",
"233 -6 CURVE SMOOTH"
);
},
{
closed = 1;
nodes = (
"152 363 OFFCURVE",
"117 391 OFFCURVE",
"117 450 CURVE SMOOTH",
"117 480 OFFCURVE",
"137 506 OFFCURVE",
"163 506 CURVE SMOOTH",
"210 506 OFFCURVE",
"226 466 OFFCURVE",
"226 429 CURVE SMOOTH",
"226 408 OFFCURVE",
"216 380 OFFCURVE",
"201 350 CURVE"
);
}
);
width = 629;
}
);
unicode = 10A47;
},
{
glyphname = u10A50;
lastChange = "2017-09-08 13:56:04 +0000";
layers = (
{
layerId = UUID0;
paths = (
{
closed = 1;
nodes = (
"167 586 OFFCURVE",
"196 606 OFFCURVE",
"196 654 CURVE SMOOTH",
"196 703 OFFCURVE",
"167 721 OFFCURVE",
"133 721 CURVE SMOOTH",
"99 721 OFFCURVE",
"72 703 OFFCURVE",
"72 654 CURVE SMOOTH",
"72 606 OFFCURVE",
"99 586 OFFCURVE",
"133 586 CURVE SMOOTH"
);
}
);
width = 268;
}
);
unicode = 10A50;
},
{
glyphname = u10A51;
lastChange = "2017-09-08 13:56:04 +0000";
layers = (
{
layerId = UUID0;
paths = (
{
closed = 1;
nodes = (
"239 306 OFFCURVE",
"296 350 OFFCURVE",
"296 418 CURVE SMOOTH",
"296 483 OFFCURVE",
"254 527 OFFCURVE",
"180 527 CURVE SMOOTH",
"115 527 OFFCURVE",
"66 478 OFFCURVE",
"66 412 CURVE SMOOTH",
"66 345 OFFCURVE",
"110 306 OFFCURVE",
"175 306 CURVE SMOOTH"
);
},
{
closed = 1;
nodes = (
"139 356 OFFCURVE",
"119 377 OFFCURVE",
"119 412 CURVE SMOOTH",
"119 447 OFFCURVE",
"143 468 OFFCURVE",
"175 468 CURVE SMOOTH",
"207 468 OFFCURVE",
"231 447 OFFCURVE",
"231 412 CURVE SMOOTH",
"231 377 OFFCURVE",
"208 356 OFFCURVE",
"175 356 CURVE SMOOTH"
);
}
);
width = 362;
}
);
unicode = 10A51;
},
{
glyphname = u10A52;
lastChange = "2017-09-08 13:56:04 +0000";
layers = (
{
layerId = UUID0;
paths = (
{
closed = 1;
nodes = (
"416 175 OFFCURVE",
"524 258 OFFCURVE",
"524 387 CURVE SMOOTH",
"524 511 OFFCURVE",
"444 594 OFFCURVE",
"304 594 CURVE SMOOTH",
"181 594 OFFCURVE",
"88 501 OFFCURVE",
"88 376 CURVE SMOOTH",
"88 249 OFFCURVE",
"171 175 OFFCURVE",
"295 175 CURVE SMOOTH"
);
},
{
closed = 1;
nodes = (
"202 232 OFFCURVE",
"150 287 OFFCURVE",
"150 378 CURVE SMOOTH",
"150 469 OFFCURVE",
"213 524 OFFCURVE",
"297 524 CURVE SMOOTH",
"380 524 OFFCURVE",
"443 469 OFFCURVE",
"443 378 CURVE SMOOTH",
"443 287 OFFCURVE",
"383 232 OFFCURVE",
"297 232 CURVE SMOOTH"
);
}
);
width = 612;
}
);
unicode = 10A52;
},
{
glyphname = u10A53;
lastChange = "2017-09-08 13:56:04 +0000";
layers = (
{
layerId = UUID0;
paths = (
{
closed = 1;
nodes = (
"516 5 OFFCURVE",
"645 27 OFFCURVE",
"725 57 CURVE",
"704 133 LINE",
"630 101 OFFCURVE",
"518 87 OFFCURVE",
"450 87 CURVE SMOOTH",
"304 87 OFFCURVE",
"188 160 OFFCURVE",
"173 334 CURVE",
"233 351 OFFCURVE",
"328 364 OFFCURVE",
"440 364 CURVE SMOOTH",
"539 364 OFFCURVE",
"717 347 OFFCURVE",
"763 330 CURVE",
"781 399 LINE",
"733 419 OFFCURVE",
"549 437 OFFCURVE",
"441 437 CURVE SMOOTH",
"338 437 OFFCURVE",
"242 428 OFFCURVE",
"173 414 CURVE",
"187 595 OFFCURVE",
"296 635 OFFCURVE",
"391 635 CURVE SMOOTH",
"452 635 OFFCURVE",
"577 617 OFFCURVE",
"636 589 CURVE",
"668 660 LINE",
"604 688 OFFCURVE",
"521 710 OFFCURVE",
"390 710 CURVE SMOOTH",
"231 710 OFFCURVE",
"88 615 OFFCURVE",
"88 372 CURVE SMOOTH",
"88 119 OFFCURVE",
"214 5 OFFCURVE",
"443 5 CURVE SMOOTH"
);
}
);
width = 803;
}
);
unicode = 10A53;
},
{
glyphname = u10A54;
lastChange = "2017-09-08 13:56:04 +0000";
layers = (
{
layerId = UUID0;
paths = (
{
closed = 1;
nodes = (
"485 122 OFFCURVE",
"623 228 OFFCURVE",
"623 393 CURVE SMOOTH",
"623 551 OFFCURVE",
"521 657 OFFCURVE",
"342 657 CURVE SMOOTH",
"185 657 OFFCURVE",
"66 538 OFFCURVE",
"66 378 CURVE SMOOTH",
"66 216 OFFCURVE",
"172 122 OFFCURVE",
"330 122 CURVE SMOOTH"
);
},
{
closed = 1;
nodes = (
"273 176 OFFCURVE",
"226 191 OFFCURVE",
"191 220 CURVE",
"251 240 LINE",
"233 283 OFFCURVE",
"230 306 OFFCURVE",
"230 330 CURVE SMOOTH",
"230 359 OFFCURVE",
"245 371 OFFCURVE",
"314 375 CURVE",
"304 347 OFFCURVE",
"294 317 OFFCURVE",
"294 288 CURVE SMOOTH",
"294 250 OFFCURVE",
"309 222 OFFCURVE",
"366 222 CURVE SMOOTH",
"403 222 OFFCURVE",
"469 253 OFFCURVE",
"504 284 CURVE",
"472 335 LINE",
"446 311 OFFCURVE",
"403 286 OFFCURVE",
"384 286 CURVE SMOOTH",
"369 286 OFFCURVE",
"356 292 OFFCURVE",
"356 314 CURVE SMOOTH",
"356 327 OFFCURVE",
"365 350 OFFCURVE",
"375 376 CURVE",
"453 376 OFFCURVE",
"506 380 OFFCURVE",
"538 386 CURVE",
"538 381 LINE SMOOTH",
"538 253 OFFCURVE",
"455 176 OFFCURVE",
"333 176 CURVE SMOOTH"
);
},
{
closed = 1;
nodes = (
"146 260 OFFCURVE",
"126 313 OFFCURVE",
"126 381 CURVE SMOOTH",
"126 509 OFFCURVE",
"215 586 OFFCURVE",
"333 586 CURVE SMOOTH",
"427 586 OFFCURVE",
"503 535 OFFCURVE",
"528 449 CURVE",
"502 444 OFFCURVE",
"464 440 OFFCURVE",
"397 440 CURVE",
"399 449 OFFCURVE",
"401 458 OFFCURVE",
"401 466 CURVE SMOOTH",
"401 523 OFFCURVE",
"373 549 OFFCURVE",
"320 549 CURVE SMOOTH",
"289 549 OFFCURVE",
"250 541 OFFCURVE",
"206 518 CURVE",
"226 464 LINE",
"258 480 OFFCURVE",
"284 485 OFFCURVE",
"303 485 CURVE SMOOTH",
"320 485 OFFCURVE",
"335 479 OFFCURVE",
"335 448 CURVE SMOOTH",
"335 445 OFFCURVE",
"335 442 OFFCURVE",
"334 439 CURVE",
"208 434 OFFCURVE",
"158 408 OFFCURVE",
"158 339 CURVE SMOOTH",
"158 303 OFFCURVE",
"165 266 OFFCURVE",
"186 224 CURVE"
);
}
);
width = 689;
}
);
unicode = 10A54;
},
{
glyphname = u10A55;
lastChange = "2017-09-08 13:56:04 +0000";
layers = (
{
layerId = UUID0;
paths = (
{
closed = 1;
nodes = (
"676 484 OFFCURVE",
"733 528 OFFCURVE",
"733 596 CURVE SMOOTH",
"733 661 OFFCURVE",
"691 705 OFFCURVE",
"617 705 CURVE SMOOTH",
"552 705 OFFCURVE",
"503 656 OFFCURVE",
"503 590 CURVE SMOOTH",
"503 523 OFFCURVE",
"547 484 OFFCURVE",
"612 484 CURVE SMOOTH"
);
},
{
closed = 1;
nodes = (
"218 69 OFFCURVE",
"198 90 OFFCURVE",
"198 125 CURVE SMOOTH",
"198 160 OFFCURVE",
"222 181 OFFCURVE",
"254 181 CURVE SMOOTH",
"286 181 OFFCURVE",
"310 160 OFFCURVE",
"310 125 CURVE SMOOTH",
"310 90 OFFCURVE",
"287 69 OFFCURVE",
"254 69 CURVE SMOOTH"
);
},
{
closed = 1;
nodes = (
"318 19 OFFCURVE",
"375 63 OFFCURVE",
"375 131 CURVE SMOOTH",
"375 196 OFFCURVE",
"333 240 OFFCURVE",
"259 240 CURVE SMOOTH",
"194 240 OFFCURVE",
"145 191 OFFCURVE",
"145 125 CURVE SMOOTH",
"145 58 OFFCURVE",
"189 19 OFFCURVE",
"254 19 CURVE SMOOTH"
);
},
{
closed = 1;
nodes = (
"139 308 OFFCURVE",
"119 329 OFFCURVE",
"119 364 CURVE SMOOTH",
"119 399 OFFCURVE",
"143 420 OFFCURVE",
"175 420 CURVE SMOOTH",
"207 420 OFFCURVE",
"231 399 OFFCURVE",
"231 364 CURVE SMOOTH",
"231 329 OFFCURVE",
"208 308 OFFCURVE",
"175 308 CURVE SMOOTH"
);
},
{
closed = 1;
nodes = (
"239 258 OFFCURVE",
"296 302 OFFCURVE",
"296 370 CURVE SMOOTH",
"296 435 OFFCURVE",
"254 479 OFFCURVE",
"180 479 CURVE SMOOTH",
"115 479 OFFCURVE",
"66 430 OFFCURVE",
"66 364 CURVE SMOOTH",
"66 297 OFFCURVE",
"110 258 OFFCURVE",
"175 258 CURVE SMOOTH"
);
},
{
closed = 1;
nodes = (
"497 41 OFFCURVE",
"477 62 OFFCURVE",
"477 97 CURVE SMOOTH",
"477 132 OFFCURVE",
"501 153 OFFCURVE",
"533 153 CURVE SMOOTH",
"565 153 OFFCURVE",
"589 132 OFFCURVE",
"589 97 CURVE SMOOTH",
"589 62 OFFCURVE",
"566 41 OFFCURVE",
"533 41 CURVE SMOOTH"
);
},
{
closed = 1;
nodes = (
"597 -9 OFFCURVE",
"654 35 OFFCURVE",
"654 103 CURVE SMOOTH",
"654 168 OFFCURVE",
"612 212 OFFCURVE",
"538 212 CURVE SMOOTH",
"473 212 OFFCURVE",
"424 163 OFFCURVE",
"424 97 CURVE SMOOTH",
"424 30 OFFCURVE",
"468 -9 OFFCURVE",
"533 -9 CURVE SMOOTH"
);
},
{
closed = 1;
nodes = (
"417 300 OFFCURVE",
"397 321 OFFCURVE",
"397 356 CURVE SMOOTH",
"397 391 OFFCURVE",
"421 412 OFFCURVE",
"453 412 CURVE SMOOTH",
"485 412 OFFCURVE",
"509 391 OFFCURVE",
"509 356 CURVE SMOOTH",
"509 321 OFFCURVE",
"486 300 OFFCURVE",
"453 300 CURVE SMOOTH"
);
},
{
closed = 1;
nodes = (
"517 250 OFFCURVE",
"574 294 OFFCURVE",
"574 362 CURVE SMOOTH",
"574 427 OFFCURVE",
"532 471 OFFCURVE",
"458 471 CURVE SMOOTH",
"393 471 OFFCURVE",
"344 422 OFFCURVE",
"344 356 CURVE SMOOTH",
"344 289 OFFCURVE",
"388 250 OFFCURVE",
"453 250 CURVE SMOOTH"
);
},
{
closed = 1;
nodes = (
"306 550 OFFCURVE",
"286 571 OFFCURVE",
"286 606 CURVE SMOOTH",
"286 641 OFFCURVE",
"310 662 OFFCURVE",
"342 662 CURVE SMOOTH",
"374 662 OFFCURVE",
"398 641 OFFCURVE",
"398 606 CURVE SMOOTH",
"398 571 OFFCURVE",
"375 550 OFFCURVE",
"342 550 CURVE SMOOTH"
);
},
{
closed = 1;
nodes = (
"406 500 OFFCURVE",
"463 544 OFFCURVE",
"463 612 CURVE SMOOTH",
"463 677 OFFCURVE",
"421 721 OFFCURVE",
"347 721 CURVE SMOOTH",
"282 721 OFFCURVE",
"233 672 OFFCURVE",
"233 606 CURVE SMOOTH",
"233 539 OFFCURVE",
"277 500 OFFCURVE",
"342 500 CURVE SMOOTH"
);
},
{
closed = 1;
nodes = (
"674 273 OFFCURVE",
"654 294 OFFCURVE",
"654 329 CURVE SMOOTH",
"654 364 OFFCURVE",
"678 385 OFFCURVE",
"710 385 CURVE SMOOTH",
"742 385 OFFCURVE",
"766 364 OFFCURVE",
"766 329 CURVE SMOOTH",
"766 294 OFFCURVE",
"743 273 OFFCURVE",
"710 273 CURVE SMOOTH"
);
},
{
closed = 1;
nodes = (
"774 223 OFFCURVE",
"831 267 OFFCURVE",
"831 335 CURVE SMOOTH",
"831 400 OFFCURVE",
"789 444 OFFCURVE",
"715 444 CURVE SMOOTH",
"650 444 OFFCURVE",
"601 395 OFFCURVE",
"601 329 CURVE SMOOTH",
"601 262 OFFCURVE",
"645 223 OFFCURVE",
"710 223 CURVE SMOOTH"
);
},
{
closed = 1;
nodes = (
"576 534 OFFCURVE",
"556 555 OFFCURVE",
"556 590 CURVE SMOOTH",
"556 625 OFFCURVE",
"580 646 OFFCURVE",
"612 646 CURVE SMOOTH",
"644 646 OFFCURVE",
"668 625 OFFCURVE",
"668 590 CURVE SMOOTH",
"668 555 OFFCURVE",
"645 534 OFFCURVE",
"612 534 CURVE SMOOTH"
);
}
);
width = 897;
}
);
unicode = 10A55;
},
{
glyphname = u10A56;
lastChange = "2017-09-08 13:56:04 +0000";
layers = (
{
layerId = UUID0;
paths = (
{
closed = 1;
nodes = (
"167 85 OFFCURVE",
"272 543 OFFCURVE",
"293 710 CURVE",
"228 717 LINE",
"210 572 OFFCURVE",
"85 104 OFFCURVE",
"44 6 CURVE",
"125 -16 LINE"
);
}
);
width = 337;
}
);
unicode = 10A56;
},
{
glyphname = u10A57;
lastChange = "2017-09-08 13:56:04 +0000";
layers = (
{
layerId = UUID0;
paths = (
{
closed = 1;
nodes = (
"304 85 OFFCURVE",
"409 543 OFFCURVE",
"430 710 CURVE",
"365 717 LINE",
"347 572 OFFCURVE",
"222 104 OFFCURVE",
"181 6 CURVE",
"262 -16 LINE"
);
},
{
closed = 1;
nodes = (
"167 85 OFFCURVE",
"272 543 OFFCURVE",
"293 710 CURVE",
"228 717 LINE",
"210 572 OFFCURVE",
"85 104 OFFCURVE",
"44 6 CURVE",
"125 -16 LINE"
);
}
);
width = 474;
}
);
unicode = 10A57;
},
{
glyphname = u10A58;
lastChange = "2017-09-08 13:56:04 +0000";
layers = (
{
layerId = UUID0;
paths = (
{
closed = 1;
nodes = (
"499 339 OFFCURVE",
"504 402 OFFCURVE",
"593 402 CURVE SMOOTH",
"682 402 OFFCURVE",
"687 339 OFFCURVE",
"791 339 CURVE SMOOTH",
"866 339 OFFCURVE",
"922 361 OFFCURVE",
"999 398 CURVE",
"971 474 LINE",
"878 430 OFFCURVE",
"851 413 OFFCURVE",
"791 413 CURVE SMOOTH",
"731 413 OFFCURVE",
"702 484 OFFCURVE",
"593 484 CURVE SMOOTH",
"484 484 OFFCURVE",
"455 413 OFFCURVE",
"395 413 CURVE SMOOTH",
"335 413 OFFCURVE",
"306 484 OFFCURVE",
"197 484 CURVE SMOOTH",
"142 484 OFFCURVE",
"76 457 OFFCURVE",
"31 434 CURVE",
"64 365 LINE",
"99 383 OFFCURVE",
"139 402 OFFCURVE",
"184 402 CURVE SMOOTH",
"273 402 OFFCURVE",
"291 339 OFFCURVE",
"395 339 CURVE SMOOTH"
);
},
{
closed = 1;
nodes = (
"479 169 OFFCURVE",
"484 232 OFFCURVE",
"573 232 CURVE SMOOTH",
"662 232 OFFCURVE",
"667 169 OFFCURVE",
"771 169 CURVE SMOOTH",
"844 169 OFFCURVE",
"902 191 OFFCURVE",
"979 228 CURVE",
"951 304 LINE",
"858 260 OFFCURVE",
"831 243 OFFCURVE",
"771 243 CURVE SMOOTH",
"711 243 OFFCURVE",
"682 314 OFFCURVE",
"573 314 CURVE SMOOTH",
"464 314 OFFCURVE",
"435 243 OFFCURVE",
"375 243 CURVE SMOOTH",
"315 243 OFFCURVE",
"276 314 OFFCURVE",
"177 314 CURVE SMOOTH",
"122 314 OFFCURVE",
"56 287 OFFCURVE",
"11 264 CURVE",
"44 195 LINE",
"79 213 OFFCURVE",
"119 232 OFFCURVE",
"164 232 CURVE SMOOTH",
"253 232 OFFCURVE",
"271 169 OFFCURVE",
"375 169 CURVE SMOOTH"
);
}
);
width = 1010;
}
);
unicode = 10A58;
},
{
glyphname = u10A1010A01;
lastChange = "2017-09-08 13:56:04 +0000";
layers = (
{
layerId = UUID0;
paths = (
{
closed = 1;
nodes = (
"428 107 OFFCURVE",
"469 215 OFFCURVE",
"492 307 CURVE",
"603 280 OFFCURVE",
"654 226 OFFCURVE",
"654 143 CURVE SMOOTH",
"654 106 OFFCURVE",
"638 71 OFFCURVE",
"605 36 CURVE",
"668 -16 LINE",
"716 33 OFFCURVE",
"740 88 OFFCURVE",
"740 150 CURVE SMOOTH",
"740 271 OFFCURVE",
"662 350 OFFCURVE",
"507 380 CURVE",
"513 413 OFFCURVE",
"516 445 OFFCURVE",
"516 478 CURVE SMOOTH",
"516 606 OFFCURVE",
"467 683 OFFCURVE",
"368 708 CURVE",
"375 740 OFFCURVE",
"381 768 OFFCURVE",
"385 790 CURVE",
"336 806 LINE",
"331 780 OFFCURVE",
"323 750 OFFCURVE",
"313 715 CURVE",
"307 715 OFFCURVE",
"300 716 OFFCURVE",
"294 716 CURVE SMOOTH",
"178 716 OFFCURVE",
"88 646 OFFCURVE",
"88 536 CURVE SMOOTH",
"88 479 OFFCURVE",
"111 427 OFFCURVE",
"158 380 CURVE",
"218 429 LINE",
"165 281 OFFCURVE",
"120 166 OFFCURVE",
"83 83 CURVE",
"157 48 LINE",
"204 153 OFFCURVE",
"292 422 OFFCURVE",
"349 633 CURVE",
"403 612 OFFCURVE",
"430 560 OFFCURVE",
"430 474 CURVE SMOOTH",
"430 327 OFFCURVE",
"354 140 OFFCURVE",
"288 6 CURVE",
"368 -16 LINE"
);
},
{
closed = 1;
nodes = (
"188 468 OFFCURVE",
"172 503 OFFCURVE",
"172 539 CURVE SMOOTH",
"172 600 OFFCURVE",
"220 641 OFFCURVE",
"291 642 CURVE",
"263 557 OFFCURVE",
"239 488 OFFCURVE",
"219 434 CURVE"
);
}
);
width = 795;
}
);
note = g69;
},
{
glyphname = u10A1110A01;
lastChange = "2017-09-08 13:56:04 +0000";
layers = (
{
layerId = UUID0;
paths = (
{
closed = 1;
nodes = (
"426 40 OFFCURVE",
"455 126 OFFCURVE",
"455 180 CURVE SMOOTH",
"455 272 OFFCURVE",
"421 308 OFFCURVE",
"314 308 CURVE SMOOTH",
"300 308 OFFCURVE",
"285 309 OFFCURVE",
"268 311 CURVE",
"303 419 OFFCURVE",
"335 530 OFFCURVE",
"365 641 CURVE",
"414 634 OFFCURVE",
"456 620 OFFCURVE",
"490 599 CURVE",
"522 670 LINE",
"490 688 OFFCURVE",
"436 706 OFFCURVE",
"384 714 CURVE",
"392 745 OFFCURVE",
"397 771 OFFCURVE",
"400 790 CURVE",
"351 806 LINE",
"347 784 OFFCURVE",
"340 755 OFFCURVE",
"329 720 CURVE",
"320 720 LINE SMOOTH",
"149 720 OFFCURVE",
"66 628 OFFCURVE",
"66 443 CURVE SMOOTH",
"66 357 OFFCURVE",
"104 292 OFFCURVE",
"170 260 CURVE",
"147 202 OFFCURVE",
"124 143 OFFCURVE",
"98 83 CURVE",
"172 48 LINE",
"192 93 OFFCURVE",
"215 156 OFFCURVE",
"243 238 CURVE",
"260 235 OFFCURVE",
"278 234 OFFCURVE",
"297 234 CURVE SMOOTH",
"346 234 OFFCURVE",
"369 220 OFFCURVE",
"369 178 CURVE SMOOTH",
"369 137 OFFCURVE",
"340 56 OFFCURVE",
"314 15 CURVE",
"385 -17 LINE"
);
},
{
closed = 1;
nodes = (
"166 354 OFFCURVE",
"150 387 OFFCURVE",
"150 445 CURVE SMOOTH",
"150 581 OFFCURVE",
"193 642 OFFCURVE",
"306 645 CURVE",
"274 546 OFFCURVE",
"238 442 OFFCURVE",
"198 334 CURVE"
);
}
);
width = 573;
}
);
note = g70;
},
{
glyphname = u10A1210A01;
lastChange = "2017-09-08 13:56:04 +0000";
layers = (
{
layerId = UUID0;
paths = (
{
closed = 1;
nodes = (
"316 83 OFFCURVE",
"354 279 OFFCURVE",
"373 355 CURVE",
"515 355 OFFCURVE",
"666 426 OFFCURVE",
"666 552 CURVE SMOOTH",
"666 628 OFFCURVE",
"608 680 OFFCURVE",
"523 680 CURVE SMOOTH",
"424 680 OFFCURVE",
"362 606 OFFCURVE",
"310 425 CURVE",
"293 426 OFFCURVE",
"277 429 OFFCURVE",
"262 434 CURVE",
"312 599 OFFCURVE",
"343 718 OFFCURVE",
"356 790 CURVE",
"307 806 LINE",
"297 750 OFFCURVE",
"262 637 OFFCURVE",
"203 469 CURVE",
"181 491 OFFCURVE",
"170 520 OFFCURVE",
"170 553 CURVE SMOOTH",
"170 599 OFFCURVE",
"182 628 OFFCURVE",
"225 698 CURVE",
"159 732 LINE",
"115 681 OFFCURVE",
"89 612 OFFCURVE",
"89 546 CURVE SMOOTH",
"89 482 OFFCURVE",
"122 430 OFFCURVE",
"177 396 CURVE",
"124 251 OFFCURVE",
"83 147 OFFCURVE",
"54 83 CURVE",
"128 48 LINE",
"159 118 OFFCURVE",
"197 226 OFFCURVE",
"242 370 CURVE",
"257 365 OFFCURVE",
"273 362 OFFCURVE",
"292 361 CURVE",
"267 260 OFFCURVE",
"233 73 OFFCURVE",
"222 -7 CURVE",
"302 -15 LINE"
);
},
{
closed = 1;
nodes = (
"403 466 OFFCURVE",
"416 503 OFFCURVE",
"429 530 CURVE SMOOTH",
"455 584 OFFCURVE",
"478 606 OFFCURVE",
"520 606 CURVE SMOOTH",
"557 606 OFFCURVE",
"582 583 OFFCURVE",
"582 550 CURVE SMOOTH",
"582 479 OFFCURVE",
"499 425 OFFCURVE",
"390 419 CURVE"
);
}
);
width = 695;
}
);
note = g71;
},
{
glyphname = u10A1310A01;
lastChange = "2017-09-08 13:56:04 +0000";
layers = (
{
layerId = UUID0;
paths = (
{
closed = 1;
nodes = (
"568 26 OFFCURVE",
"599 95 OFFCURVE",
"599 150 CURVE SMOOTH",
"599 246 OFFCURVE",
"526 296 OFFCURVE",
"363 313 CURVE",
"373 355 LINE",
"515 355 OFFCURVE",
"666 426 OFFCURVE",
"666 552 CURVE SMOOTH",
"666 628 OFFCURVE",
"608 680 OFFCURVE",
"523 680 CURVE SMOOTH",
"424 680 OFFCURVE",
"362 606 OFFCURVE",
"310 425 CURVE",
"293 426 OFFCURVE",
"277 429 OFFCURVE",
"262 434 CURVE",
"312 599 OFFCURVE",
"343 718 OFFCURVE",
"356 790 CURVE",
"307 806 LINE",
"297 750 OFFCURVE",
"262 637 OFFCURVE",
"203 469 CURVE",
"181 491 OFFCURVE",
"170 520 OFFCURVE",
"170 553 CURVE SMOOTH",
"170 601 OFFCURVE",
"184 632 OFFCURVE",
"225 698 CURVE",
"159 732 LINE",
"115 681 OFFCURVE",
"89 612 OFFCURVE",
"89 546 CURVE SMOOTH",
"89 482 OFFCURVE",
"122 430 OFFCURVE",
"177 396 CURVE",
"124 251 OFFCURVE",
"83 147 OFFCURVE",
"54 83 CURVE",
"128 48 LINE",
"159 118 OFFCURVE",
"197 226 OFFCURVE",
"242 370 CURVE",
"257 365 OFFCURVE",
"273 362 OFFCURVE",
"292 361 CURVE",
"267 260 OFFCURVE",
"233 73 OFFCURVE",
"222 -7 CURVE",
"302 -15 LINE",
"310 46 OFFCURVE",
"326 133 OFFCURVE",
"349 247 CURVE",
"440 230 OFFCURVE",
"513 215 OFFCURVE",
"513 145 CURVE SMOOTH",
"513 108 OFFCURVE",
"497 71 OFFCURVE",
"464 36 CURVE",
"527 -16 LINE"
);
},
{
closed = 1;
nodes = (
"403 466 OFFCURVE",
"416 503 OFFCURVE",
"429 530 CURVE SMOOTH",
"455 584 OFFCURVE",
"478 606 OFFCURVE",
"520 606 CURVE SMOOTH",
"557 606 OFFCURVE",
"582 583 OFFCURVE",
"582 550 CURVE SMOOTH",
"582 479 OFFCURVE",
"499 425 OFFCURVE",
"390 419 CURVE"
);
}
);
width = 695;
}
);
note = g72;
},
{
glyphname = u10A1510A01;
lastChange = "2017-09-08 13:56:04 +0000";
layers = (
{
layerId = UUID0;
paths = (
{
closed = 1;
nodes = (
"424 103 OFFCURVE",
"501 222 OFFCURVE",
"501 320 CURVE SMOOTH",
"501 410 OFFCURVE",
"449 461 OFFCURVE",
"344 471 CURVE",
"392 502 OFFCURVE",
"488 610 OFFCURVE",
"529 678 CURVE",
"469 719 LINE",
"423 655 OFFCURVE",
"390 616 OFFCURVE",
"322 616 CURVE SMOOTH",
"307 616 OFFCURVE",
"291 619 OFFCURVE",
"273 625 CURVE",
"292 696 OFFCURVE",
"305 751 OFFCURVE",
"313 790 CURVE",
"264 806 LINE",
"257 774 OFFCURVE",
"244 724 OFFCURVE",
"222 655 CURVE",
"195 678 OFFCURVE",
"177 704 OFFCURVE",
"167 733 CURVE",
"99 691 LINE",
"117 649 OFFCURVE",
"156 604 OFFCURVE",
"196 576 CURVE",
"149 436 OFFCURVE",
"63 201 OFFCURVE",
"11 83 CURVE",
"84 48 LINE",
"119 129 OFFCURVE",
"159 242 OFFCURVE",
"205 388 CURVE",
"205 386 LINE",
"234 397 OFFCURVE",
"281 404 OFFCURVE",
"311 404 CURVE SMOOTH",
"365 404 OFFCURVE",
"415 376 OFFCURVE",
"415 318 CURVE SMOOTH",
"415 237 OFFCURVE",
"364 150 OFFCURVE",
"228 26 CURVE",
"291 -17 LINE"
);
},
{
closed = 1;
nodes = (
"252 548 LINE",
"273 541 OFFCURVE",
"295 537 OFFCURVE",
"317 537 CURVE SMOOTH",
"323 537 OFFCURVE",
"330 538 OFFCURVE",
"336 539 CURVE",
"315 520 OFFCURVE",
"280 498 OFFCURVE",
"231 474 CURVE"
);
}
);
width = 584;
}
);
note = g73;
},
{
glyphname = u10A1610A01;
lastChange = "2017-09-08 13:56:04 +0000";
layers = (
{
layerId = UUID0;
paths = (
{
closed = 1;
nodes = (
"330 100 OFFCURVE",
"372 271 OFFCURVE",
"424 430 CURVE",
"508 406 OFFCURVE",
"552 349 OFFCURVE",
"552 267 CURVE SMOOTH",
"552 222 OFFCURVE",
"529 153 OFFCURVE",
"497 101 CURVE",
"568 69 LINE",
"609 126 OFFCURVE",
"638 217 OFFCURVE",
"638 274 CURVE SMOOTH",
"638 387 OFFCURVE",
"572 470 OFFCURVE",
"456 501 CURVE",
"479 532 OFFCURVE",
"511 556 OFFCURVE",
"544 582 CURVE SMOOTH",
"576 608 OFFCURVE",
"610 636 OFFCURVE",
"635 678 CURVE",
"570 719 LINE",
"511 638 OFFCURVE",
"475 616 OFFCURVE",
"428 616 CURVE SMOOTH",
"403 616 OFFCURVE",
"379 623 OFFCURVE",
"354 637 CURVE",
"371 698 OFFCURVE",
"383 749 OFFCURVE",
"390 790 CURVE",
"341 806 LINE",
"336 778 OFFCURVE",
"324 734 OFFCURVE",
"306 676 CURVE",
"290 694 OFFCURVE",
"279 713 OFFCURVE",
"273 733 CURVE",
"205 691 LINE",
"220 655 OFFCURVE",
"245 623 OFFCURVE",
"279 593 CURVE",
"248 501 LINE",
"133 469 OFFCURVE",
"66 391 OFFCURVE",
"66 289 CURVE SMOOTH",
"66 240 OFFCURVE",
"83 194 OFFCURVE",
"118 153 CURVE",
"88 83 LINE",
"162 48 LINE",
"201 139 OFFCURVE",
"259 311 OFFCURVE",
"298 438 CURVE",
"313 440 OFFCURVE",
"327 441 OFFCURVE",
"337 441 CURVE",
"277 240 OFFCURVE",
"240 90 OFFCURVE",
"227 -8 CURVE",
"312 -15 LINE"
);
},
{
closed = 1;
nodes = (
"152 266 OFFCURVE",
"150 280 OFFCURVE",
"150 292 CURVE SMOOTH",
"150 347 OFFCURVE",
"172 387 OFFCURVE",
"217 414 CURVE",
"197 357 OFFCURVE",
"177 303 OFFCURVE",
"157 252 CURVE"
);
},
{
closed = 1;
nodes = (
"333 558 LINE",
"354 547 OFFCURVE",
"376 541 OFFCURVE",
"398 538 CURVE",
"384 526 OFFCURVE",
"376 518 OFFCURVE",
"373 514 CURVE",
"366 515 OFFCURVE",
"364 515 OFFCURVE",
"360 515 CURVE SMOOTH",
"346 515 OFFCURVE",
"337 515 OFFCURVE",
"320 514 CURVE"
);
}
);
width = 715;
}
);
note = g74;
},
{
glyphname = u10A1710A01;
lastChange = "2017-09-08 13:56:04 +0000";
layers = (
{
layerId = UUID0;
paths = (
{
closed = 1;
nodes = (
"307 111 OFFCURVE",
"519 475 OFFCURVE",
"563 704 CURVE",
"481 718 LINE",
"467 644 OFFCURVE",
"437 559 OFFCURVE",
"390 463 CURVE",
"338 517 OFFCURVE",
"294 570 OFFCURVE",
"257 620 CURVE",
"276 692 OFFCURVE",
"290 748 OFFCURVE",
"297 790 CURVE",
"249 806 LINE",
"244 779 OFFCURVE",
"232 738 OFFCURVE",
"215 682 CURVE",
"203 702 OFFCURVE",
"194 718 OFFCURVE",
"189 730 CURVE",
"113 686 LINE",
"125 656 OFFCURVE",
"147 619 OFFCURVE",
"180 573 CURVE",
"124 407 OFFCURVE",
"44 191 OFFCURVE",
"-4 83 CURVE",
"69 48 LINE",
"116 154 OFFCURVE",
"168 309 OFFCURVE",
"227 511 CURVE",
"262 467 OFFCURVE",
"301 422 OFFCURVE",
"345 378 CURVE",
"257 223 OFFCURVE",
"162 103 OFFCURVE",
"84 44 CURVE",
"134 -17 LINE"
);
}
);
width = 559;
}
);
note = g75;
},
{
glyphname = u10A1910A01;
lastChange = "2017-09-08 13:56:04 +0000";
layers = (
{
layerId = UUID0;
paths = (
{
closed = 1;
nodes = (
"114 13 OFFCURVE",
"180 120 OFFCURVE",
"242 337 CURVE",
"254 333 OFFCURVE",
"269 332 OFFCURVE",
"284 330 CURVE",
"249 235 OFFCURVE",
"216 153 OFFCURVE",
"186 83 CURVE",
"260 48 LINE",
"295 132 OFFCURVE",
"339 258 OFFCURVE",
"360 327 CURVE",
"498 331 OFFCURVE",
"570 386 OFFCURVE",
"570 484 CURVE SMOOTH",
"570 502 OFFCURVE",
"567 522 OFFCURVE",
"563 546 CURVE SMOOTH",
"559 570 OFFCURVE",
"555 589 OFFCURVE",
"555 604 CURVE SMOOTH",
"555 628 OFFCURVE",
"578 636 OFFCURVE",
"622 642 CURVE",
"597 711 LINE",
"521 711 OFFCURVE",
"474 671 OFFCURVE",
"474 606 CURVE SMOOTH",
"474 587 OFFCURVE",
"476 566 OFFCURVE",
"479 542 CURVE SMOOTH",
"482 517 OFFCURVE",
"484 497 OFFCURVE",
"484 482 CURVE SMOOTH",
"484 429 OFFCURVE",
"455 403 OFFCURVE",
"383 398 CURVE",
"438 576 OFFCURVE",
"473 706 OFFCURVE",
"488 790 CURVE",
"439 806 LINE",
"425 735 OFFCURVE",
"371 568 OFFCURVE",
"310 399 CURVE",
"295 400 OFFCURVE",
"278 403 OFFCURVE",
"260 407 CURVE",
"286 503 OFFCURVE",
"306 604 OFFCURVE",
"321 710 CURVE",
"236 717 LINE",
"208 520 OFFCURVE",
"125 94 OFFCURVE",
"-4 44 CURVE",
"29 -22 LINE"
);
}
);
width = 629;
}
);
note = g76;
},
{
glyphname = u10A1A10A01;
lastChange = "2017-09-08 13:56:04 +0000";
layers = (
{
layerId = UUID0;
paths = (
{
closed = 1;
nodes = (
"363 78 OFFCURVE",
"466 127 OFFCURVE",
"626 129 CURVE",
"626 203 LINE",
"520 203 OFFCURVE",
"417 179 OFFCURVE",
"320 130 CURVE",
"355 202 OFFCURVE",
"398 294 OFFCURVE",
"447 408 CURVE SMOOTH",
"498 526 OFFCURVE",
"535 608 OFFCURVE",
"563 655 CURVE",
"537 721 LINE",
"406 639 OFFCURVE",
"348 614 OFFCURVE",
"279 595 CURVE",
"303 683 OFFCURVE",
"319 748 OFFCURVE",
"326 790 CURVE",
"277 806 LINE",
"267 755 OFFCURVE",
"245 680 OFFCURVE",
"211 582 CURVE",
"186 577 OFFCURVE",
"156 575 OFFCURVE",
"123 575 CURVE",
"123 501 LINE",
"139 501 OFFCURVE",
"160 502 OFFCURVE",
"185 503 CURVE",
"122 322 OFFCURVE",
"68 182 OFFCURVE",
"24 83 CURVE",
"98 48 LINE",
"142 148 OFFCURVE",
"209 353 OFFCURVE",
"256 513 CURVE",
"318 525 OFFCURVE",
"379 547 OFFCURVE",
"438 578 CURVE",
"311 289 OFFCURVE",
"236 127 OFFCURVE",
"187 49 CURVE",
"212 -17 LINE"
);
}
);
width = 692;
}
);
note = g77;
},
{
glyphname = u10A1B10A01;
lastChange = "2017-09-08 13:56:04 +0000";
layers = (
{
layerId = UUID0;
paths = (
{
closed = 1;
nodes = (
"459 154 OFFCURVE",
"530 438 OFFCURVE",
"530 582 CURVE SMOOTH",
"530 680 OFFCURVE",
"479 725 OFFCURVE",
"368 729 CURVE",
"380 790 LINE",
"332 806 LINE",
"327 784 OFFCURVE",
"321 758 OFFCURVE",
"312 729 CURVE",
"241 723 OFFCURVE",
"170 708 OFFCURVE",
"99 683 CURVE",
"117 614 LINE",
"174 633 OFFCURVE",
"231 645 OFFCURVE",
"288 650 CURVE",
"267 583 OFFCURVE",
"241 507 OFFCURVE",
"210 421 CURVE",
"167 415 OFFCURVE",
"129 405 OFFCURVE",
"99 393 CURVE",
"117 324 LINE",
"134 331 OFFCURVE",
"155 336 OFFCURVE",
"181 342 CURVE",
"146 246 OFFCURVE",
"112 160 OFFCURVE",
"79 83 CURVE",
"152 48 LINE",
"181 114 OFFCURVE",
"217 215 OFFCURVE",
"262 354 CURVE",
"282 356 OFFCURVE",
"308 358 OFFCURVE",
"338 358 CURVE SMOOTH",
"363 358 OFFCURVE",
"389 356 OFFCURVE",
"414 355 CURVE",
"386 226 OFFCURVE",
"342 83 OFFCURVE",
"308 5 CURVE",
"387 -16 LINE"
);
},
{
closed = 1;
nodes = (
"399 430 OFFCURVE",
"369 431 OFFCURVE",
"337 431 CURVE SMOOTH",
"320 431 OFFCURVE",
"302 430 OFFCURVE",
"285 429 CURVE",
"307 500 OFFCURVE",
"329 575 OFFCURVE",
"349 651 CURVE",
"415 650 OFFCURVE",
"444 627 OFFCURVE",
"444 578 CURVE SMOOTH",
"444 536 OFFCURVE",
"438 486 OFFCURVE",
"428 428 CURVE"
);
}
);
width = 614;
}
);
note = g78;
},
{
glyphname = u10A1C10A01;
lastChange = "2017-09-08 13:56:04 +0000";
layers = (
{
layerId = UUID0;
paths = (
{
closed = 1;
nodes = (
"384 136 OFFCURVE",
"499 540 OFFCURVE",
"559 685 CURVE",
"478 707 LINE",
"452 645 OFFCURVE",
"405 499 OFFCURVE",
"379 412 CURVE",
"346 417 OFFCURVE",
"318 422 OFFCURVE",
"294 428 CURVE",
"345 595 OFFCURVE",
"377 715 OFFCURVE",
"390 790 CURVE",
"341 806 LINE",
"331 747 OFFCURVE",
"294 629 OFFCURVE",
"231 453 CURVE",
"187 478 OFFCURVE",
"170 512 OFFCURVE",
"170 566 CURVE SMOOTH",
"170 601 OFFCURVE",
"182 637 OFFCURVE",
"215 692 CURVE",
"144 724 LINE",
"107 673 OFFCURVE",
"84 622 OFFCURVE",
"84 559 CURVE SMOOTH",
"84 464 OFFCURVE",
"126 411 OFFCURVE",
"205 379 CURVE",
"158 251 OFFCURVE",
"119 153 OFFCURVE",
"88 83 CURVE",
"162 48 LINE",
"188 106 OFFCURVE",
"225 209 OFFCURVE",
"272 357 CURVE",
"293 353 OFFCURVE",
"322 347 OFFCURVE",
"359 342 CURVE",
"320 209 OFFCURVE",
"289 71 OFFCURVE",
"277 -8 CURVE",
"362 -15 LINE"
);
}
);
width = 577;
}
);
note = g79;
},
{
glyphname = u10A1D10A01;
lastChange = "2017-09-08 13:56:04 +0000";
layers = (
{
layerId = UUID0;
paths = (
{
closed = 1;
nodes = (
"290 133 OFFCURVE",
"377 447 OFFCURVE",
"446 638 CURVE",
"645 638 LINE",
"659 712 LINE",
"285 712 LINE",
"302 790 LINE",
"253 806 LINE",
"248 781 OFFCURVE",
"240 750 OFFCURVE",
"229 712 CURVE",
"166 712 LINE",
"152 638 LINE",
"206 638 LINE",
"141 438 OFFCURVE",
"48 192 OFFCURVE",
"0 83 CURVE",
"74 48 LINE",
"122 159 OFFCURVE",
"206 412 OFFCURVE",
"266 638 CURVE",
"357 638 LINE",
"292 454 OFFCURVE",
"203 142 OFFCURVE",
"182 -8 CURVE",
"267 -15 LINE"
);
}
);
width = 637;
}
);
note = g80;
},
{
glyphname = u10A1E10A01;
lastChange = "2017-09-08 13:56:04 +0000";
layers = (
{
layerId = UUID0;
paths = (
{
closed = 1;
nodes = (
"296 -4 LINE",
"272 84 OFFCURVE",
"261 194 OFFCURVE",
"261 326 CURVE SMOOTH",
"261 418 OFFCURVE",
"265 500 OFFCURVE",
"274 571 CURVE",
"297 530 OFFCURVE",
"345 457 OFFCURVE",
"362 435 CURVE",
"432 479 LINE",
"377 553 OFFCURVE",
"295 673 OFFCURVE",
"295 713 CURVE",
"286 713 LINE",
"294 747 OFFCURVE",
"299 772 OFFCURVE",
"302 790 CURVE",
"253 806 LINE",
"249 784 OFFCURVE",
"242 754 OFFCURVE",
"230 718 CURVE",
"210 720 LINE",
"206 694 OFFCURVE",
"200 655 OFFCURVE",
"194 603 CURVE",
"146 453 OFFCURVE",
"59 218 OFFCURVE",
"0 83 CURVE",
"74 48 LINE",
"101 111 OFFCURVE",
"136 208 OFFCURVE",
"179 340 CURVE",
"179 213 OFFCURVE",
"189 100 OFFCURVE",
"212 -16 CURVE"
);
}
);
width = 494;
}
);
note = g81;
},
{
glyphname = u10A1F10A01;
lastChange = "2017-09-08 13:56:04 +0000";
layers = (
{
layerId = UUID0;
paths = (
{
closed = 1;
nodes = (
"367 34 OFFCURVE",
"557 215 OFFCURVE",
"557 400 CURVE SMOOTH",
"557 509 OFFCURVE",
"505 551 OFFCURVE",
"391 551 CURVE SMOOTH",
"377 551 OFFCURVE",
"352 549 OFFCURVE",
"315 546 CURVE",
"347 657 OFFCURVE",
"367 738 OFFCURVE",
"375 790 CURVE",
"327 806 LINE",
"314 748 OFFCURVE",
"288 660 OFFCURVE",
"248 543 CURVE",
"199 543 OFFCURVE",
"172 558 OFFCURVE",
"172 594 CURVE SMOOTH",
"172 626 OFFCURVE",
"196 652 OFFCURVE",
"236 662 CURVE",
"211 731 LINE",
"141 719 OFFCURVE",
"88 663 OFFCURVE",
"88 596 CURVE SMOOTH",
"88 518 OFFCURVE",
"135 471 OFFCURVE",
"221 465 CURVE",
"161 299 OFFCURVE",
"112 171 OFFCURVE",
"74 83 CURVE",
"125 59 LINE",
"120 58 LINE",
"141 -14 LINE"
);
},
{
closed = 1;
nodes = (
"195 162 OFFCURVE",
"240 295 OFFCURVE",
"292 467 CURVE",
"336 471 OFFCURVE",
"366 473 OFFCURVE",
"379 473 CURVE SMOOTH",
"441 473 OFFCURVE",
"471 454 OFFCURVE",
"471 399 CURVE SMOOTH",
"471 246 OFFCURVE",
"326 114 OFFCURVE",
"155 67 CURVE"
);
}
);
width = 601;
}
);
note = g82;
},
{
glyphname = u10A2010A01;
lastChange = "2017-09-08 13:56:04 +0000";
layers = (
{
layerId = UUID0;
paths = (
{
closed = 1;
nodes = (
"271 89 OFFCURVE",
"319 281 OFFCURVE",
"374 465 CURVE",
"478 459 OFFCURVE",
"556 447 OFFCURVE",
"609 426 CURVE",
"638 500 LINE",
"590 519 OFFCURVE",
"509 531 OFFCURVE",
"396 537 CURVE",
"419 612 OFFCURVE",
"438 667 OFFCURVE",
"453 702 CURVE",
"372 724 LINE",
"354 683 OFFCURVE",
"333 621 OFFCURVE",
"308 539 CURVE",
"276 539 OFFCURVE",
"251 537 OFFCURVE",
"234 536 CURVE",
"249 611 OFFCURVE",
"261 682 OFFCURVE",
"270 748 CURVE",
"220 757 LINE",
"211 705 OFFCURVE",
"193 628 OFFCURVE",
"167 527 CURVE",
"128 521 OFFCURVE",
"97 512 OFFCURVE",
"73 502 CURVE",
"91 433 LINE",
"108 439 OFFCURVE",
"126 444 OFFCURVE",
"145 448 CURVE",
"120 362 OFFCURVE",
"99 292 OFFCURVE",
"81 239 CURVE",
"162 229 LINE",
"183 307 OFFCURVE",
"202 384 OFFCURVE",
"218 460 CURVE",
"239 463 OFFCURVE",
"262 464 OFFCURVE",
"286 465 CURVE",
"231 283 OFFCURVE",
"184 90 OFFCURVE",
"171 -8 CURVE",
"256 -15 LINE"
);
}
);
width = 645;
}
);
note = g83;
},
{
glyphname = u10A2110A01;
lastChange = "2017-09-08 13:56:04 +0000";
layers = (
{
layerId = UUID0;
paths = (
{
closed = 1;
nodes = (
"322 -15 OFFCURVE",
"442 74 OFFCURVE",
"442 199 CURVE SMOOTH",
"442 297 OFFCURVE",
"394 360 OFFCURVE",
"309 444 CURVE",
"358 604 OFFCURVE",
"388 719 OFFCURVE",
"400 790 CURVE",
"351 806 LINE",
"342 754 OFFCURVE",
"311 651 OFFCURVE",
"256 497 CURVE",
"229 528 OFFCURVE",
"210 559 OFFCURVE",
"210 594 CURVE SMOOTH",
"210 626 OFFCURVE",
"233 652 OFFCURVE",
"274 662 CURVE",
"249 731 LINE",
"179 719 OFFCURVE",
"126 663 OFFCURVE",
"126 596 CURVE SMOOTH",
"126 533 OFFCURVE",
"149 478 OFFCURVE",
"223 402 CURVE",
"183 292 OFFCURVE",
"147 199 OFFCURVE",
"116 125 CURVE",
"189 89 LINE",
"214 150 OFFCURVE",
"244 235 OFFCURVE",
"279 346 CURVE",
"337 286 OFFCURVE",
"356 245 OFFCURVE",
"356 199 CURVE SMOOTH",
"356 117 OFFCURVE",
"288 61 OFFCURVE",
"190 61 CURVE SMOOTH",
"158 61 OFFCURVE",
"128 64 OFFCURVE",
"102 72 CURVE",
"84 -1 LINE",
"114 -10 OFFCURVE",
"149 -15 OFFCURVE",
"191 -15 CURVE SMOOTH"
);
}
);
width = 486;
}
);
note = g84;
},
{
glyphname = u10A2210A01;
lastChange = "2017-09-08 13:56:04 +0000";
layers = (
{
layerId = UUID0;
paths = (
{
closed = 1;
nodes = (
"440 101 OFFCURVE",
"527 226 OFFCURVE",
"527 320 CURVE SMOOTH",
"527 404 OFFCURVE",
"472 450 OFFCURVE",
"371 450 CURVE",
"406 483 OFFCURVE",
"427 527 OFFCURVE",
"427 574 CURVE SMOOTH",
"427 646 OFFCURVE",
"393 691 OFFCURVE",
"324 711 CURVE",
"341 790 LINE",
"292 806 LINE",
"290 791 OFFCURVE",
"282 763 OFFCURVE",
"271 721 CURVE",
"253 723 OFFCURVE",
"235 724 OFFCURVE",
"216 724 CURVE SMOOTH",
"189 724 OFFCURVE",
"158 722 OFFCURVE",
"124 717 CURVE",
"135 646 LINE",
"159 650 OFFCURVE",
"184 652 OFFCURVE",
"210 652 CURVE SMOOTH",
"224 652 OFFCURVE",
"237 651 OFFCURVE",
"249 650 CURVE",
"188 462 OFFCURVE",
"104 232 OFFCURVE",
"39 83 CURVE",
"113 48 LINE",
"140 109 OFFCURVE",
"187 240 OFFCURVE",
"226 364 CURVE",
"251 374 OFFCURVE",
"298 381 OFFCURVE",
"327 381 CURVE SMOOTH",
"404 381 OFFCURVE",
"441 365 OFFCURVE",
"441 316 CURVE SMOOTH",
"441 238 OFFCURVE",
"395 164 OFFCURVE",
"244 35 CURVE",
"297 -18 LINE"
);
},
{
closed = 1;
nodes = (
"272 517 OFFCURVE",
"290 579 OFFCURVE",
"304 634 CURVE",
"329 621 OFFCURVE",
"341 600 OFFCURVE",
"341 572 CURVE SMOOTH",
"341 505 OFFCURVE",
"315 469 OFFCURVE",
"251 447 CURVE"
);
}
);
width = 571;
}
);
note = g85;
},
{
glyphname = u10A2310A01;
lastChange = "2017-09-08 13:56:04 +0000";
layers = (
{
layerId = UUID0;
paths = (
{
closed = 1;
nodes = (
"315 93 OFFCURVE",
"359 227 OFFCURVE",
"365 324 CURVE",
"423 338 OFFCURVE",
"486 354 OFFCURVE",
"552 372 CURVE",
"539 428 LINE",
"488 417 OFFCURVE",
"429 405 OFFCURVE",
"361 392 CURVE",
"352 435 OFFCURVE",
"331 462 OFFCURVE",
"264 488 CURVE SMOOTH",
"216 507 OFFCURVE",
"184 525 OFFCURVE",
"184 575 CURVE SMOOTH",
"184 626 OFFCURVE",
"215 654 OFFCURVE",
"271 654 CURVE SMOOTH",
"322 654 OFFCURVE",
"362 650 OFFCURVE",
"389 643 CURVE",
"407 716 LINE",
"380 724 OFFCURVE",
"323 730 OFFCURVE",
"270 730 CURVE SMOOTH",
"173 730 OFFCURVE",
"98 667 OFFCURVE",
"98 575 CURVE SMOOTH",
"98 483 OFFCURVE",
"138 446 OFFCURVE",
"213 417 CURVE SMOOTH",
"240 406 OFFCURVE",
"260 393 OFFCURVE",
"271 375 CURVE",
"197 362 OFFCURVE",
"115 349 OFFCURVE",
"25 336 CURVE",
"41 254 LINE",
"104 265 OFFCURVE",
"184 282 OFFCURVE",
"280 304 CURVE",
"273 237 OFFCURVE",
"235 114 OFFCURVE",
"188 7 CURVE",
"259 -16 LINE"
);
}
);
width = 562;
}
);
note = g86;
},
{
glyphname = u10A2410A01;
lastChange = "2017-09-08 13:56:04 +0000";
layers = (
{
layerId = UUID0;
paths = (
{
closed = 1;
nodes = (
"130 75 OFFCURVE",
"179 271 OFFCURVE",
"236 463 CURVE",
"266 458 OFFCURVE",
"292 451 OFFCURVE",
"314 442 CURVE",
"290 357 OFFCURVE",
"269 289 OFFCURVE",
"251 239 CURVE",
"333 229 LINE",
"349 288 OFFCURVE",
"363 348 OFFCURVE",
"377 409 CURVE",
"416 379 OFFCURVE",
"435 340 OFFCURVE",
"435 291 CURVE SMOOTH",
"435 254 OFFCURVE",
"419 219 OFFCURVE",
"386 184 CURVE",
"449 132 LINE",
"497 180 OFFCURVE",
"521 235 OFFCURVE",
"521 298 CURVE SMOOTH",
"521 386 OFFCURVE",
"479 452 OFFCURVE",
"396 494 CURVE",
"417 597 OFFCURVE",
"433 681 OFFCURVE",
"441 748 CURVE",
"391 757 LINE",
"380 692 OFFCURVE",
"361 612 OFFCURVE",
"335 517 CURVE",
"312 523 OFFCURVE",
"286 529 OFFCURVE",
"257 534 CURVE",
"280 610 OFFCURVE",
"300 666 OFFCURVE",
"315 702 CURVE",
"234 724 LINE",
"173 572 OFFCURVE",
"59 169 OFFCURVE",
"33 -8 CURVE",
"118 -15 LINE"
);
}
);
width = 565;
}
);
note = g87;
},
{
glyphname = u10A2510A01;
lastChange = "2017-09-08 13:56:04 +0000";
layers = (
{
layerId = UUID0;
paths = (
{
closed = 1;
nodes = (
"218 89 OFFCURVE",
"271 303 OFFCURVE",
"320 463 CURVE",
"353 458 OFFCURVE",
"382 450 OFFCURVE",
"407 441 CURVE",
"383 359 OFFCURVE",
"362 292 OFFCURVE",
"344 239 CURVE",
"426 229 LINE",
"442 290 OFFCURVE",
"457 349 OFFCURVE",
"470 406 CURVE",
"505 376 OFFCURVE",
"523 338 OFFCURVE",
"523 291 CURVE SMOOTH",
"523 254 OFFCURVE",
"507 219 OFFCURVE",
"474 184 CURVE",
"537 132 LINE",
"585 180 OFFCURVE",
"609 235 OFFCURVE",
"609 298 CURVE SMOOTH",
"609 386 OFFCURVE",
"569 451 OFFCURVE",
"489 493 CURVE",
"510 595 OFFCURVE",
"525 680 OFFCURVE",
"534 748 CURVE",
"484 757 LINE",
"473 692 OFFCURVE",
"454 612 OFFCURVE",
"428 517 CURVE",
"404 524 OFFCURVE",
"375 530 OFFCURVE",
"341 535 CURVE",
"364 608 OFFCURVE",
"383 664 OFFCURVE",
"399 702 CURVE",
"318 724 LINE",
"301 685 OFFCURVE",
"280 623 OFFCURVE",
"254 538 CURVE",
"174 533 OFFCURVE",
"112 521 OFFCURVE",
"66 502 CURVE",
"84 433 LINE",
"127 448 OFFCURVE",
"177 458 OFFCURVE",
"231 462 CURVE",
"169 254 OFFCURVE",
"131 98 OFFCURVE",
"117 -8 CURVE",
"202 -15 LINE"
);
}
);
width = 653;
}
);
note = g88;
},
{
glyphname = u10A2610A01;
lastChange = "2017-09-08 13:56:04 +0000";
layers = (
{
layerId = UUID0;
paths = (
{
closed = 1;
nodes = (
"524 225 OFFCURVE",
"582 409 OFFCURVE",
"582 556 CURVE SMOOTH",
"582 657 OFFCURVE",
"542 700 OFFCURVE",
"457 700 CURVE SMOOTH",
"372 700 OFFCURVE",
"334 666 OFFCURVE",
"311 582 CURVE SMOOTH",
"301 547 OFFCURVE",
"288 525 OFFCURVE",
"271 517 CURVE",
"308 643 OFFCURVE",
"331 734 OFFCURVE",
"341 790 CURVE",
"292 806 LINE",
"283 759 OFFCURVE",
"255 668 OFFCURVE",
"210 533 CURVE",
"204 544 OFFCURVE",
"201 565 OFFCURVE",
"201 594 CURVE SMOOTH",
"201 628 OFFCURVE",
"209 666 OFFCURVE",
"226 708 CURVE",
"147 729 LINE",
"127 689 OFFCURVE",
"117 645 OFFCURVE",
"117 596 CURVE SMOOTH",
"117 521 OFFCURVE",
"138 472 OFFCURVE",
"180 449 CURVE",
"130 306 OFFCURVE",
"83 184 OFFCURVE",
"39 83 CURVE",
"113 48 LINE",
"148 128 OFFCURVE",
"192 257 OFFCURVE",
"247 433 CURVE",
"317 433 OFFCURVE",
"363 467 OFFCURVE",
"390 551 CURVE SMOOTH",
"410 612 OFFCURVE",
"423 620 OFFCURVE",
"454 620 CURVE SMOOTH",
"480 620 OFFCURVE",
"496 595 OFFCURVE",
"496 556 CURVE SMOOTH",
"496 410 OFFCURVE",
"439 231 OFFCURVE",
"335 20 CURVE",
"404 -15 LINE"
);
}
);
width = 647;
}
);
note = g89;
},
{
glyphname = u10A2710A01;
lastChange = "2017-09-08 13:56:04 +0000";
layers = (
{
layerId = UUID0;
paths = (
{
closed = 1;
nodes = (
"311 88 OFFCURVE",
"359 281 OFFCURVE",
"417 463 CURVE",
"553 439 OFFCURVE",
"616 382 OFFCURVE",
"616 291 CURVE SMOOTH",
"616 256 OFFCURVE",
"604 220 OFFCURVE",
"571 165 CURVE",
"642 133 LINE",
"679 184 OFFCURVE",
"702 235 OFFCURVE",
"702 298 CURVE SMOOTH",
"702 427 OFFCURVE",
"613 508 OFFCURVE",
"439 534 CURVE",
"452 574 OFFCURVE",
"463 608 OFFCURVE",
"474 635 CURVE",
"662 635 LINE",
"676 709 LINE",
"324 709 LINE",
"341 790 LINE",
"292 806 LINE",
"287 781 OFFCURVE",
"279 749 OFFCURVE",
"267 709 CURVE",
"183 709 LINE",
"169 635 LINE",
"244 635 LINE",
"177 429 OFFCURVE",
"82 177 OFFCURVE",
"39 83 CURVE",
"113 48 LINE",
"167 171 OFFCURVE",
"254 446 OFFCURVE",
"305 635 CURVE",
"385 635 LINE",
"316 443 OFFCURVE",
"230 136 OFFCURVE",
"210 -8 CURVE",
"295 -15 LINE"
);
}
);
width = 769;
}
);
note = g90;
},
{
glyphname = u10A2810A01;
lastChange = "2017-09-08 13:56:04 +0000";
layers = (
{
layerId = UUID0;
paths = (
{
closed = 1;
nodes = (
"346 186 OFFCURVE",
"357 229 OFFCURVE",
"371 286 CURVE",
"379 286 OFFCURVE",
"386 285 OFFCURVE",
"394 285 CURVE SMOOTH",
"547 285 OFFCURVE",
"678 369 OFFCURVE",
"678 511 CURVE SMOOTH",
"678 568 OFFCURVE",
"655 620 OFFCURVE",
"608 667 CURVE",
"545 615 LINE",
"578 581 OFFCURVE",
"594 544 OFFCURVE",
"594 508 CURVE SMOOTH",
"594 416 OFFCURVE",
"525 359 OFFCURVE",
"407 359 CURVE SMOOTH",
"387 359 LINE",
"417 501 OFFCURVE",
"439 619 OFFCURVE",
"451 711 CURVE",
"399 720 LINE",
"384 636 OFFCURVE",
"345 477 OFFCURVE",
"316 371 CURVE",
"240 393 OFFCURVE",
"192 448 OFFCURVE",
"192 533 CURVE SMOOTH",
"192 580 OFFCURVE",
"215 648 OFFCURVE",
"247 699 CURVE",
"176 731 LINE",
"136 676 OFFCURVE",
"106 584 OFFCURVE",
"106 526 CURVE SMOOTH",
"106 410 OFFCURVE",
"173 327 OFFCURVE",
"294 296 CURVE",
"288 276 OFFCURVE",
"281 251 OFFCURVE",
"275 231 CURVE SMOOTH",
"267 206 OFFCURVE",
"260 184 OFFCURVE",
"254 166 CURVE",
"338 155 LINE"
);
}
);
width = 696;
}
);
note = g91;
},
{
glyphname = u10A2910A01;
lastChange = "2017-09-08 13:56:04 +0000";
layers = (
{
layerId = UUID0;
paths = (
{
closed = 1;
nodes = (
"123 104 OFFCURVE",
"251 353 OFFCURVE",
"329 540 CURVE",
"339 488 LINE",
"279 318 OFFCURVE",
"228 184 OFFCURVE",
"184 83 CURVE",
"257 48 LINE",
"287 115 OFFCURVE",
"324 219 OFFCURVE",
"369 360 CURVE",
"402 229 OFFCURVE",
"455 81 OFFCURVE",
"506 -17 CURVE",
"585 19 LINE",
"524 135 OFFCURVE",
"455 341 OFFCURVE",
"418 522 CURVE",
"453 647 OFFCURVE",
"476 736 OFFCURVE",
"485 790 CURVE",
"437 806 LINE",
"430 771 OFFCURVE",
"416 721 OFFCURVE",
"395 655 CURVE",
"392 674 OFFCURVE",
"390 696 OFFCURVE",
"388 720 CURVE",
"307 714 LINE",
"281 579 OFFCURVE",
"68 157 OFFCURVE",
"-24 16 CURVE",
"47 -17 LINE"
);
}
);
width = 629;
}
);
note = g92;
},
{
glyphname = u10A2A10A01;
lastChange = "2017-09-08 13:56:04 +0000";
layers = (
{
layerId = UUID0;
paths = (
{
closed = 1;
nodes = (
"417 137 OFFCURVE",
"513 347 OFFCURVE",
"513 441 CURVE SMOOTH",
"513 531 OFFCURVE",
"458 569 OFFCURVE",
"329 569 CURVE",
"356 672 OFFCURVE",
"375 746 OFFCURVE",
"383 790 CURVE",
"334 806 LINE",
"325 760 OFFCURVE",
"302 682 OFFCURVE",
"264 570 CURVE",
"208 573 OFFCURVE",
"178 574 OFFCURVE",
"178 611 CURVE SMOOTH",
"178 631 OFFCURVE",
"185 664 OFFCURVE",
"197 707 CURVE",
"117 720 LINE",
"107 689 OFFCURVE",
"99 637 OFFCURVE",
"99 596 CURVE SMOOTH",
"99 541 OFFCURVE",
"113 518 OFFCURVE",
"151 505 CURVE SMOOTH",
"170 499 OFFCURVE",
"199 494 OFFCURVE",
"238 493 CURVE",
"182 331 OFFCURVE",
"129 195 OFFCURVE",
"81 83 CURVE",
"155 48 LINE",
"196 142 OFFCURVE",
"246 290 OFFCURVE",
"306 491 CURVE",
"321 491 LINE SMOOTH",
"398 491 OFFCURVE",
"427 478 OFFCURVE",
"427 437 CURVE SMOOTH",
"427 352 OFFCURVE",
"339 162 OFFCURVE",
"242 20 CURVE",
"315 -17 LINE"
);
}
);
width = 557;
}
);
note = g93;
},
{
glyphname = u10A2B10A01;
lastChange = "2017-09-08 13:56:04 +0000";
layers = (
{
layerId = UUID0;
paths = (
{
closed = 1;
nodes = (
"329 144 OFFCURVE",
"442 553 OFFCURVE",
"504 702 CURVE",
"423 724 LINE",
"404 678 OFFCURVE",
"383 616 OFFCURVE",
"359 538 CURVE",
"262 535 LINE",
"277 611 OFFCURVE",
"290 682 OFFCURVE",
"298 748 CURVE",
"248 757 LINE",
"238 701 OFFCURVE",
"221 625 OFFCURVE",
"195 529 CURVE",
"144 523 OFFCURVE",
"103 514 OFFCURVE",
"73 502 CURVE",
"91 433 LINE",
"112 441 OFFCURVE",
"140 447 OFFCURVE",
"174 453 CURVE",
"155 386 OFFCURVE",
"133 314 OFFCURVE",
"108 239 CURVE",
"190 229 LINE",
"211 307 OFFCURVE",
"230 384 OFFCURVE",
"246 460 CURVE",
"272 462 OFFCURVE",
"302 464 OFFCURVE",
"337 465 CURVE",
"288 303 OFFCURVE",
"237 104 OFFCURVE",
"222 -8 CURVE",
"307 -15 LINE"
);
}
);
width = 533;
}
);
note = g94;
},
{
glyphname = u10A2C10A01;
lastChange = "2017-09-08 13:56:04 +0000";
layers = (
{
layerId = UUID0;
paths = (
{
closed = 1;
nodes = (
"404 122 OFFCURVE",
"530 382 OFFCURVE",
"530 535 CURVE SMOOTH",
"530 646 OFFCURVE",
"470 708 OFFCURVE",
"361 712 CURVE",
"378 790 LINE",
"329 806 LINE",
"324 779 OFFCURVE",
"316 748 OFFCURVE",
"305 711 CURVE",
"234 705 OFFCURVE",
"166 690 OFFCURVE",
"99 666 CURVE",
"117 597 LINE",
"171 615 OFFCURVE",
"226 627 OFFCURVE",
"280 632 CURVE",
"222 454 OFFCURVE",
"133 216 OFFCURVE",
"76 83 CURVE",
"150 48 LINE",
"205 171 OFFCURVE",
"291 446 OFFCURVE",
"342 635 CURVE",
"405 632 OFFCURVE",
"444 590 OFFCURVE",
"444 531 CURVE SMOOTH",
"444 382 OFFCURVE",
"336 159 OFFCURVE",
"236 26 CURVE",
"305 -17 LINE"
);
}
);
width = 574;
}
);
note = g95;
},
{
glyphname = u10A2D10A01;
lastChange = "2017-09-08 13:56:04 +0000";
layers = (
{
layerId = UUID0;
paths = (
{
closed = 1;
nodes = (
"614 134 OFFCURVE",
"690 384 OFFCURVE",
"690 535 CURVE SMOOTH",
"690 643 OFFCURVE",
"633 706 OFFCURVE",
"527 712 CURVE",
"544 790 LINE",
"495 806 LINE",
"491 782 OFFCURVE",
"482 750 OFFCURVE",
"471 711 CURVE",
"396 708 OFFCURVE",
"295 691 OFFCURVE",
"220 667 CURVE",
"199 536 OFFCURVE",
"91 118 OFFCURVE",
"44 8 CURVE",
"123 -13 LINE",
"169 93 OFFCURVE",
"256 410 OFFCURVE",
"296 613 CURVE",
"341 623 OFFCURVE",
"391 629 OFFCURVE",
"446 633 CURVE",
"391 461 OFFCURVE",
"305 229 OFFCURVE",
"242 83 CURVE",
"316 48 LINE",
"363 153 OFFCURVE",
"447 410 OFFCURVE",
"507 634 CURVE",
"566 631 OFFCURVE",
"604 589 OFFCURVE",
"604 531 CURVE SMOOTH",
"604 386 OFFCURVE",
"534 149 OFFCURVE",
"468 5 CURVE",
"547 -16 LINE"
);
}
);
width = 741;
}
);
note = g96;
},
{
glyphname = u10A2E10A01;
lastChange = "2017-09-08 13:56:04 +0000";
layers = (
{
layerId = UUID0;
paths = (
{
closed = 1;
nodes = (
"315 44 OFFCURVE",
"403 399 OFFCURVE",
"444 628 CURVE",
"527 606 OFFCURVE",
"574 547 OFFCURVE",
"574 465 CURVE SMOOTH",
"574 404 OFFCURVE",
"542 331 OFFCURVE",
"497 285 CURVE",
"559 238 LINE",
"612 283 OFFCURVE",
"660 387 OFFCURVE",
"660 472 CURVE SMOOTH",
"660 629 OFFCURVE",
"536 713 OFFCURVE",
"372 713 CURVE SMOOTH",
"352 713 OFFCURVE",
"333 711 OFFCURVE",
"314 708 CURVE",
"323 772 LINE",
"273 781 LINE",
"256 695 LINE",
"152 662 OFFCURVE",
"88 585 OFFCURVE",
"88 487 CURVE SMOOTH",
"88 430 OFFCURVE",
"111 378 OFFCURVE",
"157 333 CURVE",
"134 263 LINE",
"215 253 LINE",
"245 362 OFFCURVE",
"274 489 OFFCURVE",
"301 634 CURVE",
"321 637 OFFCURVE",
"341 639 OFFCURVE",
"359 639 CURVE",
"321 418 OFFCURVE",
"243 95 OFFCURVE",
"119 44 CURVE",
"152 -22 LINE"
);
},
{
closed = 1;
nodes = (
"177 450 OFFCURVE",
"172 470 OFFCURVE",
"172 490 CURVE SMOOTH",
"172 543 OFFCURVE",
"193 583 OFFCURVE",
"235 609 CURVE",
"220 551 OFFCURVE",
"204 492 OFFCURVE",
"187 431 CURVE"
);
}
);
width = 704;
}
);
note = g97;
},
{
glyphname = u10A2F10A01;
lastChange = "2017-09-08 13:56:04 +0000";
layers = (
{
layerId = UUID0;
paths = (
{
closed = 1;
nodes = (
"285 35 OFFCURVE",
"359 152 OFFCURVE",
"389 289 CURVE",
"404 288 OFFCURVE",
"420 287 OFFCURVE",
"438 287 CURVE SMOOTH",
"555 287 OFFCURVE",
"662 359 OFFCURVE",
"662 479 CURVE SMOOTH",
"662 597 OFFCURVE",
"583 625 OFFCURVE",
"442 643 CURVE SMOOTH",
"379 651 OFFCURVE",
"338 667 OFFCURVE",
"319 691 CURVE",
"329 728 OFFCURVE",
"335 761 OFFCURVE",
"341 790 CURVE",
"292 806 LINE",
"289 788 OFFCURVE",
"280 755 OFFCURVE",
"267 708 CURVE",
"236 697 LINE",
"239 680 OFFCURVE",
"244 666 OFFCURVE",
"250 655 CURVE",
"188 463 OFFCURVE",
"94 207 OFFCURVE",
"39 83 CURVE",
"113 48 LINE",
"168 176 OFFCURVE",
"250 433 OFFCURVE",
"297 607 CURVE",
"326 591 OFFCURVE",
"370 580 OFFCURVE",
"433 572 CURVE SMOOTH",
"544 558 OFFCURVE",
"576 532 OFFCURVE",
"576 477 CURVE SMOOTH",
"576 405 OFFCURVE",
"521 358 OFFCURVE",
"440 358 CURVE SMOOTH",
"428 358 OFFCURVE",
"419 358 OFFCURVE",
"403 359 CURVE",
"403 404 OFFCURVE",
"393 446 OFFCURVE",
"381 462 CURVE",
"314 446 LINE",
"320 428 OFFCURVE",
"323 404 OFFCURVE",
"323 373 CURVE SMOOTH",
"323 246 OFFCURVE",
"252 110 OFFCURVE",
"146 44 CURVE",
"184 -22 LINE"
);
}
);
width = 706;
}
);
note = g98;
},
{
glyphname = u10A3010A01;
lastChange = "2017-09-08 13:56:04 +0000";
layers = (
{
layerId = UUID0;
paths = (
{
closed = 1;
nodes = (
"417 144 OFFCURVE",
"530 561 OFFCURVE",
"589 702 CURVE",
"508 724 LINE",
"481 659 OFFCURVE",
"448 556 OFFCURVE",
"407 415 CURVE",
"347 415 LINE",
"401 592 OFFCURVE",
"434 717 OFFCURVE",
"446 790 CURVE",
"397 806 LINE",
"387 749 OFFCURVE",
"337 590 OFFCURVE",
"274 417 CURVE",
"253 418 OFFCURVE",
"235 420 OFFCURVE",
"222 422 CURVE",
"253 465 OFFCURVE",
"269 515 OFFCURVE",
"269 572 CURVE SMOOTH",
"269 635 OFFCURVE",
"246 683 OFFCURVE",
"187 725 CURVE",
"134 669 LINE",
"175 630 OFFCURVE",
"189 603 OFFCURVE",
"189 559 CURVE SMOOTH",
"189 504 OFFCURVE",
"168 452 OFFCURVE",
"99 377 CURVE",
"136 362 OFFCURVE",
"176 354 OFFCURVE",
"249 348 CURVE",
"205 228 OFFCURVE",
"170 140 OFFCURVE",
"145 83 CURVE",
"218 48 LINE",
"247 114 OFFCURVE",
"282 212 OFFCURVE",
"324 344 CURVE",
"387 342 LINE",
"345 190 OFFCURVE",
"318 74 OFFCURVE",
"307 -8 CURVE",
"392 -15 LINE"
);
}
);
width = 611;
}
);
note = g99;
},
{
glyphname = u10A3110A01;
lastChange = "2017-09-08 13:56:04 +0000";
layers = (
{
layerId = UUID0;
paths = (
{
closed = 1;
nodes = (
"328 -15 OFFCURVE",
"397 0 OFFCURVE",
"442 21 CURVE",
"417 92 LINE",
"364 68 OFFCURVE",
"316 56 OFFCURVE",
"274 56 CURVE SMOOTH",
"231 56 OFFCURVE",
"209 74 OFFCURVE",
"209 117 CURVE SMOOTH",
"209 183 OFFCURVE",
"278 242 OFFCURVE",
"354 298 CURVE",
"429 316 OFFCURVE",
"508 336 OFFCURVE",
"590 358 CURVE",
"576 414 LINE",
"459 389 LINE",
"506 440 OFFCURVE",
"527 487 OFFCURVE",
"527 544 CURVE SMOOTH",
"527 657 OFFCURVE",
"434 715 OFFCURVE",
"305 715 CURVE SMOOTH",
"189 715 OFFCURVE",
"99 645 OFFCURVE",
"99 535 CURVE SMOOTH",
"99 478 OFFCURVE",
"123 425 OFFCURVE",
"169 379 CURVE",
"232 431 LINE",
"199 466 OFFCURVE",
"183 501 OFFCURVE",
"183 538 CURVE SMOOTH",
"183 600 OFFCURVE",
"232 641 OFFCURVE",
"305 641 CURVE SMOOTH",
"390 641 OFFCURVE",
"441 599 OFFCURVE",
"441 531 CURVE SMOOTH",
"441 471 OFFCURVE",
"425 445 OFFCURVE",
"323 364 CURVE",
"228 347 OFFCURVE",
"135 333 OFFCURVE",
"44 319 CURVE",
"58 237 LINE",
"98 243 OFFCURVE",
"148 252 OFFCURVE",
"208 266 CURVE",
"153 210 OFFCURVE",
"125 161 OFFCURVE",
"125 118 CURVE SMOOTH",
"125 29 OFFCURVE",
"173 -15 OFFCURVE",
"269 -15 CURVE SMOOTH"
);
}
);
width = 600;
}
);
note = g100;
},
{
glyphname = u10A3210A01;
lastChange = "2017-09-08 13:56:04 +0000";
layers = (
{
layerId = UUID0;
paths = (
{
closed = 1;
nodes = (
"428 107 OFFCURVE",
"469 215 OFFCURVE",
"492 307 CURVE",
"603 280 OFFCURVE",
"654 226 OFFCURVE",
"654 143 CURVE SMOOTH",
"654 106 OFFCURVE",
"638 71 OFFCURVE",
"605 36 CURVE",
"668 -16 LINE",
"716 33 OFFCURVE",
"740 88 OFFCURVE",
"740 150 CURVE SMOOTH",
"740 269 OFFCURVE",
"665 347 OFFCURVE",
"514 379 CURVE",
"537 463 OFFCURVE",
"589 601 OFFCURVE",
"630 692 CURVE",
"551 713 LINE",
"532 670 OFFCURVE",
"515 628 OFFCURVE",
"500 587 CURVE",
"477 652 OFFCURVE",
"433 692 OFFCURVE",
"368 708 CURVE",
"375 740 OFFCURVE",
"381 768 OFFCURVE",
"385 790 CURVE",
"336 806 LINE",
"331 780 OFFCURVE",
"323 750 OFFCURVE",
"313 715 CURVE",
"304 716 OFFCURVE",
"300 716 OFFCURVE",
"294 716 CURVE SMOOTH",
"178 716 OFFCURVE",
"88 646 OFFCURVE",
"88 536 CURVE SMOOTH",
"88 479 OFFCURVE",
"111 427 OFFCURVE",
"158 380 CURVE",
"218 429 LINE",
"165 281 OFFCURVE",
"120 166 OFFCURVE",
"83 83 CURVE",
"157 48 LINE",
"204 153 OFFCURVE",
"292 422 OFFCURVE",
"349 633 CURVE",
"403 612 OFFCURVE",
"430 560 OFFCURVE",
"430 474 CURVE SMOOTH",
"430 335 OFFCURVE",
"357 140 OFFCURVE",
"288 6 CURVE",
"368 -16 LINE"
);
},
{
closed = 1;
nodes = (
"188 468 OFFCURVE",
"172 503 OFFCURVE",
"172 539 CURVE SMOOTH",
"172 600 OFFCURVE",
"220 641 OFFCURVE",
"291 642 CURVE",
"263 557 OFFCURVE",
"239 488 OFFCURVE",
"219 434 CURVE"
);
}
);
width = 806;
}
);
note = g101;
},
{
glyphname = u10A3310A01;
lastChange = "2017-09-08 13:56:04 +0000";
layers = (
{
layerId = UUID0;
paths = (
{
closed = 1;
nodes = (
"487 125 OFFCURVE",
"553 328 OFFCURVE",
"553 416 CURVE SMOOTH",
"553 514 OFFCURVE",
"502 560 OFFCURVE",
"398 563 CURVE",
"425 660 OFFCURVE",
"444 735 OFFCURVE",
"454 790 CURVE",
"405 806 LINE",
"396 762 OFFCURVE",
"372 680 OFFCURVE",
"332 561 CURVE",
"302 558 OFFCURVE",
"267 549 OFFCURVE",
"226 536 CURVE",
"244 466 LINE",
"264 473 OFFCURVE",
"284 479 OFFCURVE",
"305 481 CURVE",
"283 419 OFFCURVE",
"259 354 OFFCURVE",
"232 284 CURVE",
"176 289 OFFCURVE",
"152 312 OFFCURVE",
"152 357 CURVE SMOOTH",
"152 429 OFFCURVE",
"192 563 OFFCURVE",
"255 710 CURVE",
"176 731 LINE",
"103 560 OFFCURVE",
"66 434 OFFCURVE",
"66 353 CURVE SMOOTH",
"66 263 OFFCURVE",
"108 217 OFFCURVE",
"203 207 CURVE",
"188 168 OFFCURVE",
"171 127 OFFCURVE",
"152 83 CURVE",
"226 48 LINE",
"241 83 OFFCURVE",
"261 135 OFFCURVE",
"286 206 CURVE",
"330 209 OFFCURVE",
"378 218 OFFCURVE",
"429 234 CURVE",
"400 140 OFFCURVE",
"372 64 OFFCURVE",
"346 5 CURVE",
"425 -16 LINE"
);
},
{
closed = 1;
nodes = (
"335 355 OFFCURVE",
"356 422 OFFCURVE",
"375 486 CURVE",
"440 484 OFFCURVE",
"467 460 OFFCURVE",
"467 412 CURVE SMOOTH",
"467 390 OFFCURVE",
"462 358 OFFCURVE",
"452 317 CURVE",
"389 297 OFFCURVE",
"357 289 OFFCURVE",
"313 285 CURVE"
);
}
);
width = 619;
}
);
note = g102;
},
{
glyphname = u10A0010A01;
lastChange = "2017-09-08 13:56:04 +0000";
layers = (
{
layerId = UUID0;
paths = (
{
closed = 1;
nodes = (
"431 114 OFFCURVE",
"474 229 OFFCURVE",
"497 327 CURVE",
"567 344 OFFCURVE",
"626 359 OFFCURVE",
"672 372 CURVE",
"659 428 LINE",
"617 418 OFFCURVE",
"568 408 OFFCURVE",
"510 397 CURVE",
"514 427 OFFCURVE",
"516 454 OFFCURVE",
"516 478 CURVE SMOOTH",
"516 638 OFFCURVE",
"438 716 OFFCURVE",
"294 716 CURVE SMOOTH",
"178 716 OFFCURVE",
"88 646 OFFCURVE",
"88 536 CURVE SMOOTH",
"88 479 OFFCURVE",
"111 427 OFFCURVE",
"158 380 CURVE",
"221 432 LINE",
"188 467 OFFCURVE",
"172 502 OFFCURVE",
"172 539 CURVE SMOOTH",
"172 601 OFFCURVE",
"221 642 OFFCURVE",
"294 642 CURVE SMOOTH",
"384 642 OFFCURVE",
"430 584 OFFCURVE",
"430 474 CURVE SMOOTH",
"430 449 OFFCURVE",
"427 417 OFFCURVE",
"421 381 CURVE",
"313 361 OFFCURVE",
"214 345 OFFCURVE",
"127 333 CURVE",
"140 251 LINE",
"186 258 OFFCURVE",
"274 276 OFFCURVE",
"404 305 CURVE",
"381 220 OFFCURVE",
"339 107 OFFCURVE",
"288 6 CURVE",
"368 -16 LINE"
);
}
);
width = 682;
}
);
note = g103;
},
{
glyphname = u10A2810A02;
lastChange = "2017-09-08 13:56:04 +0000";
layers = (
{
layerId = UUID0;
paths = (
{
closed = 1;
nodes = (
"215 -15 OFFCURVE",
"250 -11 OFFCURVE",
"287 -2 CURVE",
"269 69 LINE",
"239 61 OFFCURVE",
"212 56 OFFCURVE",
"188 56 CURVE SMOOTH",
"146 56 OFFCURVE",
"123 74 OFFCURVE",
"123 104 CURVE SMOOTH",
"123 140 OFFCURVE",
"169 178 OFFCURVE",
"214 211 CURVE SMOOTH",
"364 321 OFFCURVE",
"412 403 OFFCURVE",
"412 509 CURVE SMOOTH",
"412 592 OFFCURVE",
"386 664 OFFCURVE",
"335 732 CURVE",
"269 698 LINE",
"312 627 OFFCURVE",
"328 581 OFFCURVE",
"328 496 CURVE SMOOTH",
"328 408 OFFCURVE",
"275 353 OFFCURVE",
"184 283 CURVE SMOOTH",
"99 218 OFFCURVE",
"39 171 OFFCURVE",
"39 98 CURVE SMOOTH",
"39 23 OFFCURVE",
"89 -15 OFFCURVE",
"183 -15 CURVE SMOOTH"
);
}
);
width = 461;
}
);
note = g104;
},
{
glyphname = u10A0010A05;
lastChange = "2017-09-08 13:56:04 +0000";
layers = (
{
layerId = UUID0;
paths = (
{
closed = 1;
nodes = (
"428 108 OFFCURVE",
"470 219 OFFCURVE",
"494 316 CURVE",
"769 316 LINE",
"783 390 LINE",
"509 390 LINE",
"514 420 OFFCURVE",
"516 449 OFFCURVE",
"516 478 CURVE SMOOTH",
"516 638 OFFCURVE",
"438 716 OFFCURVE",
"294 716 CURVE SMOOTH",
"178 716 OFFCURVE",
"88 646 OFFCURVE",
"88 536 CURVE SMOOTH",
"88 479 OFFCURVE",
"111 427 OFFCURVE",
"158 380 CURVE",
"221 432 LINE",
"188 467 OFFCURVE",
"172 502 OFFCURVE",
"172 539 CURVE SMOOTH",
"172 601 OFFCURVE",
"221 642 OFFCURVE",
"294 642 CURVE SMOOTH",
"384 642 OFFCURVE",
"430 584 OFFCURVE",
"430 474 CURVE SMOOTH",
"430 335 OFFCURVE",
"358 140 OFFCURVE",
"288 6 CURVE",
"368 -16 LINE"
);
}
);
width = 802;
}
);
note = g105;
},
{
glyphname = u10A2310A05;
lastChange = "2017-09-08 13:56:04 +0000";
layers = (
{
layerId = UUID0;
paths = (
{
closed = 1;
nodes = (
"316 96 OFFCURVE",
"357 228 OFFCURVE",
"365 316 CURVE",
"637 316 LINE",
"651 390 LINE",
"362 390 LINE",
"353 435 OFFCURVE",
"330 462 OFFCURVE",
"264 488 CURVE SMOOTH",
"216 507 OFFCURVE",
"184 525 OFFCURVE",
"184 575 CURVE SMOOTH",
"184 626 OFFCURVE",
"215 654 OFFCURVE",
"271 654 CURVE SMOOTH",
"322 654 OFFCURVE",
"362 650 OFFCURVE",
"389 643 CURVE",
"407 716 LINE",
"380 724 OFFCURVE",
"323 730 OFFCURVE",
"270 730 CURVE SMOOTH",
"172 730 OFFCURVE",
"98 666 OFFCURVE",
"98 575 CURVE SMOOTH",
"98 486 OFFCURVE",
"135 449 OFFCURVE",
"209 419 CURVE SMOOTH",
"256 400 OFFCURVE",
"282 382 OFFCURVE",
"282 329 CURVE SMOOTH",
"282 264 OFFCURVE",
"241 127 OFFCURVE",
"188 7 CURVE",
"259 -16 LINE"
);
}
);
width = 670;
}
);
note = g106;
},
{
glyphname = u10A3110A05;
lastChange = "2017-09-08 13:56:04 +0000";
layers = (
{
layerId = UUID0;
paths = (
{
closed = 1;
nodes = (
"328 -15 OFFCURVE",
"397 0 OFFCURVE",
"442 21 CURVE",
"417 92 LINE",
"364 68 OFFCURVE",
"316 56 OFFCURVE",
"274 56 CURVE SMOOTH",
"231 56 OFFCURVE",
"209 74 OFFCURVE",
"209 117 CURVE SMOOTH",
"209 172 OFFCURVE",
"252 223 OFFCURVE",
"376 316 CURVE",
"671 316 LINE",
"685 390 LINE",
"459 390 LINE",
"506 440 OFFCURVE",
"527 487 OFFCURVE",
"527 543 CURVE SMOOTH",
"527 656 OFFCURVE",
"434 715 OFFCURVE",
"305 715 CURVE SMOOTH",
"189 715 OFFCURVE",
"99 645 OFFCURVE",
"99 535 CURVE SMOOTH",
"99 478 OFFCURVE",
"123 425 OFFCURVE",
"169 379 CURVE",
"232 431 LINE",
"199 466 OFFCURVE",
"183 501 OFFCURVE",
"183 538 CURVE SMOOTH",
"183 600 OFFCURVE",
"232 641 OFFCURVE",
"305 641 CURVE SMOOTH",
"390 641 OFFCURVE",
"441 598 OFFCURVE",
"441 529 CURVE SMOOTH",
"441 456 OFFCURVE",
"396 422 OFFCURVE",
"313 356 CURVE SMOOTH",
"219 282 OFFCURVE",
"125 198 OFFCURVE",
"125 118 CURVE SMOOTH",
"125 29 OFFCURVE",
"173 -15 OFFCURVE",
"269 -15 CURVE SMOOTH"
);
}
);
width = 705;
}
);
note = g107;
},
{
glyphname = u10A2010A05;
lastChange = "2017-09-08 13:56:04 +0000";
layers = (
{
layerId = UUID0;
paths = (
{
closed = 1;
nodes = (
"271 89 OFFCURVE",
"319 281 OFFCURVE",
"374 465 CURVE",
"478 459 OFFCURVE",
"556 447 OFFCURVE",
"609 426 CURVE",
"638 500 LINE",
"590 519 OFFCURVE",
"509 531 OFFCURVE",
"396 537 CURVE",
"419 612 OFFCURVE",
"438 667 OFFCURVE",
"453 702 CURVE",
"372 724 LINE",
"354 683 OFFCURVE",
"333 621 OFFCURVE",
"308 539 CURVE",
"263 539 OFFCURVE",
"222 536 OFFCURVE",
"186 530 CURVE",
"211 649 OFFCURVE",
"226 730 OFFCURVE",
"231 773 CURVE",
"178 781 LINE",
"168 718 OFFCURVE",
"136 600 OFFCURVE",
"107 514 CURVE",
"99 511 OFFCURVE",
"87 507 OFFCURVE",
"73 502 CURVE",
"91 433 LINE",
"146 453 OFFCURVE",
"211 463 OFFCURVE",
"286 465 CURVE",
"231 283 OFFCURVE",
"184 90 OFFCURVE",
"171 -8 CURVE",
"256 -15 LINE"
);
}
);
width = 645;
}
);
note = g108;
},
{
glyphname = u10A2410A05;
lastChange = "2017-09-08 13:56:04 +0000";
layers = (
{
layerId = UUID0;
paths = (
{
closed = 1;
nodes = (
"130 75 OFFCURVE",
"179 271 OFFCURVE",
"236 463 CURVE",
"372 439 OFFCURVE",
"435 382 OFFCURVE",
"435 291 CURVE SMOOTH",
"435 254 OFFCURVE",
"419 219 OFFCURVE",
"386 184 CURVE",
"449 132 LINE",
"497 180 OFFCURVE",
"521 235 OFFCURVE",
"521 298 CURVE SMOOTH",
"521 383 OFFCURVE",
"483 446 OFFCURVE",
"407 488 CURVE",
"435 618 OFFCURVE",
"449 692 OFFCURVE",
"457 750 CURVE",
"403 757 LINE",
"395 705 OFFCURVE",
"365 588 OFFCURVE",
"341 516 CURVE",
"314 524 OFFCURVE",
"286 530 OFFCURVE",
"257 534 CURVE",
"280 610 OFFCURVE",
"300 666 OFFCURVE",
"315 702 CURVE",
"234 724 LINE",
"173 572 OFFCURVE",
"59 169 OFFCURVE",
"33 -8 CURVE",
"118 -15 LINE"
);
}
);
width = 565;
}
);
note = g109;
},
{
glyphname = u10A2510A05;
lastChange = "2017-09-08 13:56:04 +0000";
layers = (
{
layerId = UUID0;
paths = (
{
closed = 1;
nodes = (
"218 89 OFFCURVE",
"271 303 OFFCURVE",
"320 463 CURVE",
"455 441 OFFCURVE",
"523 384 OFFCURVE",
"523 291 CURVE SMOOTH",
"523 254 OFFCURVE",
"507 219 OFFCURVE",
"474 184 CURVE",
"537 132 LINE",
"585 180 OFFCURVE",
"609 235 OFFCURVE",
"609 298 CURVE SMOOTH",
"609 385 OFFCURVE",
"570 449 OFFCURVE",
"492 491 CURVE",
"520 621 OFFCURVE",
"536 707 OFFCURVE",
"541 750 CURVE",
"488 757 LINE",
"478 693 OFFCURVE",
"449 588 OFFCURVE",
"426 517 CURVE",
"396 525 OFFCURVE",
"368 532 OFFCURVE",
"341 535 CURVE",
"364 608 OFFCURVE",
"383 664 OFFCURVE",
"399 702 CURVE",
"318 724 LINE",
"301 685 OFFCURVE",
"280 623 OFFCURVE",
"254 538 CURVE",
"174 533 OFFCURVE",
"112 521 OFFCURVE",
"66 502 CURVE",
"84 433 LINE",
"127 448 OFFCURVE",
"177 458 OFFCURVE",
"231 462 CURVE",
"169 254 OFFCURVE",
"131 98 OFFCURVE",
"117 -8 CURVE",
"202 -15 LINE"
);
}
);
width = 653;
}
);
note = g110;
},
{
glyphname = u10A2B10A05;
lastChange = "2017-09-08 13:56:04 +0000";
layers = (
{
layerId = UUID0;
paths = (
{
closed = 1;
nodes = (
"328 144 OFFCURVE",
"442 553 OFFCURVE",
"504 702 CURVE",
"423 724 LINE",
"404 678 OFFCURVE",
"383 616 OFFCURVE",
"359 538 CURVE",
"287 537 OFFCURVE",
"226 533 OFFCURVE",
"175 526 CURVE",
"203 659 OFFCURVE",
"215 723 OFFCURVE",
"222 775 CURVE",
"168 783 LINE",
"157 715 OFFCURVE",
"125 596 OFFCURVE",
"96 510 CURVE",
"73 502 LINE",
"91 433 LINE",
"152 453 OFFCURVE",
"226 461 OFFCURVE",
"337 465 CURVE",
"288 303 OFFCURVE",
"237 104 OFFCURVE",
"222 -8 CURVE",
"307 -15 LINE"
);
}
);
width = 533;
}
);
note = g111;
},
{
glyphname = u10A2D10A05;
lastChange = "2017-09-08 13:56:04 +0000";
layers = (
{
layerId = UUID0;
paths = (
{
closed = 1;
nodes = (
"614 134 OFFCURVE",
"690 384 OFFCURVE",
"690 535 CURVE SMOOTH",
"690 648 OFFCURVE",
"628 711 OFFCURVE",
"513 713 CURVE",
"529 791 OFFCURVE",
"540 851 OFFCURVE",
"545 896 CURVE",
"492 903 LINE",
"485 860 OFFCURVE",
"469 795 OFFCURVE",
"444 709 CURVE",
"354 701 OFFCURVE",
"279 687 OFFCURVE",
"220 667 CURVE",
"199 536 OFFCURVE",
"91 118 OFFCURVE",
"44 8 CURVE",
"123 -13 LINE",
"169 93 OFFCURVE",
"256 410 OFFCURVE",
"296 613 CURVE",
"362 627 OFFCURVE",
"429 635 OFFCURVE",
"498 635 CURVE SMOOTH",
"563 635 OFFCURVE",
"604 591 OFFCURVE",
"604 531 CURVE SMOOTH",
"604 386 OFFCURVE",
"534 149 OFFCURVE",
"468 5 CURVE",
"547 -16 LINE"
);
}
);
width = 741;
}
);
note = g112;
},
{
glyphname = u10A2110A05;
lastChange = "2017-09-08 13:56:04 +0000";
layers = (
{
layerId = UUID0;
paths = (
{
closed = 1;
nodes = (
"574 -8 OFFCURVE",
"659 80 OFFCURVE",
"735 259 CURVE",
"661 286 LINE",
"594 134 OFFCURVE",
"532 67 OFFCURVE",
"391 67 CURVE SMOOTH",
"250 67 OFFCURVE",
"167 204 OFFCURVE",
"167 367 CURVE SMOOTH",
"167 552 OFFCURVE",
"247 655 OFFCURVE",
"405 655 CURVE SMOOTH",
"464 655 OFFCURVE",
"516 645 OFFCURVE",
"560 625 CURVE",
"590 694 LINE",
"536 718 OFFCURVE",
"474 730 OFFCURVE",
"404 730 CURVE SMOOTH",
"205 730 OFFCURVE",
"83 585 OFFCURVE",
"83 372 CURVE SMOOTH",
"83 156 OFFCURVE",
"190 -8 OFFCURVE",
"392 -8 CURVE SMOOTH"
);
}
);
width = 771;
}
);
note = g113;
},
{
glyphname = u10A2810A05;
lastChange = "2017-09-08 13:56:04 +0000";
layers = (
{
layerId = UUID0;
paths = (
{
closed = 1;
nodes = (
"547 285 OFFCURVE",
"678 369 OFFCURVE",
"678 511 CURVE SMOOTH",
"678 568 OFFCURVE",
"655 620 OFFCURVE",
"608 667 CURVE",
"545 615 LINE",
"578 581 OFFCURVE",
"594 544 OFFCURVE",
"594 508 CURVE SMOOTH",
"594 416 OFFCURVE",
"525 359 OFFCURVE",
"407 359 CURVE SMOOTH",
"400 359 LINE",
"426 479 OFFCURVE",
"442 563 OFFCURVE",
"448 611 CURVE",
"395 619 LINE",
"386 564 OFFCURVE",
"355 447 OFFCURVE",
"329 367 CURVE",
"240 389 OFFCURVE",
"192 449 OFFCURVE",
"192 533 CURVE SMOOTH",
"192 580 OFFCURVE",
"215 648 OFFCURVE",
"247 699 CURVE",
"176 731 LINE",
"136 676 OFFCURVE",
"106 584 OFFCURVE",
"106 526 CURVE SMOOTH",
"106 370 OFFCURVE",
"229 285 OFFCURVE",
"394 285 CURVE SMOOTH"
);
}
);
width = 696;
}
);
note = g114;
},
{
glyphname = u10A2410A06;
lastChange = "2017-09-08 13:56:04 +0000";
layers = (
{
layerId = UUID0;
paths = (
{
closed = 1;
nodes = (
"130 75 OFFCURVE",
"179 271 OFFCURVE",
"236 463 CURVE",
"268 457 OFFCURVE",
"295 450 OFFCURVE",
"319 440 CURVE",
"300 358 OFFCURVE",
"273 257 OFFCURVE",
"238 137 CURVE",
"312 129 LINE",
"335 231 OFFCURVE",
"355 326 OFFCURVE",
"370 414 CURVE",
"414 384 OFFCURVE",
"435 343 OFFCURVE",
"435 291 CURVE SMOOTH",
"435 254 OFFCURVE",
"419 219 OFFCURVE",
"386 184 CURVE",
"449 132 LINE",
"497 180 OFFCURVE",
"521 235 OFFCURVE",
"521 298 CURVE SMOOTH",
"521 425 OFFCURVE",
"432 508 OFFCURVE",
"257 534 CURVE",
"280 610 OFFCURVE",
"300 666 OFFCURVE",
"315 702 CURVE",
"234 724 LINE",
"173 572 OFFCURVE",
"59 169 OFFCURVE",
"33 -8 CURVE",
"118 -15 LINE"
);
}
);
width = 565;
}
);
note = g115;
},
{
glyphname = u10A2510A06;
lastChange = "2017-09-08 13:56:04 +0000";
layers = (
{
layerId = UUID0;
paths = (
{
closed = 1;
nodes = (
"218 89 OFFCURVE",
"271 303 OFFCURVE",
"320 463 CURVE",
"353 458 OFFCURVE",
"382 450 OFFCURVE",
"407 441 CURVE",
"388 357 OFFCURVE",
"361 256 OFFCURVE",
"326 137 CURVE",
"399 129 LINE",
"422 227 OFFCURVE",
"442 322 OFFCURVE",
"458 415 CURVE",
"501 385 OFFCURVE",
"523 343 OFFCURVE",
"523 291 CURVE SMOOTH",
"523 254 OFFCURVE",
"507 219 OFFCURVE",
"474 184 CURVE",
"537 132 LINE",
"585 180 OFFCURVE",
"609 235 OFFCURVE",
"609 298 CURVE SMOOTH",
"609 431 OFFCURVE",
"515 512 OFFCURVE",
"341 535 CURVE",
"364 608 OFFCURVE",
"383 664 OFFCURVE",
"399 702 CURVE",
"318 724 LINE",
"301 685 OFFCURVE",
"280 623 OFFCURVE",
"254 538 CURVE",
"174 533 OFFCURVE",
"112 521 OFFCURVE",
"66 502 CURVE",
"84 433 LINE",
"127 448 OFFCURVE",
"177 458 OFFCURVE",
"231 462 CURVE",
"169 254 OFFCURVE",
"131 98 OFFCURVE",
"117 -8 CURVE",
"202 -15 LINE"
);
}
);
width = 653;
}
);
note = g116;
},
{
glyphname = u10A2910A06;
lastChange = "2017-09-08 13:56:04 +0000";
layers = (
{
layerId = UUID0;
paths = (
{
closed = 1;
nodes = (
"118 96 OFFCURVE",
"234 322 OFFCURVE",
"304 481 CURVE",
"277 353 OFFCURVE",
"248 238 OFFCURVE",
"218 137 CURVE",
"291 129 LINE",
"312 219 OFFCURVE",
"333 318 OFFCURVE",
"352 426 CURVE",
"393 250 OFFCURVE",
"449 92 OFFCURVE",
"506 -17 CURVE",
"585 19 LINE",
"500 181 OFFCURVE",
"401 527 OFFCURVE",
"388 720 CURVE",
"307 714 LINE",
"281 579 OFFCURVE",
"67 157 OFFCURVE",
"-24 16 CURVE",
"47 -17 LINE"
);
}
);
width = 629;
}
);
note = g117;
},
{
glyphname = u10A2D10A06;
lastChange = "2017-09-08 13:56:04 +0000";
layers = (
{
layerId = UUID0;
paths = (
{
closed = 1;
nodes = (
"614 134 OFFCURVE",
"690 384 OFFCURVE",
"690 535 CURVE SMOOTH",
"690 651 OFFCURVE",
"625 713 OFFCURVE",
"509 713 CURVE SMOOTH",
"425 713 OFFCURVE",
"292 692 OFFCURVE",
"220 667 CURVE",
"199 536 OFFCURVE",
"91 118 OFFCURVE",
"44 8 CURVE",
"123 -13 LINE",
"169 93 OFFCURVE",
"256 410 OFFCURVE",
"296 613 CURVE",
"335 622 OFFCURVE",
"383 629 OFFCURVE",
"438 633 CURVE",
"420 542 OFFCURVE",
"368 327 OFFCURVE",
"340 235 CURVE",
"418 227 LINE",
"456 391 OFFCURVE",
"482 527 OFFCURVE",
"498 635 CURVE",
"563 635 OFFCURVE",
"604 591 OFFCURVE",
"604 531 CURVE SMOOTH",
"604 386 OFFCURVE",
"534 149 OFFCURVE",
"468 5 CURVE",
"547 -16 LINE"
);
}
);
width = 741;
}
);
note = g118;
},
{
glyphname = u10A2210A0110A1010A3F;
lastChange = "2017-09-08 13:56:04 +0000";
layers = (
{
layerId = UUID0;
paths = (
{
closed = 1;
nodes = (
"487 127 OFFCURVE",
"554 236 OFFCURVE",
"554 320 CURVE SMOOTH",
"554 404 OFFCURVE",
"499 450 OFFCURVE",
"398 450 CURVE",
"433 483 OFFCURVE",
"454 527 OFFCURVE",
"454 574 CURVE SMOOTH",
"454 646 OFFCURVE",
"420 691 OFFCURVE",
"351 711 CURVE",
"368 790 LINE",
"319 806 LINE",
"316 791 OFFCURVE",
"309 763 OFFCURVE",
"297 721 CURVE",
"280 723 OFFCURVE",
"262 724 OFFCURVE",
"243 724 CURVE SMOOTH",
"216 724 OFFCURVE",
"185 722 OFFCURVE",
"151 717 CURVE",
"162 646 LINE",
"186 650 OFFCURVE",
"211 652 OFFCURVE",
"237 652 CURVE SMOOTH",
"251 652 OFFCURVE",
"264 651 OFFCURVE",
"275 650 CURVE",
"234 521 OFFCURVE",
"186 384 OFFCURVE",
"130 240 CURVE",
"204 218 LINE",
"215 251 OFFCURVE",
"231 299 OFFCURVE",
"252 364 CURVE",
"278 374 OFFCURVE",
"325 381 OFFCURVE",
"354 381 CURVE SMOOTH",
"431 381 OFFCURVE",
"468 365 OFFCURVE",
"468 316 CURVE SMOOTH",
"468 243 OFFCURVE",
"425 172 OFFCURVE",
"309 69 CURVE",
"353 6 LINE"
);
},
{
closed = 1;
nodes = (
"415 -250 OFFCURVE",
"433 -211 OFFCURVE",
"433 -169 CURVE SMOOTH",
"433 -88 OFFCURVE",
"383 -37 OFFCURVE",
"283 -15 CURVE",
"286 4 OFFCURVE",
"287 23 OFFCURVE",
"287 43 CURVE SMOOTH",
"287 150 OFFCURVE",
"237 204 OFFCURVE",
"136 204 CURVE SMOOTH",
"54 204 OFFCURVE",
"-4 152 OFFCURVE",
"-4 80 CURVE SMOOTH",
"-4 42 OFFCURVE",
"13 4 OFFCURVE",
"48 -31 CURVE",
"100 13 LINE",
"77 38 OFFCURVE",
"65 61 OFFCURVE",
"65 82 CURVE SMOOTH",
"65 117 OFFCURVE",
"93 141 OFFCURVE",
"136 141 CURVE SMOOTH",
"190 141 OFFCURVE",
"217 107 OFFCURVE",
"217 41 CURVE SMOOTH",
"217 -32 OFFCURVE",
"182 -142 OFFCURVE",
"121 -268 CURVE",
"188 -285 LINE",
"219 -225 OFFCURVE",
"254 -137 OFFCURVE",
"270 -77 CURVE",
"331 -94 OFFCURVE",
"361 -126 OFFCURVE",
"361 -173 CURVE SMOOTH",
"361 -194 OFFCURVE",
"350 -217 OFFCURVE",
"326 -242 CURVE",
"378 -286 LINE"
);
},
{
closed = 1;
nodes = (
"299 517 OFFCURVE",
"317 579 OFFCURVE",
"331 634 CURVE",
"356 621 OFFCURVE",
"368 600 OFFCURVE",
"368 572 CURVE SMOOTH",
"368 505 OFFCURVE",
"342 469 OFFCURVE",
"278 447 CURVE"
);
}
);
width = 598;
}
);
note = g119;
},
{
glyphname = u10A1010A3F10A2E;
lastChange = "2017-09-08 13:56:04 +0000";
layers = (
{
layerId = UUID0;
paths = (
{
closed = 1;
nodes = (
"337 49 OFFCURVE",
"379 188 OFFCURVE",
"379 321 CURVE SMOOTH",
"379 340 OFFCURVE",
"377 364 OFFCURVE",
"375 394 CURVE",
"504 408 OFFCURVE",
"571 484 OFFCURVE",
"571 613 CURVE SMOOTH",
"571 654 OFFCURVE",
"554 708 OFFCURVE",
"530 733 CURVE",
"459 703 LINE",
"478 675 OFFCURVE",
"487 636 OFFCURVE",
"487 610 CURVE SMOOTH",
"487 514 OFFCURVE",
"433 465 OFFCURVE",
"331 465 CURVE SMOOTH",
"227 465 OFFCURVE",
"174 506 OFFCURVE",
"174 589 CURVE SMOOTH",
"174 624 OFFCURVE",
"192 664 OFFCURVE",
"214 684 CURVE",
"150 730 LINE",
"116 697 OFFCURVE",
"88 633 OFFCURVE",
"88 582 CURVE SMOOTH",
"88 477 OFFCURVE",
"166 403 OFFCURVE",
"291 393 CURVE",
"292 373 OFFCURVE",
"293 349 OFFCURVE",
"293 329 CURVE SMOOTH",
"293 214 OFFCURVE",
"259 73 OFFCURVE",
"213 21 CURVE",
"284 -13 LINE"
);
}
);
width = 649;
}
);
note = g120;
},
{
glyphname = u10A2810A3F10A2A;
lastChange = "2017-09-08 13:56:04 +0000";
layers = (
{
layerId = UUID0;
paths = (
{
closed = 1;
nodes = (
"357 -5 OFFCURVE",
"430 54 OFFCURVE",
"430 147 CURVE SMOOTH",
"430 245 OFFCURVE",
"407 402 OFFCURVE",
"407 506 CURVE SMOOTH",
"407 596 OFFCURVE",
"451 649 OFFCURVE",
"522 649 CURVE SMOOTH",
"568 649 OFFCURVE",
"610 625 OFFCURVE",
"638 575 CURVE",
"702 614 LINE",
"675 677 OFFCURVE",
"600 723 OFFCURVE",
"522 723 CURVE SMOOTH",
"397 723 OFFCURVE",
"321 642 OFFCURVE",
"321 519 CURVE SMOOTH",
"321 367 OFFCURVE",
"346 297 OFFCURVE",
"346 150 CURVE SMOOTH",
"346 102 OFFCURVE",
"306 68 OFFCURVE",
"252 68 CURVE SMOOTH",
"185 68 OFFCURVE",
"145 109 OFFCURVE",
"145 174 CURVE SMOOTH",
"145 204 OFFCURVE",
"151 229 OFFCURVE",
"166 250 CURVE",
"106 292 LINE",
"75 251 OFFCURVE",
"59 207 OFFCURVE",
"59 161 CURVE SMOOTH",
"59 57 OFFCURVE",
"132 -5 OFFCURVE",
"251 -5 CURVE SMOOTH"
);
}
);
width = 741;
}
);
note = g121;
},
{
glyphname = u10A2C10A3F10A31;
lastChange = "2017-09-08 13:56:04 +0000";
layers = (
{
layerId = UUID0;
paths = (
{
closed = 1;
nodes = (
"354 51 OFFCURVE",
"417 164 OFFCURVE",
"463 273 CURVE",
"483 270 OFFCURVE",
"506 269 OFFCURVE",
"531 269 CURVE SMOOTH",
"646 269 OFFCURVE",
"719 344 OFFCURVE",
"719 464 CURVE SMOOTH",
"719 507 OFFCURVE",
"705 568 OFFCURVE",
"705 609 CURVE SMOOTH",
"705 640 OFFCURVE",
"711 667 OFFCURVE",
"724 689 CURVE",
"659 730 LINE",
"635 693 OFFCURVE",
"624 653 OFFCURVE",
"624 611 CURVE SMOOTH",
"624 553 OFFCURVE",
"633 516 OFFCURVE",
"633 462 CURVE SMOOTH",
"633 378 OFFCURVE",
"600 339 OFFCURVE",
"533 339 CURVE SMOOTH",
"516 339 OFFCURVE",
"501 340 OFFCURVE",
"489 342 CURVE",
"516 418 OFFCURVE",
"530 483 OFFCURVE",
"530 535 CURVE SMOOTH",
"530 650 OFFCURVE",
"465 713 OFFCURVE",
"349 713 CURVE SMOOTH",
"271 713 OFFCURVE",
"176 695 OFFCURVE",
"99 666 CURVE",
"117 597 LINE",
"192 622 OFFCURVE",
"265 635 OFFCURVE",
"338 635 CURVE SMOOTH",
"403 635 OFFCURVE",
"444 591 OFFCURVE",
"444 531 CURVE SMOOTH",
"444 382 OFFCURVE",
"336 159 OFFCURVE",
"236 26 CURVE",
"305 -17 LINE"
);
}
);
width = 802;
}
);
note = g122;
},
{
glyphname = u10A2F10A3F10A1F;
lastChange = "2017-09-08 13:56:04 +0000";
layers = (
{
layerId = UUID0;
paths = (
{
closed = 1;
nodes = (
"379 88 OFFCURVE",
"449 228 OFFCURVE",
"486 333 CURVE",
"550 333 OFFCURVE",
"614 332 OFFCURVE",
"680 328 CURVE",
"696 400 LINE",
"636 404 OFFCURVE",
"574 407 OFFCURVE",
"510 407 CURVE",
"523 455 OFFCURVE",
"530 498 OFFCURVE",
"530 535 CURVE SMOOTH",
"530 650 OFFCURVE",
"465 713 OFFCURVE",
"349 713 CURVE SMOOTH",
"271 713 OFFCURVE",
"176 695 OFFCURVE",
"99 666 CURVE",
"117 597 LINE",
"192 622 OFFCURVE",
"265 635 OFFCURVE",
"338 635 CURVE SMOOTH",
"403 635 OFFCURVE",
"444 591 OFFCURVE",
"444 531 CURVE SMOOTH",
"444 494 OFFCURVE",
"438 453 OFFCURVE",
"425 407 CURVE",
"334 405 OFFCURVE",
"259 403 OFFCURVE",
"201 399 CURVE",
"185 324 LINE",
"251 328 OFFCURVE",
"324 331 OFFCURVE",
"401 333 CURVE",
"364 229 OFFCURVE",
"298 108 OFFCURVE",
"236 26 CURVE",
"305 -17 LINE"
);
}
);
width = 706;
}
);
note = g123;
},
{
glyphname = u10A2F10A3F10A29;
lastChange = "2017-09-08 13:56:04 +0000";
layers = (
{
layerId = UUID0;
paths = (
{
closed = 1;
nodes = (
"295 -85 OFFCURVE",
"362 -22 OFFCURVE",
"364 89 CURVE",
"379 98 OFFCURVE",
"392 109 OFFCURVE",
"402 122 CURVE",
"496 184 OFFCURVE",
"576 311 OFFCURVE",
"603 439 CURVE",
"618 438 OFFCURVE",
"635 438 OFFCURVE",
"653 438 CURVE SMOOTH",
"771 438 OFFCURVE",
"876 510 OFFCURVE",
"876 630 CURVE SMOOTH",
"876 747 OFFCURVE",
"797 776 OFFCURVE",
"656 793 CURVE SMOOTH",
"574 803 OFFCURVE",
"531 825 OFFCURVE",
"519 873 CURVE",
"450 847 LINE",
"471 753 OFFCURVE",
"539 736 OFFCURVE",
"647 722 CURVE SMOOTH",
"758 708 OFFCURVE",
"790 683 OFFCURVE",
"790 627 CURVE SMOOTH",
"790 556 OFFCURVE",
"735 508 OFFCURVE",
"655 508 CURVE SMOOTH",
"642 508 OFFCURVE",
"630 509 OFFCURVE",
"617 509 CURVE",
"617 554 OFFCURVE",
"607 597 OFFCURVE",
"595 612 CURVE",
"529 596 LINE",
"534 579 OFFCURVE",
"537 554 OFFCURVE",
"537 523 CURVE SMOOTH",
"537 422 OFFCURVE",
"492 313 OFFCURVE",
"424 241 CURVE",
"411 286 OFFCURVE",
"369 320 OFFCURVE",
"313 329 CURVE",
"289 261 LINE",
"328 257 OFFCURVE",
"353 232 OFFCURVE",
"353 199 CURVE SMOOTH",
"353 160 OFFCURVE",
"320 137 OFFCURVE",
"265 137 CURVE SMOOTH",
"253 137 OFFCURVE",
"244 137 OFFCURVE",
"238 139 CURVE",
"208 68 LINE",
"224 65 OFFCURVE",
"238 63 OFFCURVE",
"253 63 CURVE SMOOTH",
"263 63 OFFCURVE",
"274 63 OFFCURVE",
"284 64 CURVE",
"277 7 OFFCURVE",
"244 -21 OFFCURVE",
"182 -21 CURVE SMOOTH",
"113 -21 OFFCURVE",
"71 16 OFFCURVE",
"71 81 CURVE SMOOTH",
"71 89 OFFCURVE",
"72 100 OFFCURVE",
"74 111 CURVE",
"2 123 LINE",
"-2 104 OFFCURVE",
"-5 85 OFFCURVE",
"-5 67 CURVE SMOOTH",
"-5 -24 OFFCURVE",
"65 -85 OFFCURVE",
"182 -85 CURVE SMOOTH"
);
}
);
width = 920;
}
);
note = g124;
},
{
glyphname = u10A2A10A3F10A1F;
lastChange = "2017-09-08 13:56:04 +0000";
layers = (
{
layerId = UUID0;
paths = (
{
closed = 1;
nodes = (
"581 41 OFFCURVE",
"609 103 OFFCURVE",
"609 167 CURVE SMOOTH",
"609 224 OFFCURVE",
"588 270 OFFCURVE",
"546 306 CURVE",
"554 337 OFFCURVE",
"557 369 OFFCURVE",
"557 399 CURVE SMOOTH",
"557 508 OFFCURVE",
"505 551 OFFCURVE",
"391 551 CURVE SMOOTH",
"354 551 OFFCURVE",
"291 543 OFFCURVE",
"250 543 CURVE SMOOTH",
"198 543 OFFCURVE",
"172 560 OFFCURVE",
"172 594 CURVE SMOOTH",
"172 626 OFFCURVE",
"196 652 OFFCURVE",
"236 662 CURVE",
"211 731 LINE",
"141 719 OFFCURVE",
"88 663 OFFCURVE",
"88 596 CURVE SMOOTH",
"88 513 OFFCURVE",
"143 465 OFFCURVE",
"238 465 CURVE SMOOTH",
"293 465 OFFCURVE",
"327 473 OFFCURVE",
"379 473 CURVE SMOOTH",
"441 473 OFFCURVE",
"471 454 OFFCURVE",
"471 399 CURVE SMOOTH",
"471 380 OFFCURVE",
"470 364 OFFCURVE",
"468 349 CURVE",
"436 359 OFFCURVE",
"399 364 OFFCURVE",
"359 364 CURVE SMOOTH",
"237 364 OFFCURVE",
"131 291 OFFCURVE",
"131 177 CURVE SMOOTH",
"131 96 OFFCURVE",
"194 40 OFFCURVE",
"284 40 CURVE SMOOTH",
"381 40 OFFCURVE",
"453 90 OFFCURVE",
"514 214 CURVE",
"520 200 OFFCURVE",
"523 185 OFFCURVE",
"523 169 CURVE SMOOTH",
"523 125 OFFCURVE",
"505 81 OFFCURVE",
"470 36 CURVE",
"524 -20 LINE"
);
},
{
closed = 1;
nodes = (
"245 114 OFFCURVE",
"215 141 OFFCURVE",
"215 182 CURVE SMOOTH",
"215 250 OFFCURVE",
"271 290 OFFCURVE",
"359 290 CURVE SMOOTH",
"395 290 OFFCURVE",
"424 285 OFFCURVE",
"449 275 CURVE",
"403 167 OFFCURVE",
"350 114 OFFCURVE",
"290 114 CURVE SMOOTH"
);
}
);
width = 658;
}
);
note = g125;
},
{
glyphname = u10A1F10A3F10A2A;
lastChange = "2017-09-08 13:56:04 +0000";
layers = (
{
layerId = UUID0;
paths = (
{
closed = 1;
nodes = (
"567 -5 OFFCURVE",
"623 36 OFFCURVE",
"648 104 CURVE",
"569 135 LINE",
"555 94 OFFCURVE",
"527 73 OFFCURVE",
"486 73 CURVE SMOOTH",
"439 73 OFFCURVE",
"416 92 OFFCURVE",
"416 128 CURVE SMOOTH",
"416 230 OFFCURVE",
"513 306 OFFCURVE",
"513 441 CURVE SMOOTH",
"513 532 OFFCURVE",
"456 569 OFFCURVE",
"332 569 CURVE SMOOTH",
"284 569 OFFCURVE",
"250 570 OFFCURVE",
"230 572 CURVE SMOOTH",
"191 576 OFFCURVE",
"178 583 OFFCURVE",
"178 612 CURVE SMOOTH",
"178 632 OFFCURVE",
"185 664 OFFCURVE",
"197 707 CURVE",
"117 720 LINE",
"107 689 OFFCURVE",
"99 637 OFFCURVE",
"99 596 CURVE SMOOTH",
"99 534 OFFCURVE",
"118 511 OFFCURVE",
"174 500 CURVE SMOOTH",
"202 494 OFFCURVE",
"251 491 OFFCURVE",
"321 491 CURVE SMOOTH",
"398 491 OFFCURVE",
"427 478 OFFCURVE",
"427 437 CURVE SMOOTH",
"427 321 OFFCURVE",
"329 221 OFFCURVE",
"329 123 CURVE SMOOTH",
"329 42 OFFCURVE",
"388 -5 OFFCURVE",
"488 -5 CURVE SMOOTH"
);
}
);
width = 697;
}
);
note = g126;
},
{
glyphname = u10A2B10A3F10A24;
lastChange = "2017-09-08 13:56:04 +0000";
layers = (
{
layerId = UUID0;
paths = (
{
closed = 1;
nodes = (
"325 105 OFFCURVE",
"364 264 OFFCURVE",
"423 462 CURVE",
"556 438 OFFCURVE",
"623 381 OFFCURVE",
"623 291 CURVE SMOOTH",
"623 254 OFFCURVE",
"606 219 OFFCURVE",
"574 184 CURVE",
"637 132 LINE",
"685 180 OFFCURVE",
"708 235 OFFCURVE",
"708 298 CURVE SMOOTH",
"708 426 OFFCURVE",
"619 508 OFFCURVE",
"445 534 CURVE",
"470 612 OFFCURVE",
"490 668 OFFCURVE",
"504 702 CURVE",
"423 724 LINE",
"404 678 OFFCURVE",
"383 616 OFFCURVE",
"359 538 CURVE",
"220 536 OFFCURVE",
"125 524 OFFCURVE",
"73 502 CURVE",
"91 433 LINE",
"152 453 OFFCURVE",
"226 461 OFFCURVE",
"337 465 CURVE",
"288 303 OFFCURVE",
"237 104 OFFCURVE",
"222 -8 CURVE",
"307 -15 LINE"
);
}
);
width = 752;
}
);
note = g127;
},
{
glyphname = u10A2410A3F10A2B;
lastChange = "2017-09-08 13:56:04 +0000";
layers = (
{
layerId = UUID0;
paths = (
{
closed = 1;
nodes = (
"168 35 OFFCURVE",
"180 94 OFFCURVE",
"196 161 CURVE",
"238 118 OFFCURVE",
"273 61 OFFCURVE",
"301 -11 CURVE",
"380 28 LINE",
"339 126 OFFCURVE",
"285 202 OFFCURVE",
"219 253 CURVE",
"237 323 OFFCURVE",
"257 393 OFFCURVE",
"278 463 CURVE",
"414 439 OFFCURVE",
"477 382 OFFCURVE",
"477 291 CURVE SMOOTH",
"477 254 OFFCURVE",
"461 219 OFFCURVE",
"428 184 CURVE",
"491 132 LINE",
"539 180 OFFCURVE",
"563 235 OFFCURVE",
"563 298 CURVE SMOOTH",
"563 425 OFFCURVE",
"474 508 OFFCURVE",
"299 534 CURVE",
"322 610 OFFCURVE",
"342 666 OFFCURVE",
"357 702 CURVE",
"276 724 LINE",
"240 637 OFFCURVE",
"196 495 OFFCURVE",
"143 297 CURVE",
"107 311 OFFCURVE",
"70 318 OFFCURVE",
"33 318 CURVE SMOOTH",
"13 318 OFFCURVE",
"-5 316 OFFCURVE",
"-20 314 CURVE",
"-11 230 LINE",
"2 232 OFFCURVE",
"17 233 OFFCURVE",
"31 233 CURVE SMOOTH",
"63 233 OFFCURVE",
"93 227 OFFCURVE",
"121 213 CURVE",
"98 121 OFFCURVE",
"83 47 OFFCURVE",
"75 -8 CURVE",
"160 -15 LINE"
);
}
);
width = 607;
}
);
note = g128;
},
{
glyphname = u10A1010A3F10A2B;
lastChange = "2017-09-08 13:56:04 +0000";
layers = (
{
layerId = UUID0;
paths = (
{
closed = 1;
nodes = (
"393 34 OFFCURVE",
"414 82 OFFCURVE",
"432 125 CURVE",
"460 88 OFFCURVE",
"485 42 OFFCURVE",
"506 -11 CURVE",
"585 28 LINE",
"553 104 OFFCURVE",
"513 167 OFFCURVE",
"465 216 CURVE",
"476 248 OFFCURVE",
"485 278 OFFCURVE",
"492 307 CURVE",
"603 280 OFFCURVE",
"654 226 OFFCURVE",
"654 143 CURVE SMOOTH",
"654 106 OFFCURVE",
"638 71 OFFCURVE",
"605 36 CURVE",
"668 -16 LINE",
"716 33 OFFCURVE",
"740 88 OFFCURVE",
"740 150 CURVE SMOOTH",
"740 271 OFFCURVE",
"662 350 OFFCURVE",
"507 380 CURVE",
"513 413 OFFCURVE",
"516 445 OFFCURVE",
"516 478 CURVE SMOOTH",
"516 638 OFFCURVE",
"438 716 OFFCURVE",
"294 716 CURVE SMOOTH",
"178 716 OFFCURVE",
"88 646 OFFCURVE",
"88 536 CURVE SMOOTH",
"88 479 OFFCURVE",
"111 427 OFFCURVE",
"158 380 CURVE",
"221 432 LINE",
"188 467 OFFCURVE",
"172 502 OFFCURVE",
"172 539 CURVE SMOOTH",
"172 601 OFFCURVE",
"221 642 OFFCURVE",
"294 642 CURVE SMOOTH",
"384 642 OFFCURVE",
"430 584 OFFCURVE",
"430 474 CURVE SMOOTH",
"430 416 OFFCURVE",
"418 349 OFFCURVE",
"396 272 CURVE",
"347 303 OFFCURVE",
"294 318 OFFCURVE",
"238 318 CURVE SMOOTH",
"218 318 OFFCURVE",
"200 316 OFFCURVE",
"186 314 CURVE",
"194 230 LINE",
"208 232 OFFCURVE",
"222 233 OFFCURVE",
"236 233 CURVE SMOOTH",
"284 233 OFFCURVE",
"328 219 OFFCURVE",
"368 189 CURVE",
"345 126 OFFCURVE",
"318 65 OFFCURVE",
"288 6 CURVE",
"368 -16 LINE"
);
}
);
width = 799;
}
);
note = g129;
},
{
glyphname = u10A1F10A3F10A2C;
lastChange = "2017-09-08 13:56:04 +0000";
layers = (
{
layerId = UUID0;
paths = (
{
closed = 1;
nodes = (
"560 -5 OFFCURVE",
"724 235 OFFCURVE",
"814 714 CURVE",
"732 728 LINE",
"691 427 OFFCURVE",
"553 69 OFFCURVE",
"322 69 CURVE SMOOTH",
"283 69 OFFCURVE",
"251 75 OFFCURVE",
"251 103 CURVE SMOOTH",
"251 125 OFFCURVE",
"293 151 OFFCURVE",
"370 184 CURVE SMOOTH",
"505 242 OFFCURVE",
"557 310 OFFCURVE",
"557 399 CURVE SMOOTH",
"557 508 OFFCURVE",
"505 551 OFFCURVE",
"391 551 CURVE SMOOTH",
"354 551 OFFCURVE",
"291 543 OFFCURVE",
"250 543 CURVE SMOOTH",
"198 543 OFFCURVE",
"172 560 OFFCURVE",
"172 594 CURVE SMOOTH",
"172 626 OFFCURVE",
"196 652 OFFCURVE",
"236 662 CURVE",
"211 731 LINE",
"141 719 OFFCURVE",
"88 663 OFFCURVE",
"88 596 CURVE SMOOTH",
"88 513 OFFCURVE",
"143 465 OFFCURVE",
"238 465 CURVE SMOOTH",
"293 465 OFFCURVE",
"327 473 OFFCURVE",
"379 473 CURVE SMOOTH",
"441 473 OFFCURVE",
"471 454 OFFCURVE",
"471 399 CURVE SMOOTH",
"471 330 OFFCURVE",
"419 282 OFFCURVE",
"311 238 CURVE SMOOTH",
"201 193 OFFCURVE",
"166 156 OFFCURVE",
"166 100 CURVE SMOOTH",
"166 25 OFFCURVE",
"223 -5 OFFCURVE",
"322 -5 CURVE SMOOTH"
);
}
);
width = 861;
}
);
note = g130;
},
{
glyphname = u10A1010A3F10A1F;
lastChange = "2017-09-08 13:56:04 +0000";
layers = (
{
layerId = UUID0;
paths = (
{
closed = 1;
nodes = (
"384 -243 OFFCURVE",
"504 -153 OFFCURVE",
"504 -20 CURVE SMOOTH",
"504 45 OFFCURVE",
"475 86 OFFCURVE",
"417 105 CURVE",
"444 172 OFFCURVE",
"467 239 OFFCURVE",
"485 307 CURVE",
"596 280 OFFCURVE",
"647 226 OFFCURVE",
"647 143 CURVE SMOOTH",
"647 106 OFFCURVE",
"631 71 OFFCURVE",
"598 36 CURVE",
"661 -16 LINE",
"709 33 OFFCURVE",
"733 88 OFFCURVE",
"733 150 CURVE SMOOTH",
"733 271 OFFCURVE",
"655 350 OFFCURVE",
"500 380 CURVE",
"506 413 OFFCURVE",
"509 445 OFFCURVE",
"509 478 CURVE SMOOTH",
"509 638 OFFCURVE",
"432 716 OFFCURVE",
"287 716 CURVE SMOOTH",
"171 716 OFFCURVE",
"81 646 OFFCURVE",
"81 536 CURVE SMOOTH",
"81 479 OFFCURVE",
"104 427 OFFCURVE",
"151 380 CURVE",
"214 432 LINE",
"182 467 OFFCURVE",
"165 502 OFFCURVE",
"165 539 CURVE SMOOTH",
"165 601 OFFCURVE",
"214 642 OFFCURVE",
"287 642 CURVE SMOOTH",
"377 642 OFFCURVE",
"423 584 OFFCURVE",
"423 474 CURVE SMOOTH",
"423 381 OFFCURVE",
"393 262 OFFCURVE",
"332 116 CURVE",
"296 115 OFFCURVE",
"247 108 OFFCURVE",
"207 108 CURVE SMOOTH",
"156 108 OFFCURVE",
"137 116 OFFCURVE",
"137 146 CURVE SMOOTH",
"137 173 OFFCURVE",
"161 196 OFFCURVE",
"196 204 CURVE",
"173 260 LINE",
"112 252 OFFCURVE",
"59 201 OFFCURVE",
"59 144 CURVE SMOOTH",
"59 72 OFFCURVE",
"110 35 OFFCURVE",
"195 35 CURVE SMOOTH",
"253 35 OFFCURVE",
"280 43 OFFCURVE",
"330 43 CURVE SMOOTH",
"392 43 OFFCURVE",
"423 21 OFFCURVE",
"423 -21 CURVE SMOOTH",
"423 -122 OFFCURVE",
"331 -184 OFFCURVE",
"126 -221 CURVE",
"144 -289 LINE"
);
}
);
width = 792;
}
);
note = g131;
},
{
glyphname = u10A1110A3F10A1010A3F10A2E;
lastChange = "2017-09-08 13:56:04 +0000";
layers = (
{
layerId = UUID0;
paths = (
{
closed = 1;
nodes = (
"337 49 OFFCURVE",
"379 188 OFFCURVE",
"379 321 CURVE SMOOTH",
"379 340 OFFCURVE",
"377 364 OFFCURVE",
"375 394 CURVE",
"504 408 OFFCURVE",
"571 484 OFFCURVE",
"571 613 CURVE SMOOTH",
"571 654 OFFCURVE",
"554 708 OFFCURVE",
"530 733 CURVE",
"459 703 LINE",
"478 675 OFFCURVE",
"487 636 OFFCURVE",
"487 610 CURVE SMOOTH",
"487 514 OFFCURVE",
"433 465 OFFCURVE",
"331 465 CURVE SMOOTH",
"227 465 OFFCURVE",
"174 506 OFFCURVE",
"174 589 CURVE SMOOTH",
"174 624 OFFCURVE",
"192 664 OFFCURVE",
"214 684 CURVE",
"150 730 LINE",
"116 697 OFFCURVE",
"88 633 OFFCURVE",
"88 582 CURVE SMOOTH",
"88 477 OFFCURVE",
"166 403 OFFCURVE",
"291 393 CURVE",
"292 370 OFFCURVE",
"293 348 OFFCURVE",
"293 325 CURVE SMOOTH",
"292 209 OFFCURVE",
"259 73 OFFCURVE",
"213 21 CURVE",
"284 -13 LINE"
);
},
{
closed = 1;
nodes = (
"431 537 OFFCURVE",
"446 573 OFFCURVE",
"446 605 CURVE SMOOTH",
"446 659 OFFCURVE",
"417 680 OFFCURVE",
"361 687 CURVE SMOOTH",
"313 693 OFFCURVE",
"288 716 OFFCURVE",
"288 765 CURVE SMOOTH",
"288 807 OFFCURVE",
"323 833 OFFCURVE",
"372 833 CURVE SMOOTH",
"402 833 OFFCURVE",
"444 822 OFFCURVE",
"471 807 CURVE",
"495 867 LINE",
"458 885 OFFCURVE",
"406 896 OFFCURVE",
"374 896 CURVE SMOOTH",
"270 896 OFFCURVE",
"217 845 OFFCURVE",
"217 750 CURVE SMOOTH",
"217 682 OFFCURVE",
"266 632 OFFCURVE",
"342 625 CURVE SMOOTH",
"362 623 OFFCURVE",
"375 618 OFFCURVE",
"375 604 CURVE SMOOTH",
"375 586 OFFCURVE",
"353 542 OFFCURVE",
"325 505 CURVE",
"401 495 LINE"
);
}
);
width = 649;
}
);
note = g132;
},
{
glyphname = uni25CC;
lastChange = "2017-09-08 13:56:04 +0000";
layers = (
{
layerId = UUID0;
paths = (
{
closed = 1;
nodes = (
"480 466 OFFCURVE",
"472 475 OFFCURVE",
"455 475 CURVE SMOOTH",
"437 475 OFFCURVE",
"428 466 OFFCURVE",
"428 448 CURVE SMOOTH",
"428 431 OFFCURVE",
"437 422 OFFCURVE",
"455 422 CURVE SMOOTH",
"472 422 OFFCURVE",
"480 431 OFFCURVE",
"480 448 CURVE SMOOTH"
);
},
{
closed = 1;
nodes = (
"408 514 OFFCURVE",
"400 523 OFFCURVE",
"383 523 CURVE SMOOTH",
"364 523 OFFCURVE",
"355 514 OFFCURVE",
"355 496 CURVE SMOOTH",
"355 479 OFFCURVE",
"364 470 OFFCURVE",
"383 470 CURVE SMOOTH",
"400 470 OFFCURVE",
"408 479 OFFCURVE",
"408 496 CURVE SMOOTH"
);
},
{
closed = 1;
nodes = (
"529 393 OFFCURVE",
"520 402 OFFCURVE",
"503 402 CURVE SMOOTH",
"485 402 OFFCURVE",
"476 393 OFFCURVE",
"476 376 CURVE SMOOTH",
"476 358 OFFCURVE",
"485 349 OFFCURVE",
"502 349 CURVE SMOOTH",
"520 349 OFFCURVE",
"529 358 OFFCURVE",
"529 376 CURVE SMOOTH"
);
},
{
closed = 1;
nodes = (
"546 308 OFFCURVE",
"538 317 OFFCURVE",
"521 317 CURVE SMOOTH",
"503 317 OFFCURVE",
"494 308 OFFCURVE",
"494 291 CURVE SMOOTH",
"494 274 OFFCURVE",
"503 265 OFFCURVE",
"521 265 CURVE SMOOTH",
"538 265 OFFCURVE",
"546 274 OFFCURVE",
"546 291 CURVE SMOOTH"
);
},
{
closed = 1;
nodes = (
"323 531 OFFCURVE",
"314 540 OFFCURVE",
"297 540 CURVE SMOOTH",
"280 540 OFFCURVE",
"271 531 OFFCURVE",
"271 514 CURVE SMOOTH",
"271 496 OFFCURVE",
"280 487 OFFCURVE",
"297 487 CURVE SMOOTH",
"314 487 OFFCURVE",
"323 496 OFFCURVE",
"323 514 CURVE SMOOTH"
);
},
{
closed = 1;
nodes = (
"239 514 OFFCURVE",
"230 523 OFFCURVE",
"212 523 CURVE SMOOTH",
"195 523 OFFCURVE",
"186 514 OFFCURVE",
"186 496 CURVE SMOOTH",
"186 479 OFFCURVE",
"195 470 OFFCURVE",
"212 470 CURVE SMOOTH",
"230 470 OFFCURVE",
"239 479 OFFCURVE",
"239 496 CURVE SMOOTH"
);
},
{
closed = 1;
nodes = (
"529 224 OFFCURVE",
"520 233 OFFCURVE",
"502 233 CURVE SMOOTH",
"485 233 OFFCURVE",
"476 224 OFFCURVE",
"476 206 CURVE SMOOTH",
"476 189 OFFCURVE",
"485 180 OFFCURVE",
"502 180 CURVE SMOOTH",
"520 180 OFFCURVE",
"529 189 OFFCURVE",
"529 206 CURVE SMOOTH"
);
},
{
closed = 1;
nodes = (
"167 466 OFFCURVE",
"158 475 OFFCURVE",
"140 475 CURVE SMOOTH",
"123 475 OFFCURVE",
"114 466 OFFCURVE",
"114 447 CURVE SMOOTH",
"114 430 OFFCURVE",
"123 422 OFFCURVE",
"140 422 CURVE SMOOTH",
"158 422 OFFCURVE",
"167 431 OFFCURVE",
"167 448 CURVE SMOOTH"
);
},
{
closed = 1;
nodes = (
"480 151 OFFCURVE",
"472 160 OFFCURVE",
"455 160 CURVE SMOOTH",
"437 160 OFFCURVE",
"428 151 OFFCURVE",
"428 133 CURVE SMOOTH",
"428 116 OFFCURVE",
"437 107 OFFCURVE",
"455 107 CURVE SMOOTH",
"472 107 OFFCURVE",
"480 116 OFFCURVE",
"480 133 CURVE SMOOTH"
);
},
{
closed = 1;
nodes = (
"408 103 OFFCURVE",
"400 112 OFFCURVE",
"383 112 CURVE SMOOTH",
"364 112 OFFCURVE",
"355 103 OFFCURVE",
"355 85 CURVE SMOOTH",
"355 68 OFFCURVE",
"364 60 OFFCURVE",
"383 60 CURVE SMOOTH",
"400 60 OFFCURVE",
"408 68 OFFCURVE",
"408 85 CURVE SMOOTH"
);
},
{
closed = 1;
nodes = (
"118 393 OFFCURVE",
"109 402 OFFCURVE",
"92 402 CURVE SMOOTH",
"74 402 OFFCURVE",
"65 393 OFFCURVE",
"65 376 CURVE SMOOTH",
"65 358 OFFCURVE",
"74 349 OFFCURVE",
"93 349 CURVE SMOOTH",
"110 349 OFFCURVE",
"118 358 OFFCURVE",
"118 376 CURVE SMOOTH"
);
},
{
closed = 1;
nodes = (
"101 308 OFFCURVE",
"92 317 OFFCURVE",
"75 317 CURVE SMOOTH",
"57 317 OFFCURVE",
"48 308 OFFCURVE",
"48 291 CURVE SMOOTH",
"48 274 OFFCURVE",
"57 265 OFFCURVE",
"75 265 CURVE SMOOTH",
"92 265 OFFCURVE",
"101 274 OFFCURVE",
"101 291 CURVE SMOOTH"
);
},
{
closed = 1;
nodes = (
"323 86 OFFCURVE",
"314 95 OFFCURVE",
"297 95 CURVE SMOOTH",
"280 95 OFFCURVE",
"271 86 OFFCURVE",
"271 69 CURVE SMOOTH",
"271 51 OFFCURVE",
"280 42 OFFCURVE",
"297 42 CURVE SMOOTH",
"314 42 OFFCURVE",
"323 51 OFFCURVE",
"323 69 CURVE SMOOTH"
);
},
{
closed = 1;
nodes = (
"118 224 OFFCURVE",
"109 233 OFFCURVE",
"92 233 CURVE SMOOTH",
"74 233 OFFCURVE",
"65 224 OFFCURVE",
"65 206 CURVE SMOOTH",
"65 189 OFFCURVE",
"74 180 OFFCURVE",
"92 180 CURVE SMOOTH",
"109 180 OFFCURVE",
"118 189 OFFCURVE",
"118 206 CURVE SMOOTH"
);
},
{
closed = 1;
nodes = (
"239 104 OFFCURVE",
"230 112 OFFCURVE",
"212 112 CURVE SMOOTH",
"195 112 OFFCURVE",
"186 103 OFFCURVE",
"186 85 CURVE SMOOTH",
"186 68 OFFCURVE",
"195 60 OFFCURVE",
"212 60 CURVE SMOOTH",
"230 60 OFFCURVE",
"239 69 OFFCURVE",
"239 87 CURVE SMOOTH"
);
},
{
closed = 1;
nodes = (
"167 151 OFFCURVE",
"158 160 OFFCURVE",
"140 160 CURVE SMOOTH",
"123 160 OFFCURVE",
"114 151 OFFCURVE",
"114 133 CURVE SMOOTH",
"114 116 OFFCURVE",
"123 107 OFFCURVE",
"140 107 CURVE SMOOTH",
"158 107 OFFCURVE",
"167 116 OFFCURVE",
"167 133 CURVE SMOOTH"
);
}
